<svg width="8" height="4" viewBox="0 0 8 4" fill="none" xmlns="http://www.w3.org/2000/svg">
<path d="M3.99373 3.99865C3.86044 3.99891 3.73128 3.95243 3.62865 3.86729L0.206069 1.01162C0.0895779 0.914678 0.0163207 0.775372 0.00241378 0.624349C-0.0114932 0.473327 0.0350893 0.322958 0.131913 0.206323C0.228737 0.089688 0.367872 0.0163408 0.518708 0.00241676C0.669545 -0.0115073 0.819728 0.0351323 0.93622 0.132076L3.99373 2.69075L7.05123 0.223457C7.10958 0.176016 7.17672 0.140587 7.24879 0.119209C7.32085 0.0978302 7.39643 0.090923 7.47117 0.0988842C7.54591 0.106845 7.61835 0.129517 7.68431 0.165598C7.75027 0.201679 7.80847 0.250457 7.85554 0.309127C7.90778 0.367852 7.94734 0.436746 7.97175 0.511492C7.99616 0.586238 8.00489 0.665226 7.9974 0.743508C7.9899 0.821789 7.96634 0.897677 7.92818 0.966417C7.89003 1.03516 7.83811 1.09527 7.77568 1.14298L4.3531 3.90156C4.24752 3.97324 4.12099 4.00743 3.99373 3.99865Z" fill="black"/>
</svg>
