<svg width="28" height="28" viewBox="0 0 28 28" fill="none" xmlns="http://www.w3.org/2000/svg">
<circle cx="14" cy="14" r="14" fill="#F7941C"/>
<path d="M18.6973 14.9097C18.6973 15.9058 18.5361 16.7725 18.2139 17.5098C17.8916 18.2422 17.4448 18.8306 16.8735 19.2749L18.646 20.6665L17.2471 21.9043L14.9766 20.0806C14.7178 20.1245 14.4492 20.1465 14.1709 20.1465C13.2871 20.1465 12.4985 19.9341 11.8052 19.5093C11.1118 19.0845 10.5747 18.479 10.1938 17.6929C9.81299 16.9019 9.62012 15.9937 9.61523 14.9683V14.4409C9.61523 13.3911 9.80322 12.4683 10.1792 11.6724C10.5601 10.8716 11.0947 10.2588 11.7832 9.83398C12.4766 9.4043 13.2676 9.18945 14.1562 9.18945C15.0449 9.18945 15.8335 9.4043 16.522 9.83398C17.2153 10.2588 17.75 10.8716 18.126 11.6724C18.5068 12.4683 18.6973 13.3887 18.6973 14.4336V14.9097ZM16.4707 14.4263C16.4707 13.3081 16.2705 12.4585 15.8701 11.8774C15.4697 11.2964 14.8984 11.0059 14.1562 11.0059C13.4189 11.0059 12.8501 11.2939 12.4497 11.8701C12.0493 12.4414 11.8467 13.2812 11.8418 14.3896V14.9097C11.8418 15.9985 12.042 16.8433 12.4424 17.4438C12.8428 18.0444 13.4189 18.3447 14.1709 18.3447C14.9082 18.3447 15.4746 18.0566 15.8701 17.4805C16.2656 16.8994 16.4658 16.0547 16.4707 14.9463V14.4263Z" fill="white"/>
</svg>
