<svg width="17" height="20" viewBox="0 0 17 20" fill="none" xmlns="http://www.w3.org/2000/svg">
<path d="M6 0H15C16.1 0 17 0.9 17 2V18C17 19.1 16.1 20 15 20H6C4.9 20 4 19.1 4 18V17C4 16.7348 4.10536 16.4804 4.29289 16.2929C4.48043 16.1054 4.73478 16 5 16C5.26522 16 5.51957 16.1054 5.70711 16.2929C5.89464 16.4804 6 16.7348 6 17V18H15V2H6V3C6 3.26522 5.89464 3.51957 5.70711 3.70711C5.51957 3.89464 5.26522 4 5 4C4.73478 4 4.48043 3.89464 4.29289 3.70711C4.10536 3.51957 4 3.26522 4 3V2C4 0.9 4.9 0 6 0Z" fill="white"/>
<path d="M7.795 14.2951C8.185 14.6851 8.815 14.6851 9.205 14.2951L12.793 10.7071C12.9805 10.5196 13.0858 10.2653 13.0858 10.0001C13.0858 9.73496 12.9805 9.48065 12.793 9.29313L9.205 5.70513C9.01491 5.53332 8.76607 5.44112 8.50993 5.44758C8.25379 5.45405 8.00992 5.55869 7.82874 5.73987C7.64756 5.92104 7.54292 6.16491 7.53646 6.42106C7.52999 6.6772 7.62219 6.92604 7.794 7.11613L9.67 9.00013H1C0.734784 9.00013 0.48043 9.10548 0.292893 9.29302C0.105357 9.48056 0 9.73491 0 10.0001C0 10.2653 0.105357 10.5197 0.292893 10.7072C0.48043 10.8948 0.734784 11.0001 1 11.0001H9.67L7.794 12.8841C7.60733 13.0715 7.50261 13.3253 7.5028 13.5898C7.50299 13.8543 7.60807 14.108 7.795 14.2951Z" fill="white"/>
</svg>
