<svg width="147" height="166" viewBox="0 0 147 166" fill="none" xmlns="http://www.w3.org/2000/svg">
<path d="M113.352 68.5287H83.8879V89.4886H113.352V68.5287Z" fill="#F7941C"/>
<path d="M83.8857 122.434H50.6118V137.19H72.4156V151.944H113.352V93.627H83.8857V122.434Z" fill="#F7941C"/>
<path d="M68.7122 140.899H50.6047V151.953H68.7122V140.899Z" fill="#F7941C"/>
<path d="M47.0054 122.434H30.3684V151.951H47.0054V122.434Z" fill="#F7941C"/>
<path d="M30.3684 68.5381V95.2941C37.4539 95.2935 44.249 92.4745 49.2596 87.4571C54.2702 82.4396 57.086 75.6345 57.0879 68.5381H30.3684Z" fill="#F7941C"/>
<path d="M40.6641 98.4271H39.9016V111.784H40.6641V98.4271Z" fill="#F7941C"/>
<path d="M55.2122 91.8372L54.6731 92.3772L64.1031 101.822L64.6423 101.282L55.2122 91.8372Z" fill="#F7941C"/>
<path d="M74.5939 77.5739H61.2578V78.3375H74.5939V77.5739Z" fill="#F7941C"/>
<path d="M29.4567 30.2446H22.7082C22.6068 30.244 22.5099 30.2032 22.4384 30.1312C22.367 30.0592 22.3269 29.9619 22.3269 29.8604V29.2461C22.3272 29.197 22.3374 29.1483 22.3569 29.1032C22.3764 29.058 22.4048 29.0173 22.4404 28.9834C22.476 28.9495 22.5181 28.9232 22.5641 28.906C22.6101 28.8888 22.6591 28.8811 22.7082 28.8833H28.699C29.0696 28.8814 29.4244 28.7332 29.6865 28.4707C29.9485 28.2083 30.0965 27.8529 30.0984 27.4817V25.0864C30.0959 24.7157 29.9476 24.3609 29.6856 24.0989C29.4237 23.837 29.0691 23.6891 28.699 23.6872H22.1635C21.7957 23.6903 21.4441 23.8394 21.1858 24.1016C20.9275 24.3639 20.7835 24.718 20.7854 25.0864V34.3355C20.7845 34.5172 20.8195 34.6972 20.8884 34.8652C20.9573 35.0332 21.0587 35.1859 21.1868 35.3144C21.3149 35.443 21.4672 35.5449 21.6349 35.6141C21.8025 35.6834 21.9822 35.7188 22.1635 35.7182H29.4567C29.6381 35.7188 29.8177 35.6834 29.9854 35.6141C30.153 35.5449 30.3053 35.443 30.4334 35.3144C30.5616 35.1859 30.663 35.0332 30.7319 34.8652C30.8008 34.6972 30.8358 34.5172 30.8348 34.3355V31.6248C30.8358 31.4433 30.8008 31.2634 30.7318 31.0955C30.6629 30.9276 30.5614 30.7751 30.4333 30.6467C30.3051 30.5184 30.1528 30.4168 29.9852 30.3477C29.8176 30.2787 29.6379 30.2436 29.4567 30.2446ZM22.3175 25.6129C22.3212 25.5146 22.3631 25.4216 22.4343 25.3538C22.5056 25.286 22.6004 25.2487 22.6987 25.2501H28.1733C28.2687 25.253 28.3594 25.2921 28.4271 25.3595C28.4948 25.4268 28.5344 25.5174 28.538 25.6129V26.9362C28.5344 27.032 28.4949 27.1228 28.4272 27.1906C28.3596 27.2583 28.2689 27.2979 28.1733 27.3015H22.7082C22.6097 27.3021 22.5148 27.2644 22.4436 27.1962C22.3725 27.1281 22.3306 27.0348 22.3269 26.9362L22.3175 25.6129ZM29.2649 33.7616C29.2666 33.81 29.2583 33.8583 29.2405 33.9033C29.2228 33.9484 29.196 33.9893 29.1618 34.0235C29.1276 34.0578 29.0867 34.0846 29.0417 34.1024C28.9967 34.1202 28.9486 34.1285 28.9002 34.1268H22.7082C22.659 34.1287 22.6099 34.1207 22.5639 34.1033C22.5179 34.0858 22.4758 34.0592 22.4402 34.0252C22.4047 33.9911 22.3763 33.9502 22.3569 33.9049C22.3374 33.8596 22.3272 33.8109 22.3269 33.7616V32.1893C22.3269 32.0878 22.367 31.9904 22.4384 31.9184C22.5099 31.8464 22.6068 31.8057 22.7082 31.8051H28.9097C28.959 31.8057 29.0078 31.8162 29.053 31.8359C29.0982 31.8557 29.139 31.8843 29.173 31.9201C29.207 31.9559 29.2335 31.9982 29.2509 32.0444C29.2683 32.0906 29.2763 32.1399 29.2744 32.1893L29.2649 33.7616Z" fill="white"/>
<path d="M31.8483 20.8507H26.6223C26.5819 20.8511 26.5419 20.8433 26.5045 20.8279C26.4672 20.8125 26.4333 20.7897 26.4048 20.761C26.3763 20.7323 26.3539 20.6982 26.3388 20.6606C26.3237 20.6231 26.3163 20.5829 26.3169 20.5424V20.1393C26.3169 19.9386 26.2373 19.7462 26.0956 19.6043C25.954 19.4625 25.7619 19.3828 25.5615 19.3828C25.3612 19.3828 25.1691 19.4625 25.0274 19.6043C24.8857 19.7462 24.8062 19.9386 24.8062 20.1393V20.5424C24.8068 20.5831 24.7993 20.6235 24.784 20.6612C24.7688 20.6989 24.7461 20.7331 24.7174 20.7619C24.6887 20.7906 24.6545 20.8133 24.6169 20.8286C24.5792 20.8439 24.5389 20.8514 24.4983 20.8507H19.2889C18.919 20.8526 18.5647 21.0006 18.3031 21.2626C18.0415 21.5246 17.8937 21.8795 17.8918 22.25V23.495C17.9027 23.6911 17.9882 23.8756 18.1306 24.0106C18.2731 24.1456 18.4618 24.2208 18.6579 24.2208C18.854 24.2208 19.0426 24.1456 19.1851 24.0106C19.3275 23.8756 19.413 23.6911 19.4239 23.495V22.729C19.4222 22.6806 19.4305 22.6324 19.4483 22.5873C19.466 22.5423 19.4928 22.5014 19.527 22.4671C19.5612 22.4329 19.6021 22.406 19.6471 22.3882C19.6921 22.3705 19.7402 22.3622 19.7885 22.3638H31.3511C31.4478 22.3638 31.5405 22.4023 31.6089 22.4708C31.6773 22.5393 31.7157 22.6322 31.7157 22.729V23.495C31.7157 23.6982 31.7963 23.893 31.9397 24.0367C32.0832 24.1804 32.2777 24.2611 32.4806 24.2611C32.5799 24.2604 32.6782 24.2401 32.7697 24.2011C32.8611 24.1622 32.944 24.1054 33.0134 24.0342C33.0827 23.9629 33.1373 23.8786 33.1739 23.786C33.2105 23.6935 33.2283 23.5946 33.2265 23.495V22.25C33.2277 22.0675 33.193 21.8865 33.1245 21.7174C33.0559 21.5483 32.9547 21.3944 32.8267 21.2645C32.6988 21.1346 32.5465 21.0311 32.3786 20.9602C32.2108 20.8892 32.0306 20.852 31.8483 20.8507Z" fill="white"/>
<path d="M49.6883 22.1148C49.5309 21.8648 49.3133 21.6582 49.0556 21.514C48.7979 21.3699 48.5083 21.2927 48.2131 21.2895C48.121 21.2887 48.0303 21.3126 47.9507 21.3589C47.871 21.4052 47.8052 21.4721 47.7601 21.5526C47.7151 21.6331 47.6925 21.7242 47.6947 21.8164C47.6969 21.9087 47.7239 21.9986 47.7727 22.0769L50.2803 26.1607C50.4337 26.41 50.6478 26.6163 50.9025 26.7602C51.1572 26.9042 51.4442 26.981 51.7366 26.9836C51.8294 26.9861 51.9211 26.9636 52.0022 26.9185C52.0834 26.8734 52.1509 26.8073 52.1978 26.7271C52.2448 26.6469 52.2693 26.5555 52.269 26.4626C52.2687 26.3696 52.2435 26.2785 52.196 26.1986L49.6883 22.1148Z" fill="white"/>
<path d="M41.5713 22.1907C41.6196 22.1074 41.6451 22.0128 41.6452 21.9165C41.6454 21.8202 41.6202 21.7255 41.5721 21.6421C41.5241 21.5586 41.455 21.4893 41.3717 21.4412C41.2884 21.393 41.1939 21.3677 41.0977 21.3678C40.816 21.3714 40.5402 21.4493 40.2982 21.5938C40.0562 21.7383 39.8566 21.9442 39.7195 22.1907L37.5742 26.2556C37.5313 26.3386 37.5101 26.4311 37.5127 26.5245C37.5152 26.6179 37.5413 26.7092 37.5886 26.7897C37.6359 26.8703 37.7029 26.9375 37.7832 26.9851C37.8635 27.0327 37.9545 27.0591 38.0478 27.0619C38.3252 27.0593 38.597 26.9834 38.8356 26.8418C39.0743 26.7002 39.2714 26.498 39.407 26.2556L41.5713 22.1907Z" fill="white"/>
<path d="M49.6692 30.6453C49.58 30.417 49.4249 30.2205 49.2238 30.0807C49.0226 29.9409 48.7845 29.8642 48.5397 29.8604C48.4455 29.8599 48.3525 29.8821 48.2686 29.9252C48.1847 29.9683 48.1124 30.031 48.0578 30.108C48.0033 30.185 47.968 30.274 47.955 30.3676C47.942 30.4611 47.9517 30.5564 47.9833 30.6453L48.5587 32.3339C48.5732 32.3812 48.5774 32.431 48.5709 32.4801C48.5644 32.5291 48.5474 32.5762 48.5211 32.6181C48.4948 32.6599 48.4598 32.6956 48.4185 32.7227C48.3772 32.7498 48.3305 32.7676 48.2816 32.775L41.7557 33.4058C41.5828 33.4272 41.41 33.2161 41.4881 33.062L43.6192 27.6928C43.6571 27.6061 43.673 27.5114 43.6655 27.4171C43.658 27.3228 43.6273 27.2318 43.5762 27.1522C43.5251 27.0727 43.4552 27.007 43.3726 26.961C43.2901 26.915 43.1975 26.8902 43.103 26.8888C42.848 26.8887 42.5988 26.9653 42.3877 27.1086C42.1767 27.252 42.0134 27.4555 41.9191 27.6928L39.3925 34.0011C39.3367 34.1342 39.317 34.2797 39.3352 34.4228C39.3535 34.566 39.4092 34.7018 39.4966 34.8165C39.584 34.9313 39.7001 35.0209 39.8332 35.0763C39.9662 35.1318 40.1115 35.1511 40.2544 35.1323L48.9447 34.326C49.0276 34.3181 49.1108 34.3387 49.1805 34.3843C49.2502 34.43 49.3023 34.4981 49.3283 34.5774L49.3472 34.6723C49.4469 34.9009 49.6097 35.0963 49.8165 35.2354C50.0233 35.3744 50.2655 35.4514 50.5146 35.4572C50.6091 35.4583 50.7024 35.4364 50.7865 35.3935C50.8707 35.3505 50.9433 35.2878 50.998 35.2106C51.0526 35.1335 51.0879 35.0442 51.1006 34.9504C51.1133 34.8567 51.1032 34.7612 51.071 34.6723L49.6692 30.6453Z" fill="white"/>
<path d="M70.1848 25.1054H60.3841C60.1634 25.1035 59.951 25.1894 59.7934 25.3441C59.6359 25.4988 59.546 25.7098 59.5435 25.9307C59.5453 26.1535 59.6345 26.3665 59.7917 26.524C59.949 26.6815 60.1617 26.7708 60.3841 26.7726H64.2509C64.3476 26.7726 64.4403 26.8111 64.5087 26.8796C64.5771 26.9481 64.6155 27.041 64.6155 27.1379V33.4059C64.6155 33.5028 64.5771 33.5957 64.5087 33.6642C64.4403 33.7327 64.3476 33.7711 64.2509 33.7711H63.621C63.5108 33.7727 63.402 33.796 63.3009 33.8398C63.1998 33.8836 63.1083 33.947 63.0317 34.0264C62.9551 34.1057 62.8949 34.1994 62.8547 34.3022C62.8144 34.4049 62.7948 34.5146 62.797 34.6249C62.7963 34.7333 62.8172 34.8408 62.8585 34.9411C62.8997 35.0414 62.9604 35.1325 63.0371 35.209C63.1137 35.2856 63.2048 35.3462 63.3051 35.3872C63.4053 35.4282 63.5127 35.4488 63.621 35.4478H64.8831C65.0643 35.4488 65.244 35.4137 65.4116 35.3447C65.5792 35.2757 65.7315 35.174 65.8597 35.0457C65.9878 34.9173 66.0893 34.7648 66.1582 34.5969C66.2272 34.429 66.2622 34.2491 66.2612 34.0676V27.1379C66.2655 27.0391 66.3079 26.9458 66.3794 26.8777C66.451 26.8096 66.5461 26.7719 66.6448 26.7726H70.1848C70.2956 26.7736 70.4055 26.7525 70.508 26.7105C70.6105 26.6686 70.7037 26.6066 70.7822 26.5283C70.8606 26.45 70.9227 26.3568 70.9649 26.2542C71.0071 26.1516 71.0285 26.0417 71.0278 25.9307C71.0282 25.8207 71.0065 25.7116 70.964 25.6101C70.9215 25.5085 70.8591 25.4166 70.7805 25.3396C70.7019 25.2627 70.6087 25.2023 70.5064 25.1621C70.4041 25.1218 70.2947 25.1026 70.1848 25.1054Z" fill="white"/>
<path d="M70.7604 20.5614H65.7877C65.724 20.5609 65.6628 20.5362 65.6166 20.4921C65.5704 20.4481 65.5427 20.3881 65.5391 20.3243V20.2294C65.5397 20.1209 65.5189 20.0133 65.4777 19.9129C65.4365 19.8124 65.3758 19.7212 65.2992 19.6445C65.2225 19.5677 65.1314 19.5069 65.0312 19.4657C64.9309 19.4244 64.8235 19.4035 64.7151 19.4041C64.4975 19.4066 64.2896 19.4944 64.136 19.6487C63.9823 19.803 63.8953 20.0115 63.8934 20.2294V20.3243C63.8893 20.3879 63.8614 20.4475 63.8153 20.4915C63.7693 20.5354 63.7084 20.5604 63.6448 20.5614H58.2602C58.0766 20.5611 57.8948 20.5971 57.7252 20.6673C57.5555 20.7375 57.4014 20.8406 57.2716 20.9706C57.1418 21.1006 57.0389 21.2549 56.9688 21.4248C56.8987 21.5947 56.8628 21.7768 56.8631 21.9607V25.9496L56.0959 34.7671C56.086 34.8714 56.0979 34.9765 56.1309 35.0759C56.1638 35.1753 56.2171 35.2667 56.2873 35.3444C56.3574 35.422 56.443 35.4842 56.5384 35.5269C56.6339 35.5696 56.7372 35.5919 56.8418 35.5924C57.0679 35.5932 57.286 35.5088 57.4527 35.3558C57.6194 35.2029 57.7226 34.9927 57.7416 34.7671L58.5064 26.0445V22.5939C58.5057 22.495 58.5433 22.3997 58.6113 22.3281C58.6794 22.2564 58.7725 22.214 58.8711 22.2097H70.758C70.9778 22.2097 71.1886 22.1222 71.344 21.9666C71.4994 21.8109 71.5868 21.5998 71.5868 21.3796C71.5868 21.1595 71.4994 20.9484 71.344 20.7927C71.1886 20.637 70.9778 20.5496 70.758 20.5496L70.7604 20.5614Z" fill="white"/>
<path d="M79.4293 25.9117H82.034C82.2162 25.9129 82.3969 25.8782 82.5657 25.8095C82.7346 25.7408 82.8882 25.6395 83.018 25.5114C83.1477 25.3832 83.2509 25.2307 83.3218 25.0625C83.3927 24.8944 83.4298 24.7139 83.4311 24.5314V21.0784C83.4292 20.7079 83.2814 20.3531 83.0198 20.0911C82.7582 19.8291 82.4039 19.6811 82.034 19.6792H79.4293C79.0595 19.6817 78.7056 19.8299 78.4442 20.0918C78.1827 20.3536 78.0347 20.7081 78.0322 21.0784V24.5314C78.0354 24.8998 78.1842 25.2519 78.446 25.5107C78.7079 25.7694 79.0615 25.9136 79.4293 25.9117ZM79.4103 20.8294H82.0316C82.0952 20.8305 82.1561 20.8554 82.2022 20.8994C82.2482 20.9433 82.2761 21.003 82.2803 21.0666C82.2803 21.0987 82.2738 21.1306 82.2612 21.1601C82.2485 21.1897 82.23 21.2164 82.2068 21.2386C82.1835 21.2608 82.156 21.278 82.1259 21.2892C82.0958 21.3004 82.0637 21.3053 82.0316 21.3037H79.4103C79.3781 21.3057 79.3458 21.301 79.3154 21.2899C79.285 21.2789 79.2572 21.2617 79.2336 21.2395C79.2101 21.2173 79.1914 21.1905 79.1786 21.1607C79.1659 21.131 79.1593 21.0989 79.1593 21.0666C79.1641 21.0028 79.1924 20.9431 79.2389 20.8992C79.2853 20.8553 79.3465 20.8304 79.4103 20.8294ZM79.4103 22.5559H82.015C82.0477 22.5559 82.08 22.5624 82.1102 22.5749C82.1404 22.5874 82.1678 22.6057 82.1909 22.6288C82.2139 22.652 82.2323 22.6794 82.2448 22.7096C82.2573 22.7398 82.2637 22.7722 82.2637 22.8049C82.2637 22.8376 82.2573 22.87 82.2448 22.9002C82.2323 22.9304 82.2139 22.9579 82.1909 22.981C82.1678 23.0041 82.1404 23.0225 82.1102 23.035C82.08 23.0475 82.0477 23.0539 82.015 23.0539H79.4103C79.3777 23.0539 79.3454 23.0475 79.3152 23.035C79.285 23.0225 79.2576 23.0041 79.2345 22.981C79.2114 22.9579 79.1931 22.9304 79.1806 22.9002C79.1681 22.87 79.1617 22.8376 79.1617 22.8049C79.1617 22.7722 79.1681 22.7398 79.1806 22.7096C79.1931 22.6794 79.2114 22.652 79.2345 22.6288C79.2576 22.6057 79.285 22.5874 79.3152 22.5749C79.3454 22.5624 79.3777 22.5559 79.4103 22.5559ZM79.4103 24.28H82.0316C82.0976 24.2813 82.1605 24.3082 82.2069 24.3552C82.2533 24.4021 82.2796 24.4654 82.2803 24.5314C82.2803 24.5636 82.2738 24.5954 82.2612 24.625C82.2485 24.6546 82.23 24.6813 82.2068 24.7035C82.1835 24.7256 82.156 24.7429 82.1259 24.7541C82.0958 24.7652 82.0637 24.7702 82.0316 24.7686H79.4103C79.3781 24.7705 79.3458 24.7658 79.3154 24.7548C79.285 24.7437 79.2572 24.7266 79.2336 24.7044C79.2101 24.6821 79.1914 24.6553 79.1786 24.6256C79.1659 24.5959 79.1593 24.5638 79.1593 24.5314C79.1606 24.4651 79.1874 24.4019 79.2342 24.355C79.281 24.3081 79.3442 24.2813 79.4103 24.28Z" fill="white"/>
<path d="M85.8983 21.2326H86.2819C86.3063 21.2331 86.3301 21.24 86.3509 21.2527C86.3717 21.2654 86.3888 21.2834 86.4004 21.3049C86.4119 21.3264 86.4176 21.3505 86.4167 21.3749C86.4159 21.3993 86.4086 21.4231 86.3955 21.4437L85.8983 22.039C85.6575 22.332 85.534 22.7043 85.552 23.0834C85.5699 23.4625 85.728 23.8214 85.9954 24.0904L86.3577 24.4532C86.4308 24.5207 86.4768 24.6126 86.4873 24.7117C86.4978 24.8107 86.4719 24.9102 86.4145 24.9916L85.8604 25.7196C85.7866 25.811 85.742 25.9224 85.7322 26.0395C85.7225 26.1566 85.7482 26.2739 85.8059 26.3762C85.8636 26.4785 85.9507 26.561 86.0558 26.6131C86.161 26.6652 86.2793 26.6844 86.3955 26.6683L87.525 26.5521C87.5708 26.5478 87.6169 26.5531 87.6606 26.5675C87.7042 26.5819 87.7444 26.6053 87.7787 26.636C87.8129 26.6667 87.8404 26.7042 87.8595 26.746C87.8786 26.7879 87.8889 26.8333 87.8897 26.8793V29.7726C87.8897 29.9456 87.9583 30.1115 88.0804 30.2338C88.2025 30.3561 88.3681 30.4248 88.5409 30.4248C88.7136 30.4248 88.8792 30.3561 89.0013 30.2338C89.1234 30.1115 89.192 29.9456 89.192 29.7726V26.7536C89.1936 26.6489 89.2332 26.5484 89.3033 26.4707C89.3735 26.393 89.4694 26.3436 89.5733 26.3315L90.2434 26.2556C90.2805 26.2553 90.3169 26.2663 90.3477 26.287C90.3785 26.3077 90.4024 26.3373 90.4162 26.3718C90.4558 26.5027 90.5373 26.6168 90.6482 26.6966C90.759 26.7763 90.8931 26.8172 91.0295 26.8129H91.2663C91.3469 26.8136 91.4265 26.7946 91.4982 26.7578C91.57 26.721 91.6317 26.6673 91.6783 26.6013C91.7248 26.5354 91.7547 26.4592 91.7654 26.3791C91.7762 26.2991 91.7674 26.2177 91.7399 26.1418L91.2213 24.6074C91.1544 24.4097 91.0267 24.2383 90.8565 24.1178C90.6864 23.9972 90.4825 23.9337 90.2742 23.9362C90.193 23.9339 90.1124 23.9516 90.0398 23.988C89.9671 24.0244 89.9045 24.0782 89.8577 24.1446C89.8108 24.211 89.781 24.2881 89.7711 24.3688C89.7611 24.4495 89.7712 24.5315 89.8006 24.6074L89.8385 24.7212C89.8499 24.7467 89.8547 24.7746 89.8527 24.8025C89.8506 24.8303 89.8416 24.8572 89.8266 24.8808C89.8116 24.9043 89.7909 24.9237 89.7666 24.9372C89.7422 24.9508 89.7148 24.958 89.6869 24.9584L88.4603 25.0746C88.4283 25.077 88.3963 25.0698 88.3684 25.054C88.3405 25.0381 88.318 25.0142 88.3038 24.9854C88.2895 24.9566 88.2842 24.9242 88.2885 24.8923C88.2927 24.8604 88.3064 24.8306 88.3277 24.8066L90.0303 22.5821C90.0809 22.5203 90.113 22.4455 90.1229 22.3662C90.1327 22.287 90.1199 22.2065 90.0859 22.1343C90.052 22.062 89.9982 22.0009 89.9309 21.958C89.8637 21.9151 89.7856 21.8922 89.7059 21.8919C89.4317 21.888 89.1604 21.9483 88.9137 22.0681C88.667 22.188 88.4517 22.364 88.2851 22.5821L87.6908 23.3481C87.6617 23.3848 87.6255 23.4152 87.5842 23.4373C87.5429 23.4594 87.4975 23.4728 87.4509 23.4765C87.4043 23.4803 87.3573 23.4745 87.3131 23.4593C87.2688 23.4441 87.2281 23.42 87.1935 23.3884L87.0775 23.2722C87.0063 23.2023 86.9646 23.1078 86.961 23.008C86.9575 22.9082 86.9924 22.8109 87.0586 22.7362L88.0554 21.5267C88.1321 21.4394 88.226 21.3689 88.3311 21.3195C88.4362 21.2702 88.5503 21.243 88.6663 21.2397H90.9845C91.1673 21.2397 91.3425 21.167 91.4718 21.0376C91.601 20.9082 91.6736 20.7327 91.6736 20.5496C91.6736 20.3666 91.601 20.1911 91.4718 20.0616C91.3425 19.9322 91.1673 19.8595 90.9845 19.8595H85.8983C85.7155 19.8595 85.5403 19.9322 85.411 20.0616C85.2818 20.1911 85.2092 20.3666 85.2092 20.5496C85.2092 20.7327 85.2818 20.9082 85.411 21.0376C85.5403 21.167 85.7155 21.2397 85.8983 21.2397V21.2326Z" fill="white"/>
<path d="M84.6932 32.3908C84.8598 32.6466 85.0867 32.8574 85.3539 33.0046C85.6211 33.1519 85.9203 33.231 86.2252 33.2351C86.3205 33.2336 86.4137 33.2066 86.4951 33.1568C86.5764 33.1071 86.6429 33.0363 86.6876 32.952C86.7324 32.8677 86.7537 32.7729 86.7494 32.6776C86.7452 32.5822 86.7154 32.4897 86.6633 32.4098L86.4525 32.0659C86.2858 31.8122 86.0587 31.6039 85.7917 31.4599C85.5247 31.3158 85.2261 31.2405 84.9229 31.2406C84.8273 31.2416 84.7339 31.2683 84.6522 31.318C84.5705 31.3676 84.5037 31.4383 84.4587 31.5226C84.4136 31.607 84.3921 31.702 84.3963 31.7975C84.4004 31.8931 84.4302 31.9858 84.4824 32.0659L84.6932 32.3908Z" fill="white"/>
<path d="M85.6307 28.7291L85.4578 29.3244C85.4329 29.3991 85.4261 29.4787 85.4382 29.5565C85.4502 29.6344 85.4807 29.7082 85.5271 29.7718C85.5734 29.8354 85.6344 29.887 85.7047 29.9222C85.775 29.9574 85.8528 29.9752 85.9314 29.9742C86.1259 29.9737 86.315 29.9102 86.4704 29.793C86.6258 29.6759 86.7391 29.5115 86.7933 29.3244L86.9851 28.7291C87.0068 28.6515 87.0105 28.5699 86.9958 28.4905C86.9812 28.4112 86.9486 28.3363 86.9007 28.2716C86.8527 28.2068 86.7905 28.1539 86.719 28.1169C86.6474 28.0798 86.5684 28.0597 86.4879 28.058C86.2913 28.0604 86.101 28.1274 85.9462 28.2486C85.7913 28.3699 85.6805 28.5387 85.6307 28.7291Z" fill="white"/>
<path d="M90.7598 28.058C90.6819 28.0598 90.6056 28.0797 90.5366 28.1159C90.4676 28.1521 90.4079 28.2038 90.3621 28.2668C90.3163 28.3299 90.2856 28.4027 90.2724 28.4796C90.2593 28.5565 90.264 28.6354 90.2862 28.7102L90.497 29.3244C90.5558 29.5124 90.6729 29.6767 90.8313 29.7935C90.9897 29.9104 91.1811 29.9737 91.3779 29.9742C91.456 29.9737 91.5329 29.9549 91.6024 29.9192C91.6719 29.8835 91.7321 29.832 91.7782 29.7688C91.8242 29.7057 91.8548 29.6325 91.8676 29.5553C91.8803 29.4782 91.8748 29.3991 91.8515 29.3244L91.6407 28.7102C91.5826 28.5215 91.4657 28.3565 91.3072 28.2391C91.1487 28.1218 90.9569 28.0583 90.7598 28.058Z" fill="white"/>
<path d="M83.5827 29.1892C83.5237 28.9907 83.4026 28.8164 83.2371 28.6921C83.0717 28.5678 82.8707 28.5002 82.6639 28.4991C82.5808 28.5004 82.4991 28.5208 82.4251 28.5587C82.3511 28.5965 82.2867 28.6508 82.2369 28.7174C82.1871 28.784 82.1532 28.8612 82.1377 28.943C82.1222 29.0247 82.1256 29.109 82.1477 29.1892L82.2803 29.6493C82.3403 29.8457 82.4622 30.0173 82.6279 30.1383C82.7936 30.2594 82.994 30.3233 83.1991 30.3205C83.2804 30.321 83.3608 30.3024 83.4337 30.2661C83.5065 30.2298 83.5698 30.1769 83.6185 30.1115C83.6671 30.0462 83.6997 29.9703 83.7137 29.89C83.7276 29.8097 83.7225 29.7272 83.6987 29.6493L83.5827 29.1892Z" fill="white"/>
<path d="M89.0761 34.5584H82.5289C82.4307 34.5535 82.3381 34.5108 82.2706 34.4392C82.2031 34.3676 82.1658 34.2727 82.1666 34.1742V32.6208C82.1666 32.4007 82.0792 32.1895 81.9238 32.0339C81.7684 31.8782 81.5576 31.7908 81.3378 31.7908C81.118 31.7908 80.9072 31.8782 80.7518 32.0339C80.5963 32.1895 80.509 32.4007 80.509 32.6208V34.8264C80.5115 35.1971 80.6598 35.5519 80.9218 35.8139C81.1838 36.0758 81.5383 36.2237 81.9085 36.2256H89.0666C89.2875 36.2225 89.4981 36.1319 89.6526 35.9737C89.807 35.8155 89.8926 35.6025 89.8907 35.3813C89.8913 35.2737 89.8707 35.167 89.8301 35.0673C89.7894 34.9676 89.7296 34.877 89.6539 34.8005C89.5782 34.7241 89.4882 34.6634 89.3891 34.6218C89.2899 34.5802 89.1836 34.5587 89.0761 34.5584Z" fill="white"/>
<path d="M91.6784 33.024C91.4978 32.7643 91.2574 32.552 90.9775 32.4051C90.6977 32.2581 90.3866 32.1808 90.0706 32.1797C89.974 32.1827 89.88 32.2117 89.7985 32.2638C89.7171 32.316 89.6512 32.3892 89.608 32.4758C89.5648 32.5624 89.5458 32.6591 89.553 32.7556C89.5602 32.8521 89.5934 32.9449 89.6491 33.024L90.1677 33.7521C90.3447 34.0051 90.5796 34.2119 90.8527 34.3555C91.1258 34.4991 91.4292 34.5752 91.7376 34.5774C91.8344 34.5797 91.93 34.555 92.0136 34.5061C92.0973 34.4572 92.1657 34.3861 92.2114 34.3005C92.257 34.215 92.2781 34.1184 92.2722 34.0216C92.2663 33.9248 92.2337 33.8315 92.178 33.7521L91.6784 33.024Z" fill="white"/>
<path d="M78.6811 32.6019C78.4186 32.6046 78.1631 32.6866 77.948 32.8373C77.7329 32.988 77.5683 33.2002 77.4758 33.4462L76.9335 34.9592C76.8987 35.0529 76.8868 35.1535 76.8988 35.2527C76.9108 35.352 76.9463 35.4469 77.0024 35.5295C77.0585 35.6122 77.1336 35.6802 77.2213 35.7278C77.309 35.7755 77.4068 35.8014 77.5066 35.8035C77.7677 35.805 78.0232 35.7269 78.2389 35.5795C78.4546 35.432 78.6204 35.2223 78.7142 34.9782L79.2872 33.4462C79.3201 33.3498 79.3295 33.247 79.3146 33.1464C79.2997 33.0457 79.261 32.95 79.2017 32.8674C79.1423 32.7847 79.0641 32.7175 78.9735 32.6713C78.883 32.6251 78.7827 32.6013 78.6811 32.6019Z" fill="white"/>
<path d="M81.1697 29.8414V28.0579C81.1697 27.9611 81.2081 27.8682 81.2765 27.7997C81.3449 27.7312 81.4376 27.6927 81.5344 27.6927H83.7152C83.7969 27.6918 83.8776 27.6747 83.9527 27.6425C84.0277 27.6103 84.0957 27.5635 84.1527 27.5049C84.2097 27.4463 84.2545 27.377 84.2847 27.3009C84.3149 27.2249 84.3298 27.1437 84.3285 27.0619C84.3298 26.9809 84.3148 26.9004 84.2844 26.8253C84.2541 26.7502 84.2089 26.682 84.1517 26.6247C84.0945 26.5674 84.0264 26.5222 83.9514 26.4918C83.8764 26.4614 83.7961 26.4464 83.7152 26.4477H77.8593C77.81 26.4471 77.7613 26.4366 77.7161 26.4168C77.6709 26.3971 77.6301 26.3684 77.5961 26.3326C77.5621 26.2968 77.5356 26.2545 77.5182 26.2083C77.5008 26.1621 77.4928 26.1128 77.4947 26.0635V21.4816C77.4934 21.3998 77.4761 21.3191 77.4436 21.244C77.4111 21.1689 77.3642 21.101 77.3054 21.0442C77.2467 20.9873 77.1773 20.9426 77.1013 20.9127C77.0253 20.8828 76.9441 20.8682 76.8624 20.8697C76.7819 20.8688 76.7021 20.884 76.6275 20.9144C76.553 20.9448 76.4852 20.9898 76.4283 21.0468C76.3714 21.1038 76.3264 21.1717 76.2961 21.2463C76.2657 21.321 76.2506 21.401 76.2515 21.4816V26.2935C76.2503 26.476 76.2849 26.657 76.3535 26.8261C76.4221 26.9951 76.5233 27.1491 76.6512 27.279C76.7792 27.4089 76.9315 27.5123 77.0993 27.5833C77.2672 27.6543 77.4474 27.6915 77.6296 27.6927H79.3701C79.4688 27.692 79.5639 27.7297 79.6355 27.7978C79.707 27.8659 79.7494 27.9592 79.7537 28.0579V29.8414C79.7514 29.9354 79.7682 30.029 79.8031 30.1163C79.838 30.2036 79.8903 30.283 79.9567 30.3495C80.0231 30.416 80.1023 30.4684 80.1895 30.5033C80.2768 30.5383 80.3701 30.5551 80.4641 30.5528C80.6516 30.5516 80.8311 30.4761 80.9633 30.3428C81.0955 30.2095 81.1697 30.0292 81.1697 29.8414Z" fill="white"/>
<path d="M78.4702 29.6445L78.6241 29.1844C78.6478 29.1056 78.653 29.0224 78.6394 28.9413C78.6257 28.8601 78.5936 28.7832 78.5456 28.7164C78.4975 28.6497 78.4347 28.595 78.3621 28.5564C78.2895 28.5179 78.209 28.4967 78.1268 28.4943C77.92 28.4954 77.719 28.5631 77.5536 28.6874C77.3882 28.8116 77.267 28.9859 77.2081 29.1844L77.0542 29.6445C77.0324 29.7224 77.0288 29.8042 77.0436 29.8837C77.0584 29.9632 77.0911 30.0382 77.1394 30.103C77.1876 30.1678 77.2501 30.2207 77.3219 30.2575C77.3938 30.2944 77.4731 30.3143 77.5538 30.3157C77.7584 30.318 77.9583 30.2538 78.1235 30.1328C78.2887 30.0118 78.4103 29.8405 78.4702 29.6445Z" fill="white"/>
<path d="M98.0908 28.537V32.3528C98.0927 32.7234 98.2405 33.0782 98.5021 33.3402C98.7637 33.6022 99.1179 33.7502 99.4879 33.7521H107.794C107.978 33.7527 108.16 33.7169 108.33 33.6468C108.5 33.5767 108.654 33.4737 108.784 33.3436C108.914 33.2136 109.016 33.0591 109.086 32.889C109.156 32.719 109.192 32.5368 109.192 32.3528V28.537C109.192 28.3531 109.156 28.1708 109.086 28.0008C109.016 27.8307 108.914 27.6762 108.784 27.5462C108.654 27.4161 108.5 27.3131 108.33 27.243C108.16 27.1729 107.978 27.1371 107.794 27.1378H99.4879C99.1179 27.1396 98.7637 27.2877 98.5021 27.5497C98.2405 27.8117 98.0927 28.1665 98.0908 28.537ZM99.6205 28.3449H107.66C107.738 28.3429 107.814 28.3719 107.872 28.4255C107.929 28.4792 107.964 28.5532 107.967 28.6319C107.968 28.6725 107.96 28.7129 107.945 28.7506C107.93 28.7883 107.907 28.8225 107.879 28.8513C107.85 28.88 107.816 28.9027 107.778 28.918C107.74 28.9333 107.7 28.9408 107.66 28.9402H99.6205C99.5801 28.9405 99.54 28.9327 99.5027 28.9173C99.4653 28.9019 99.4314 28.8792 99.4029 28.8504C99.3745 28.8217 99.352 28.7876 99.3369 28.75C99.3218 28.7125 99.3144 28.6723 99.315 28.6319C99.3187 28.5536 99.3527 28.4799 99.4097 28.4264C99.4667 28.3728 99.5423 28.3436 99.6205 28.3449ZM99.6394 30.1283H107.643C107.728 30.1313 107.81 30.1668 107.87 30.2276C107.93 30.2884 107.965 30.3699 107.967 30.4556C107.964 30.5388 107.928 30.6174 107.867 30.6745C107.807 30.7316 107.726 30.7628 107.643 30.7615H99.6394C99.5562 30.7628 99.4758 30.7316 99.4152 30.6745C99.3547 30.6174 99.3187 30.5388 99.315 30.4556C99.315 30.3683 99.3488 30.2844 99.4093 30.2216C99.4698 30.1587 99.5523 30.1219 99.6394 30.1188V30.1283ZM99.6205 31.9686H107.671C107.747 31.971 107.818 32.002 107.871 32.0553C107.925 32.1086 107.956 32.1803 107.958 32.2556C107.96 32.3343 107.931 32.4106 107.877 32.4683C107.824 32.5259 107.75 32.5602 107.671 32.5639H99.6205C99.5801 32.5642 99.54 32.5565 99.5027 32.5411C99.4653 32.5256 99.4314 32.5029 99.4029 32.4742C99.3745 32.4455 99.352 32.4113 99.3369 32.3738C99.3218 32.3363 99.3144 32.2961 99.315 32.2556C99.3187 32.1774 99.3527 32.1037 99.4097 32.0501C99.4667 31.9965 99.5423 31.9673 99.6205 31.9686Z" fill="white"/>
<path d="M106.989 26.4098C107.358 26.4123 107.712 26.2684 107.974 26.0096C108.237 25.7508 108.386 25.3983 108.389 25.0295V24.6074C108.386 24.2366 108.238 23.8818 107.976 23.6199C107.714 23.3579 107.36 23.21 106.989 23.2081H100.291C99.9227 23.2113 99.5711 23.3603 99.3128 23.6226C99.0545 23.8848 98.9105 24.239 98.9124 24.6074V25.0295C98.9117 25.2109 98.947 25.3907 99.016 25.5584C99.085 25.7262 99.1865 25.8786 99.3146 26.0069C99.4427 26.1352 99.5949 26.2368 99.7624 26.306C99.9299 26.3751 100.109 26.4104 100.291 26.4098H106.989ZM100.08 24.9014V24.7686C100.078 24.7193 100.086 24.67 100.103 24.6238C100.121 24.5775 100.147 24.5353 100.181 24.4995C100.215 24.4637 100.256 24.435 100.301 24.4153C100.346 24.3955 100.395 24.385 100.444 24.3844H106.838C106.939 24.3851 107.037 24.4257 107.108 24.4976C107.18 24.5696 107.221 24.6669 107.221 24.7686V24.9014C107.221 24.9508 107.21 24.9996 107.191 25.0449C107.171 25.0902 107.142 25.1311 107.107 25.1651C107.071 25.1992 107.029 25.2257 106.982 25.2431C106.936 25.2606 106.887 25.2686 106.838 25.2667H100.444C100.396 25.2683 100.348 25.26 100.303 25.2422C100.258 25.2245 100.217 25.1976 100.183 25.1634C100.149 25.1291 100.122 25.0882 100.104 25.0431C100.086 24.9981 100.078 24.9498 100.08 24.9014Z" fill="white"/>
<path d="M108.273 34.9023H107.527C107.454 34.9027 107.382 34.9235 107.32 34.9626C107.258 35.0017 107.209 35.0574 107.177 35.1234C107.145 35.1894 107.132 35.263 107.14 35.3359C107.148 35.4088 107.176 35.4779 107.222 35.5356C107.377 35.7262 107.572 35.8799 107.793 35.9858C108.015 36.0916 108.257 36.1468 108.503 36.1474H109.27C109.341 36.1477 109.41 36.128 109.471 36.0907C109.531 36.0534 109.58 36 109.612 35.9364C109.644 35.8728 109.657 35.8015 109.651 35.7307C109.644 35.6599 109.618 35.5923 109.575 35.5356C109.419 35.3395 109.221 35.1809 108.996 35.0714C108.77 34.9618 108.523 34.9041 108.273 34.9023Z" fill="white"/>
<path d="M110.359 21.1188H108.938C108.893 21.1199 108.849 21.1082 108.81 21.085C108.772 21.0618 108.741 21.0281 108.72 20.9878C108.7 20.9475 108.692 20.9022 108.697 20.8574C108.701 20.8125 108.719 20.77 108.746 20.7346L108.938 20.4666C108.984 20.4089 109.012 20.3391 109.019 20.2657C109.025 20.1923 109.011 20.1185 108.976 20.0534C108.942 19.9883 108.889 19.9346 108.825 19.8989C108.761 19.8632 108.687 19.847 108.614 19.8524C108.33 19.8434 108.05 19.9074 107.798 20.0381C107.546 20.1689 107.332 20.3622 107.177 20.5994L106.985 20.8508C106.916 20.9368 106.829 21.0057 106.73 21.0522C106.63 21.0987 106.521 21.1215 106.412 21.1188H104.733C104.628 21.1083 104.529 21.0629 104.453 20.9898C104.376 20.9168 104.327 20.8203 104.311 20.7156V20.1014C104.311 19.9234 104.241 19.7527 104.115 19.6268C103.989 19.5009 103.819 19.4302 103.641 19.4302C103.463 19.4302 103.293 19.5009 103.167 19.6268C103.042 19.7527 102.971 19.9234 102.971 20.1014V20.7156C102.96 20.8218 102.911 20.9205 102.834 20.9943C102.757 21.068 102.656 21.1121 102.55 21.1188H100.866C100.756 21.1206 100.647 21.0974 100.548 21.051C100.448 21.0046 100.36 20.9361 100.291 20.8508L100.118 20.5994C99.9712 20.3627 99.7648 20.169 99.5195 20.0378C99.2742 19.9067 98.9986 19.8427 98.7207 19.8524C98.648 19.8491 98.576 19.8665 98.5128 19.9026C98.4497 19.9388 98.3981 19.9922 98.3641 20.0565C98.3301 20.1209 98.3151 20.1936 98.3208 20.2662C98.3265 20.3388 98.3527 20.4083 98.3963 20.4666L98.5881 20.7725C98.6062 20.8073 98.6155 20.8461 98.615 20.8853C98.6145 20.9246 98.6043 20.9631 98.5853 20.9974C98.5662 21.0317 98.539 21.0608 98.506 21.0819C98.4731 21.1031 98.4354 21.1158 98.3963 21.1188H96.9211C96.744 21.1146 96.568 21.1464 96.4036 21.2124C96.2392 21.2784 96.0899 21.3771 95.9648 21.5027C95.8397 21.6282 95.7413 21.7779 95.6757 21.9426C95.6101 22.1074 95.5787 22.2838 95.5832 22.4611V23.4785C95.5832 23.6672 95.658 23.8482 95.7913 23.9816C95.9245 24.115 96.1052 24.19 96.2936 24.19C96.482 24.19 96.6627 24.115 96.7959 23.9816C96.9291 23.8482 97.0039 23.6672 97.0039 23.4785V22.9236C97.0142 22.8205 97.0597 22.7242 97.1325 22.6508C97.2054 22.5774 97.3013 22.5313 97.4041 22.5204H109.885C109.989 22.5308 110.085 22.5766 110.158 22.6501C110.232 22.7236 110.278 22.8202 110.288 22.9236V23.4785C110.288 23.6672 110.363 23.8482 110.496 23.9816C110.629 24.115 110.81 24.19 110.998 24.19C111.187 24.19 111.367 24.115 111.501 23.9816C111.634 23.8482 111.709 23.6672 111.709 23.4785V22.4635C111.714 22.2849 111.682 22.1073 111.616 21.9414C111.55 21.7756 111.45 21.625 111.324 21.4991C111.198 21.3731 111.047 21.2744 110.881 21.209C110.715 21.1436 110.537 21.1129 110.359 21.1188Z" fill="white"/>
<path d="M100.118 34.9023H99.353C99.0943 34.9037 98.8389 34.961 98.6043 35.0702C98.3697 35.1795 98.1615 35.3382 97.9938 35.5355C97.9471 35.5896 97.917 35.6561 97.9073 35.7269C97.8975 35.7977 97.9085 35.8699 97.9388 35.9346C97.9691 35.9993 98.0175 36.0539 98.0781 36.0916C98.1387 36.1294 98.2089 36.1488 98.2803 36.1474H99.0475C99.304 36.1453 99.5573 36.0898 99.7913 35.9845C100.025 35.8791 100.235 35.7263 100.407 35.5355C100.452 35.4793 100.481 35.4115 100.49 35.3398C100.499 35.268 100.488 35.1952 100.458 35.1294C100.428 35.0636 100.38 35.0076 100.32 34.9674C100.26 34.9273 100.19 34.9048 100.118 34.9023Z" fill="white"/>
<path d="M116.158 21.2137H118.999C119.19 21.2137 119.372 21.1379 119.507 21.0032C119.641 20.8684 119.717 20.6857 119.717 20.4951C119.717 20.3045 119.641 20.1217 119.507 19.987C119.372 19.8522 119.19 19.7765 118.999 19.7765H116.158C115.968 19.7765 115.785 19.8522 115.651 19.987C115.516 20.1217 115.44 20.3045 115.44 20.4951C115.44 20.6857 115.516 20.8684 115.651 21.0032C115.785 21.1379 115.968 21.2137 116.158 21.2137Z" fill="white"/>
<path d="M118.846 29.9742H116.31C116.128 29.9736 115.949 30.0089 115.781 30.0782C115.613 30.1475 115.461 30.2494 115.333 30.3779C115.205 30.5065 115.103 30.6592 115.034 30.8272C114.965 30.9952 114.93 31.1752 114.931 31.3568V34.4399C114.93 34.8083 115.074 35.1624 115.332 35.4247C115.59 35.6869 115.942 35.836 116.31 35.8391H118.846C119.216 35.8372 119.57 35.6892 119.831 35.4272C120.093 35.1652 120.241 34.8104 120.243 34.4399V31.3568C120.242 31.1741 120.205 30.9934 120.134 30.825C120.063 30.6566 119.96 30.5038 119.83 30.3754C119.701 30.247 119.547 30.1454 119.378 30.0766C119.209 30.0078 119.028 29.973 118.846 29.9742ZM118.827 34.0581C118.829 34.1073 118.821 34.1565 118.804 34.2027C118.787 34.2489 118.761 34.2912 118.727 34.3271C118.693 34.3629 118.652 34.3916 118.607 34.4114C118.562 34.4312 118.514 34.4417 118.464 34.4422H116.703C116.653 34.4417 116.605 34.4312 116.559 34.4114C116.514 34.3917 116.473 34.363 116.439 34.3272C116.405 34.2914 116.379 34.2491 116.361 34.2029C116.344 34.1567 116.336 34.1074 116.338 34.0581V31.7387C116.336 31.6904 116.345 31.6422 116.362 31.5973C116.38 31.5524 116.407 31.5116 116.441 31.4775C116.475 31.4434 116.516 31.4168 116.561 31.3993C116.606 31.3818 116.654 31.3738 116.703 31.3758H118.464C118.512 31.3742 118.56 31.3824 118.605 31.4001C118.65 31.4177 118.69 31.4444 118.724 31.4784C118.758 31.5124 118.785 31.5531 118.802 31.5979C118.82 31.6426 118.828 31.6906 118.827 31.7387V34.0581Z" fill="white"/>
<path d="M115.928 28.8429H119.22C119.404 28.8374 119.58 28.76 119.708 28.6272C119.837 28.4943 119.909 28.3165 119.909 28.1315C119.909 28.0408 119.891 27.9509 119.857 27.867C119.822 27.7831 119.772 27.7069 119.708 27.6428C119.643 27.5786 119.567 27.5278 119.484 27.4932C119.4 27.4587 119.31 27.441 119.22 27.4413H115.928C115.838 27.441 115.748 27.4587 115.664 27.4932C115.58 27.5277 115.504 27.5785 115.439 27.6426C115.375 27.7068 115.324 27.7829 115.289 27.8668C115.255 27.9507 115.237 28.0406 115.237 28.1315C115.237 28.3169 115.309 28.4951 115.438 28.628C115.567 28.7609 115.743 28.838 115.928 28.8429Z" fill="white"/>
<path d="M115.947 26.3244H119.182C119.372 26.3244 119.555 26.2487 119.689 26.1139C119.824 25.9791 119.899 25.7964 119.899 25.6058C119.899 25.4152 119.824 25.2324 119.689 25.0977C119.555 24.9629 119.372 24.8872 119.182 24.8872H115.947C115.757 24.8872 115.574 24.9629 115.44 25.0977C115.305 25.2324 115.23 25.4152 115.23 25.6058C115.23 25.7964 115.305 25.9791 115.44 26.1139C115.574 26.2487 115.757 26.3244 115.947 26.3244Z" fill="white"/>
<path d="M119.965 22.3069H115.199C115.004 22.3069 114.816 22.3846 114.678 22.5229C114.54 22.6612 114.462 22.8488 114.462 23.0444C114.462 23.2401 114.54 23.4277 114.678 23.566C114.816 23.7043 115.004 23.782 115.199 23.782H119.965C120.161 23.782 120.348 23.7043 120.486 23.566C120.624 23.4277 120.702 23.2401 120.702 23.0444C120.702 22.8488 120.624 22.6612 120.486 22.5229C120.348 22.3846 120.161 22.3069 119.965 22.3069Z" fill="white"/>
<path d="M130.15 28.9592H127.164C127.067 28.9592 126.975 28.9207 126.906 28.8522C126.838 28.7838 126.799 28.6909 126.799 28.594V27.847C126.803 27.7512 126.842 27.6604 126.91 27.5926C126.978 27.5249 127.068 27.4853 127.164 27.4817H128.848C129.218 27.4805 129.572 27.3327 129.834 27.0705C130.096 26.8084 130.243 26.4532 130.245 26.0825V21.1568C130.243 20.9743 130.206 20.7938 130.135 20.6257C130.065 20.4575 129.961 20.305 129.832 20.1768C129.702 20.0487 129.548 19.9474 129.379 19.8787C129.211 19.81 129.03 19.7753 128.848 19.7765H123.297C123.116 19.7756 122.936 19.8106 122.769 19.8797C122.601 19.9487 122.449 20.0503 122.321 20.1787C122.192 20.307 122.091 20.4596 122.022 20.6275C121.953 20.7953 121.918 20.9753 121.919 21.1568V26.0873C121.918 26.2698 121.952 26.4507 122.021 26.6198C122.09 26.7889 122.191 26.9428 122.319 27.0727C122.447 27.2027 122.599 27.3061 122.767 27.3771C122.935 27.4481 123.115 27.4852 123.297 27.4865H124.955C125.051 27.4865 125.144 27.525 125.213 27.5934C125.281 27.6619 125.319 27.7548 125.319 27.8517V28.5987C125.321 28.6471 125.313 28.6954 125.295 28.7404C125.277 28.7855 125.25 28.8264 125.216 28.8607C125.182 28.8949 125.141 28.9218 125.096 28.9395C125.051 28.9573 125.003 28.9656 124.955 28.964H122.014C121.823 28.9747 121.643 29.0582 121.512 29.1974C121.381 29.3365 121.308 29.5207 121.308 29.7122C121.308 29.9037 121.381 30.0879 121.512 30.227C121.643 30.3661 121.823 30.4497 122.014 30.4604H124.292C124.324 30.4586 124.355 30.4661 124.383 30.482C124.41 30.498 124.433 30.5216 124.447 30.5501C124.461 30.5786 124.467 30.6106 124.463 30.6423C124.46 30.674 124.447 30.7039 124.427 30.7284L121.687 33.9253C121.632 33.9914 121.597 34.0717 121.585 34.1571C121.574 34.2424 121.587 34.3292 121.623 34.4074C121.659 34.4856 121.716 34.552 121.788 34.5989C121.861 34.6458 121.944 34.6712 122.03 34.6723C122.334 34.6747 122.635 34.6088 122.91 34.4795C123.184 34.3502 123.427 34.1608 123.619 33.9253L125.094 32.1798C125.11 32.1571 125.133 32.14 125.16 32.1312C125.186 32.1223 125.214 32.1221 125.241 32.1306C125.267 32.139 125.29 32.1557 125.306 32.1783C125.323 32.2008 125.331 32.2279 125.331 32.2557V35.4573C125.335 35.6527 125.415 35.8389 125.555 35.9755C125.694 36.1122 125.882 36.1884 126.077 36.1877C126.173 36.1877 126.268 36.1688 126.356 36.1321C126.444 36.0954 126.524 36.0415 126.592 35.9737C126.66 35.9058 126.713 35.8253 126.749 35.7367C126.786 35.648 126.804 35.5531 126.804 35.4573V32.2177C126.799 32.1882 126.804 32.1578 126.818 32.1316C126.833 32.1054 126.856 32.085 126.884 32.0738C126.912 32.0627 126.943 32.0615 126.971 32.0704C127 32.0794 127.024 32.0979 127.041 32.1229L128.611 33.9442C128.811 34.1718 129.058 34.3544 129.333 34.4798C129.609 34.6053 129.909 34.6709 130.212 34.6723C130.296 34.6725 130.379 34.6487 130.45 34.6037C130.521 34.5587 130.578 34.4942 130.615 34.4179C130.651 34.3417 130.665 34.2566 130.655 34.1728C130.644 34.0889 130.611 34.0096 130.557 33.9442L127.761 30.7237C127.74 30.7007 127.727 30.6724 127.722 30.6421C127.718 30.6119 127.721 30.5808 127.734 30.5527C127.746 30.5246 127.766 30.5005 127.791 30.4833C127.816 30.4662 127.846 30.4566 127.877 30.4557H130.155C130.346 30.4449 130.525 30.3614 130.656 30.2222C130.788 30.0831 130.861 29.8989 130.861 29.7074C130.861 29.516 130.788 29.3318 130.656 29.1926C130.525 29.0535 130.346 28.97 130.155 28.9592H130.15ZM126.799 21.5813C126.803 21.4855 126.842 21.3947 126.91 21.3269C126.978 21.2592 127.068 21.2196 127.164 21.2161H128.426C128.523 21.2161 128.616 21.2545 128.684 21.323C128.752 21.3915 128.791 21.4844 128.791 21.5813V22.5299C128.792 22.5783 128.784 22.6265 128.766 22.6716C128.749 22.7167 128.722 22.7576 128.688 22.7918C128.653 22.8261 128.613 22.8529 128.568 22.8707C128.523 22.8885 128.474 22.8968 128.426 22.8951H127.164C127.067 22.8951 126.975 22.8566 126.906 22.7882C126.838 22.7197 126.799 22.6268 126.799 22.5299V21.5813ZM126.799 24.7236C126.799 24.625 126.836 24.53 126.904 24.4587C126.973 24.3874 127.066 24.3455 127.164 24.3418H128.426C128.475 24.3421 128.524 24.3523 128.569 24.3718C128.614 24.3913 128.655 24.4197 128.689 24.4553C128.723 24.4909 128.75 24.533 128.767 24.5791C128.785 24.6252 128.793 24.6743 128.791 24.7236V25.6722C128.793 25.7215 128.785 25.7706 128.767 25.8167C128.75 25.8628 128.723 25.9049 128.689 25.9406C128.655 25.9762 128.614 26.0046 128.569 26.0241C128.524 26.0436 128.475 26.0538 128.426 26.0541H127.164C127.066 26.0504 126.973 26.0084 126.904 25.9372C126.836 25.8659 126.799 25.7709 126.799 25.6722V24.7236ZM125.327 25.6722C125.328 25.7215 125.32 25.7706 125.303 25.8167C125.286 25.8628 125.259 25.9049 125.225 25.9406C125.191 25.9762 125.15 26.0046 125.105 26.0241C125.06 26.0436 125.011 26.0538 124.962 26.0541H123.719C123.62 26.0504 123.527 26.0084 123.459 25.9372C123.391 25.8659 123.353 25.7709 123.354 25.6722V24.7236C123.353 24.625 123.391 24.53 123.459 24.4587C123.527 24.3874 123.62 24.3455 123.719 24.3418H124.962C125.011 24.3421 125.06 24.3523 125.105 24.3718C125.15 24.3913 125.191 24.4197 125.225 24.4553C125.259 24.4909 125.286 24.533 125.303 24.5791C125.32 24.6252 125.328 24.6743 125.327 24.7236V25.6722ZM125.327 22.5275C125.328 22.5759 125.32 22.6242 125.302 22.6692C125.284 22.7143 125.258 22.7552 125.223 22.7895C125.189 22.8237 125.148 22.8506 125.103 22.8683C125.058 22.8861 125.01 22.8944 124.962 22.8928H123.719C123.67 22.894 123.622 22.8856 123.577 22.8679C123.532 22.8503 123.49 22.8238 123.456 22.79C123.421 22.7562 123.393 22.7158 123.374 22.6712C123.355 22.6265 123.345 22.5785 123.345 22.5299V21.5813C123.348 21.4855 123.388 21.3947 123.455 21.3269C123.523 21.2592 123.614 21.2196 123.709 21.2161H124.952C125.049 21.2161 125.142 21.2545 125.21 21.323C125.279 21.3915 125.317 21.4844 125.317 21.5813L125.327 22.5275Z" fill="white"/>
<path d="M147 51.5839V12.3724L143.19 8.34079H18.6378L0 0V50.8914L11.6028 55.2883L11.8751 54.5768L0.769571 50.3673V1.18578L16.7838 8.34079H5.13837V47.768L16.8335 51.5625H47.2967V58.4258H20.1699V161.933L29.1964 165.964L128.159 166V63.0243L123.51 58.433H101.034V51.5768L147 51.5839ZM143.19 9.44594L146.238 12.6879V50.1301L143.19 47.0779V9.44594ZM5.8961 9.09495H142.428V47.0044H5.8961V9.09495ZM17.0253 50.8202L7.87805 47.768H142.802L145.84 50.8202H101.034V49.1602H97.0086V50.8202H51.3292V49.1602H47.3038V50.8202H17.0253ZM123.51 59.5049L127.396 63.354V164.786L123.51 161.378V59.5049ZM126.764 165.246H29.4426L22.0405 161.926H122.987L126.764 165.246ZM122.738 161.169H20.9181V59.1919H122.738V161.169ZM51.3292 58.433V51.5697H96.9992V58.4258L51.3292 58.433Z" fill="white"/>
</svg>
