<svg width="84" height="95" viewBox="0 0 84 95" fill="none" xmlns="http://www.w3.org/2000/svg">
<path d="M64.7726 39.2182H47.936V51.2133H64.7726V39.2182Z" fill="#F7941C"/>
<path d="M47.9347 70.0679H28.921V78.5125H41.3803V86.9557H64.7726V53.5817H47.9347V70.0679Z" fill="#F7941C"/>
<path d="M39.264 80.6352H28.9169V86.9612H39.264V80.6352Z" fill="#F7941C"/>
<path d="M26.8602 70.0679H17.3534V86.9598H26.8602V70.0679Z" fill="#F7941C"/>
<path d="M17.3534 39.2237V54.5358C21.4022 54.5354 25.2852 52.9222 28.1484 50.0507C31.0116 47.1793 32.6206 43.2848 32.6217 39.2237H17.3534Z" fill="#F7941C"/>
<path d="M23.2367 56.3287H22.801V63.9725H23.2367V56.3287Z" fill="#F7941C"/>
<path d="M31.5498 52.5575L31.2417 52.8665L36.6303 58.2715L36.9384 57.9625L31.5498 52.5575Z" fill="#F7941C"/>
<path d="M42.6251 44.3947H35.0045V44.8317H42.6251V44.3947Z" fill="#F7941C"/>
<path d="M16.8325 17.3086H12.9762C12.9183 17.3083 12.8629 17.2849 12.822 17.2437C12.7812 17.2026 12.7583 17.1468 12.7583 17.0888V16.7372C12.7585 16.7091 12.7643 16.6813 12.7754 16.6554C12.7866 16.6296 12.8028 16.6063 12.8231 16.5869C12.8435 16.5675 12.8675 16.5524 12.8938 16.5426C12.9201 16.5327 12.9481 16.5283 12.9762 16.5296H16.3995C16.6112 16.5285 16.814 16.4437 16.9638 16.2935C17.1135 16.1433 17.1981 15.9399 17.1992 15.7275V14.3567C17.1977 14.1445 17.113 13.9414 16.9633 13.7915C16.8136 13.6416 16.611 13.557 16.3995 13.5559H12.665C12.4548 13.5577 12.2539 13.643 12.1063 13.7931C11.9586 13.9432 11.8764 14.1458 11.8775 14.3567V19.6498C11.8769 19.7538 11.8969 19.8568 11.9363 19.953C11.9756 20.0491 12.0336 20.1365 12.1068 20.2101C12.18 20.2836 12.2671 20.3419 12.3629 20.3816C12.4586 20.4212 12.5613 20.4415 12.665 20.4411H16.8325C16.9361 20.4415 17.0388 20.4212 17.1346 20.3816C17.2304 20.3419 17.3174 20.2836 17.3906 20.2101C17.4638 20.1365 17.5218 20.0491 17.5611 19.953C17.6005 19.8568 17.6205 19.7538 17.62 19.6498V18.0985C17.6205 17.9946 17.6005 17.8917 17.5611 17.7956C17.5217 17.6995 17.4638 17.6122 17.3905 17.5388C17.3173 17.4653 17.2303 17.4072 17.1345 17.3677C17.0387 17.3281 16.936 17.3081 16.8325 17.3086ZM12.7529 14.658C12.755 14.6017 12.779 14.5485 12.8197 14.5097C12.8604 14.4709 12.9146 14.4496 12.9708 14.4503H16.0991C16.1536 14.452 16.2054 14.4744 16.2441 14.5129C16.2828 14.5515 16.3054 14.6033 16.3075 14.658V15.4153C16.3055 15.4701 16.2829 15.5221 16.2442 15.5609C16.2056 15.5996 16.1537 15.6223 16.0991 15.6243H12.9762C12.9199 15.6247 12.8657 15.6031 12.825 15.5641C12.7843 15.5251 12.7604 15.4717 12.7583 15.4153L12.7529 14.658ZM16.7229 19.3214C16.7238 19.3491 16.7191 19.3767 16.7089 19.4025C16.6988 19.4283 16.6835 19.4517 16.6639 19.4713C16.6444 19.4909 16.621 19.5062 16.5953 19.5164C16.5696 19.5266 16.5421 19.5313 16.5145 19.5304H12.9762C12.9481 19.5315 12.92 19.5269 12.8937 19.5169C12.8674 19.5069 12.8434 19.4917 12.8231 19.4722C12.8027 19.4527 12.7865 19.4293 12.7754 19.4034C12.7643 19.3775 12.7585 19.3496 12.7583 19.3214V18.4215C12.7583 18.3635 12.7812 18.3078 12.822 18.2666C12.8629 18.2254 12.9183 18.202 12.9762 18.2017H16.5199C16.5481 18.202 16.5759 18.208 16.6018 18.2193C16.6276 18.2306 16.6509 18.247 16.6703 18.2675C16.6898 18.288 16.7049 18.3122 16.7149 18.3387C16.7248 18.3651 16.7294 18.3933 16.7283 18.4215L16.7229 19.3214Z" fill="#404041"/>
<path d="M18.199 11.9327H15.2127C15.1896 11.9329 15.1668 11.9284 15.1454 11.9196C15.1241 11.9108 15.1047 11.8978 15.0884 11.8813C15.0722 11.8649 15.0593 11.8454 15.0507 11.8239C15.0421 11.8024 15.0378 11.7794 15.0382 11.7562V11.5255C15.0382 11.4107 14.9927 11.3006 14.9118 11.2194C14.8308 11.1382 14.721 11.0926 14.6065 11.0926C14.4921 11.0926 14.3823 11.1382 14.3013 11.2194C14.2204 11.3006 14.1749 11.4107 14.1749 11.5255V11.7562C14.1753 11.7795 14.171 11.8026 14.1623 11.8242C14.1536 11.8458 14.1406 11.8654 14.1242 11.8818C14.1078 11.8983 14.0883 11.9113 14.0668 11.92C14.0452 11.9287 14.0222 11.933 13.999 11.9327H11.0222C10.8108 11.9337 10.6084 12.0185 10.4589 12.1684C10.3094 12.3183 10.2249 12.5214 10.2239 12.7334V13.446C10.2301 13.5582 10.2789 13.6638 10.3603 13.741C10.4417 13.8183 10.5495 13.8613 10.6616 13.8613C10.7737 13.8613 10.8815 13.8183 10.9629 13.741C11.0443 13.6638 11.0931 13.5582 11.0993 13.446V13.0076C11.0984 12.9799 11.1031 12.9523 11.1133 12.9265C11.1234 12.9007 11.1387 12.8773 11.1583 12.8577C11.1778 12.8381 11.2012 12.8227 11.2269 12.8126C11.2526 12.8024 11.2801 12.7976 11.3077 12.7986H17.9149C17.9701 12.7986 18.0231 12.8206 18.0622 12.8598C18.1013 12.899 18.1232 12.9522 18.1232 13.0076V13.446C18.1232 13.5622 18.1693 13.6738 18.2512 13.756C18.3332 13.8382 18.4444 13.8844 18.5603 13.8844C18.6171 13.884 18.6732 13.8724 18.7255 13.8501C18.7778 13.8278 18.8251 13.7953 18.8647 13.7545C18.9044 13.7137 18.9356 13.6655 18.9565 13.6125C18.9774 13.5595 18.9876 13.5029 18.9865 13.446V12.7334C18.9872 12.629 18.9674 12.5254 18.9282 12.4287C18.889 12.3319 18.8312 12.2438 18.7581 12.1695C18.685 12.0951 18.598 12.0359 18.502 11.9953C18.4061 11.9547 18.3031 11.9334 18.199 11.9327Z" fill="#404041"/>
<path d="M28.3933 12.6561C28.3033 12.513 28.179 12.3948 28.0318 12.3123C27.8845 12.2297 27.719 12.1856 27.5503 12.1838C27.4977 12.1833 27.4459 12.197 27.4004 12.2235C27.3548 12.25 27.3172 12.2882 27.2915 12.3343C27.2658 12.3804 27.2529 12.4325 27.2541 12.4853C27.2554 12.5381 27.2708 12.5896 27.2987 12.6344L28.7316 14.9715C28.8193 15.1142 28.9416 15.2322 29.0871 15.3146C29.2327 15.397 29.3966 15.441 29.5637 15.4424C29.6168 15.4439 29.6692 15.431 29.7155 15.4052C29.7619 15.3793 29.8005 15.3415 29.8273 15.2956C29.8541 15.2497 29.8682 15.1975 29.868 15.1443C29.8678 15.0911 29.8534 15.0389 29.8262 14.9932L28.3933 12.6561Z" fill="#404041"/>
<path d="M23.755 12.6995C23.7826 12.6519 23.7972 12.5977 23.7973 12.5426C23.7973 12.4875 23.7829 12.4333 23.7555 12.3855C23.7281 12.3378 23.6885 12.2981 23.6409 12.2706C23.5933 12.243 23.5393 12.2285 23.4844 12.2286C23.3234 12.2306 23.1658 12.2752 23.0275 12.3579C22.8893 12.4406 22.7752 12.5585 22.6969 12.6995L21.471 15.0258C21.4464 15.0733 21.4343 15.1263 21.4358 15.1797C21.4372 15.2332 21.4522 15.2854 21.4792 15.3315C21.5062 15.3776 21.5445 15.4161 21.5904 15.4433C21.6363 15.4705 21.6883 15.4857 21.7416 15.4873C21.9001 15.4858 22.0554 15.4423 22.1918 15.3613C22.3282 15.2803 22.4408 15.1645 22.5183 15.0258L23.755 12.6995Z" fill="#404041"/>
<path d="M28.3824 17.538C28.3314 17.4073 28.2428 17.2948 28.1279 17.2148C28.013 17.1348 27.8769 17.0909 27.737 17.0887C27.6831 17.0885 27.63 17.1012 27.5821 17.1259C27.5341 17.1505 27.4928 17.1864 27.4616 17.2305C27.4304 17.2745 27.4103 17.3255 27.4029 17.379C27.3955 17.4325 27.401 17.4871 27.419 17.538L27.7478 18.5043C27.7561 18.5314 27.7585 18.5599 27.7548 18.588C27.7511 18.6161 27.7414 18.643 27.7264 18.667C27.7114 18.6909 27.6913 18.7113 27.6677 18.7268C27.6441 18.7423 27.6174 18.7526 27.5895 18.7568L23.8604 19.1178C23.7616 19.13 23.6628 19.0092 23.7075 18.921L24.9253 15.8483C24.9469 15.7987 24.956 15.7445 24.9517 15.6905C24.9474 15.6365 24.9299 15.5844 24.9007 15.5389C24.8715 15.4934 24.8316 15.4558 24.7844 15.4295C24.7372 15.4032 24.6843 15.389 24.6303 15.3882C24.4846 15.3881 24.3422 15.4319 24.2216 15.514C24.101 15.596 24.0077 15.7124 23.9538 15.8483L22.51 19.4585C22.4781 19.5346 22.4668 19.6179 22.4773 19.6998C22.4877 19.7817 22.5195 19.8594 22.5695 19.9251C22.6195 19.9908 22.6858 20.0421 22.7618 20.0738C22.8379 20.1055 22.9209 20.1166 23.0025 20.1058L27.9684 19.6444C28.0158 19.6399 28.0633 19.6516 28.1031 19.6778C28.143 19.7039 28.1728 19.7429 28.1876 19.7883L28.1984 19.8425C28.2554 19.9734 28.3484 20.0852 28.4666 20.1648C28.5848 20.2444 28.7232 20.2885 28.8655 20.2918C28.9195 20.2924 28.9728 20.2799 29.0209 20.2553C29.069 20.2307 29.1105 20.1948 29.1417 20.1506C29.173 20.1065 29.1931 20.0554 29.2004 20.0017C29.2076 19.9481 29.2018 19.8935 29.1835 19.8425L28.3824 17.538Z" fill="#404041"/>
<path d="M40.1057 14.3675H34.5052C34.3792 14.3664 34.2578 14.4156 34.1677 14.5041C34.0777 14.5926 34.0263 14.7134 34.0249 14.8398C34.026 14.9673 34.0769 15.0892 34.1668 15.1794C34.2566 15.2695 34.3782 15.3206 34.5052 15.3217H36.7148C36.7701 15.3217 36.8231 15.3437 36.8622 15.3829C36.9013 15.4221 36.9232 15.4752 36.9232 15.5307V19.1178C36.9232 19.1732 36.9013 19.2264 36.8622 19.2656C36.8231 19.3048 36.7701 19.3268 36.7148 19.3268H36.3549C36.292 19.3277 36.2298 19.3411 36.172 19.3661C36.1142 19.3912 36.0619 19.4275 36.0182 19.4729C35.9744 19.5183 35.94 19.5719 35.917 19.6307C35.894 19.6895 35.8828 19.7523 35.884 19.8154C35.8837 19.8775 35.8956 19.939 35.9192 19.9964C35.9427 20.0538 35.9774 20.1059 36.0212 20.1497C36.0651 20.1935 36.1171 20.2282 36.1744 20.2516C36.2317 20.2751 36.2931 20.2869 36.3549 20.2864H37.0761C37.1797 20.2869 37.2823 20.2668 37.3781 20.2273C37.4739 20.1878 37.5609 20.1297 37.6342 20.0562C37.7074 19.9828 37.7654 19.8955 37.8048 19.7994C37.8442 19.7033 37.8642 19.6003 37.8636 19.4965V15.5307C37.8661 15.4741 37.8903 15.4208 37.9312 15.3818C37.9721 15.3428 38.0264 15.3212 38.0828 15.3217H40.1057C40.169 15.3222 40.2318 15.3101 40.2904 15.2861C40.349 15.2621 40.4022 15.2267 40.447 15.1818C40.4919 15.137 40.5273 15.0837 40.5514 15.025C40.5755 14.9663 40.5878 14.9033 40.5874 14.8398C40.5876 14.7768 40.5752 14.7144 40.5509 14.6563C40.5266 14.5982 40.491 14.5456 40.4461 14.5015C40.4012 14.4575 40.3479 14.423 40.2894 14.3999C40.231 14.3769 40.1685 14.3659 40.1057 14.3675Z" fill="#404041"/>
<path d="M40.4345 11.7671H37.593C37.5565 11.7668 37.5216 11.7526 37.4952 11.7274C37.4688 11.7022 37.453 11.6679 37.4509 11.6314V11.5771C37.4513 11.515 37.4393 11.4534 37.4158 11.3959C37.3923 11.3384 37.3576 11.2862 37.3138 11.2423C37.27 11.1984 37.2179 11.1636 37.1607 11.14C37.1034 11.1164 37.042 11.1044 36.98 11.1048C36.8557 11.1062 36.7369 11.1565 36.6491 11.2448C36.5613 11.3331 36.5116 11.4524 36.5105 11.5771V11.6314C36.5081 11.6678 36.4922 11.7019 36.4659 11.7271C36.4396 11.7522 36.4048 11.7665 36.3684 11.7671H33.2915C33.1866 11.7669 33.0827 11.7875 32.9858 11.8277C32.8888 11.8679 32.8008 11.9268 32.7266 12.0012C32.6524 12.0756 32.5936 12.164 32.5536 12.2612C32.5135 12.3584 32.493 12.4626 32.4932 12.5679V14.8507L32.0548 19.8968C32.0491 19.9565 32.056 20.0167 32.0748 20.0736C32.0936 20.1304 32.124 20.1828 32.1641 20.2272C32.2042 20.2716 32.2531 20.3072 32.3077 20.3316C32.3622 20.3561 32.4213 20.3689 32.481 20.3692C32.6102 20.3696 32.7348 20.3213 32.8301 20.2338C32.9254 20.1462 32.9843 20.026 32.9952 19.8968L33.4322 14.905V12.9302C33.4318 12.8737 33.4533 12.8191 33.4922 12.7781C33.531 12.7371 33.5842 12.7128 33.6406 12.7104H40.4331C40.5587 12.7104 40.6792 12.6603 40.768 12.5712C40.8568 12.4821 40.9067 12.3613 40.9067 12.2353C40.9067 12.1094 40.8568 11.9885 40.768 11.8994C40.6792 11.8104 40.5587 11.7603 40.4331 11.7603L40.4345 11.7671Z" fill="#404041"/>
<path d="M45.3882 14.829H46.8766C46.9807 14.8297 47.0839 14.8098 47.1804 14.7705C47.2769 14.7312 47.3647 14.6732 47.4388 14.5999C47.513 14.5265 47.572 14.4393 47.6125 14.343C47.653 14.2468 47.6742 14.1435 47.6749 14.0391V12.063C47.6738 11.8509 47.5894 11.6479 47.4399 11.4979C47.2904 11.348 47.088 11.2633 46.8766 11.2622H45.3882C45.1769 11.2636 44.9746 11.3485 44.8252 11.4983C44.6758 11.6482 44.5913 11.851 44.5898 12.063V14.0391C44.5916 14.2499 44.6767 14.4514 44.8263 14.5995C44.9759 14.7475 45.178 14.8301 45.3882 14.829ZM45.3773 11.9205H46.8752C46.9116 11.9211 46.9463 11.9354 46.9727 11.9605C46.999 11.9856 47.0149 12.0198 47.0173 12.0562C47.0173 12.0746 47.0136 12.0928 47.0064 12.1097C46.9992 12.1267 46.9886 12.1419 46.9753 12.1546C46.962 12.1673 46.9463 12.1772 46.9291 12.1836C46.9119 12.19 46.8935 12.1928 46.8752 12.1919H45.3773C45.3589 12.193 45.3404 12.1903 45.3231 12.184C45.3057 12.1777 45.2898 12.1679 45.2764 12.1552C45.2629 12.1424 45.2522 12.1271 45.2449 12.1101C45.2376 12.0931 45.2339 12.0747 45.2339 12.0562C45.2366 12.0197 45.2528 11.9855 45.2794 11.9604C45.3059 11.9353 45.3409 11.921 45.3773 11.9205ZM45.3773 12.9085H46.8657C46.8844 12.9085 46.9029 12.9122 46.9201 12.9194C46.9373 12.9265 46.953 12.937 46.9662 12.9503C46.9794 12.9635 46.9899 12.9792 46.997 12.9965C47.0041 13.0138 47.0078 13.0323 47.0078 13.051C47.0078 13.0697 47.0041 13.0883 46.997 13.1056C46.9899 13.1229 46.9794 13.1386 46.9662 13.1518C46.953 13.165 46.9373 13.1755 46.9201 13.1827C46.9029 13.1899 46.8844 13.1935 46.8657 13.1935H45.3773C45.3587 13.1935 45.3402 13.1899 45.323 13.1827C45.3057 13.1755 45.2901 13.165 45.2769 13.1518C45.2637 13.1386 45.2532 13.1229 45.2461 13.1056C45.2389 13.0883 45.2353 13.0697 45.2353 13.051C45.2353 13.0323 45.2389 13.0138 45.2461 12.9965C45.2532 12.9792 45.2637 12.9635 45.2769 12.9503C45.2901 12.937 45.3057 12.9265 45.323 12.9194C45.3402 12.9122 45.3587 12.9085 45.3773 12.9085ZM45.3773 13.8952H46.8752C46.9129 13.8959 46.9488 13.9114 46.9754 13.9382C47.0019 13.9651 47.0169 14.0013 47.0173 14.0391C47.0173 14.0575 47.0136 14.0757 47.0064 14.0926C46.9992 14.1096 46.9886 14.1248 46.9753 14.1375C46.962 14.1502 46.9463 14.1601 46.9291 14.1665C46.9119 14.1729 46.8935 14.1757 46.8752 14.1748H45.3773C45.3589 14.1759 45.3404 14.1732 45.3231 14.1669C45.3057 14.1606 45.2898 14.1508 45.2764 14.1381C45.2629 14.1253 45.2522 14.11 45.2449 14.093C45.2376 14.076 45.2339 14.0576 45.2339 14.0391C45.2346 14.0011 45.2499 13.965 45.2767 13.9381C45.3034 13.9113 45.3395 13.8959 45.3773 13.8952Z" fill="#404041"/>
<path d="M49.0848 12.1512H49.304C49.3179 12.1514 49.3315 12.1554 49.3434 12.1627C49.3553 12.1699 49.3651 12.1802 49.3717 12.1925C49.3783 12.2048 49.3815 12.2187 49.381 12.2326C49.3806 12.2466 49.3764 12.2602 49.3689 12.272L49.0848 12.6126C48.9472 12.7804 48.8767 12.9934 48.8869 13.2104C48.8972 13.4273 48.9875 13.6327 49.1403 13.7866L49.3473 13.9943C49.3891 14.0329 49.4154 14.0855 49.4214 14.1422C49.4273 14.1989 49.4126 14.2558 49.3798 14.3024L49.0631 14.719C49.021 14.7713 48.9955 14.8351 48.9899 14.9021C48.9844 14.9691 48.999 15.0363 49.032 15.0948C49.065 15.1533 49.1147 15.2006 49.1748 15.2304C49.2349 15.2602 49.3025 15.2712 49.3689 15.2619L50.0144 15.1954C50.0405 15.193 50.0669 15.196 50.0918 15.2043C50.1168 15.2125 50.1397 15.2259 50.1593 15.2435C50.1789 15.261 50.1946 15.2825 50.2055 15.3065C50.2164 15.3304 50.2223 15.3564 50.2227 15.3827V17.0385C50.2227 17.1375 50.2619 17.2325 50.3317 17.3025C50.4015 17.3724 50.4961 17.4118 50.5948 17.4118C50.6935 17.4118 50.7882 17.3724 50.8579 17.3025C50.9277 17.2325 50.9669 17.1375 50.9669 17.0385V15.3108C50.9678 15.2509 50.9904 15.1933 51.0305 15.1489C51.0706 15.1044 51.1254 15.0761 51.1848 15.0692L51.5677 15.0258C51.5889 15.0256 51.6097 15.0319 51.6273 15.0437C51.6449 15.0556 51.6586 15.0725 51.6665 15.0923C51.6891 15.1672 51.7356 15.2325 51.799 15.2781C51.8624 15.3238 51.9389 15.3472 52.0169 15.3447H52.1522C52.1983 15.3451 52.2438 15.3343 52.2848 15.3132C52.3257 15.2921 52.361 15.2614 52.3876 15.2236C52.4142 15.1859 52.4313 15.1423 52.4374 15.0965C52.4436 15.0507 52.4386 15.0041 52.4228 14.9606L52.1265 14.0825C52.0883 13.9694 52.0153 13.8713 51.9181 13.8023C51.8209 13.7333 51.7044 13.697 51.5853 13.6984C51.5389 13.6971 51.4929 13.7073 51.4514 13.7281C51.4098 13.7489 51.3741 13.7797 51.3473 13.8177C51.3205 13.8557 51.3035 13.8998 51.2978 13.946C51.2921 13.9922 51.2979 14.0391 51.3147 14.0825L51.3363 14.1477C51.3428 14.1622 51.3456 14.1782 51.3444 14.1942C51.3433 14.2101 51.3381 14.2255 51.3295 14.239C51.321 14.2524 51.3092 14.2635 51.2952 14.2713C51.2813 14.279 51.2656 14.2832 51.2497 14.2834L50.5488 14.3499C50.5305 14.3513 50.5122 14.3472 50.4963 14.3381C50.4804 14.329 50.4675 14.3153 50.4594 14.2988C50.4512 14.2824 50.4482 14.2638 50.4506 14.2456C50.453 14.2273 50.4609 14.2103 50.473 14.1965L51.4459 12.9234C51.4748 12.8881 51.4932 12.8453 51.4988 12.7999C51.5045 12.7546 51.4971 12.7085 51.4777 12.6672C51.4583 12.6258 51.4276 12.5908 51.3892 12.5663C51.3507 12.5417 51.3061 12.5286 51.2605 12.5285C51.1039 12.5262 50.9489 12.5608 50.8079 12.6293C50.6669 12.6979 50.5439 12.7986 50.4487 12.9234L50.1091 13.3618C50.0925 13.3829 50.0717 13.4002 50.0482 13.4129C50.0246 13.4255 49.9987 13.4332 49.972 13.4354C49.9453 13.4375 49.9185 13.4342 49.8932 13.4255C49.8679 13.4168 49.8447 13.403 49.8249 13.3849L49.7586 13.3184C49.7179 13.2784 49.6941 13.2243 49.6921 13.1672C49.6901 13.1101 49.71 13.0544 49.7478 13.0117L50.3174 12.3195C50.3613 12.2695 50.4149 12.2292 50.4749 12.2009C50.535 12.1727 50.6002 12.1571 50.6665 12.1553H51.9912C52.0956 12.1553 52.1958 12.1136 52.2696 12.0396C52.3435 11.9655 52.385 11.8651 52.385 11.7603C52.385 11.6556 52.3435 11.5551 52.2696 11.481C52.1958 11.407 52.0956 11.3654 51.9912 11.3654H49.0848C48.9804 11.3654 48.8802 11.407 48.8064 11.481C48.7325 11.5551 48.691 11.6556 48.691 11.7603C48.691 11.8651 48.7325 11.9655 48.8064 12.0396C48.8802 12.1136 48.9804 12.1553 49.0848 12.1553V12.1512Z" fill="#404041"/>
<path d="M48.396 18.5369C48.4912 18.6833 48.6209 18.8039 48.7736 18.8882C48.9262 18.9725 49.0972 19.0178 49.2715 19.0201C49.3259 19.0193 49.3792 19.0038 49.4257 18.9753C49.4721 18.9468 49.5102 18.9063 49.5357 18.8581C49.5613 18.8098 49.5735 18.7556 49.571 18.701C49.5686 18.6464 49.5516 18.5935 49.5218 18.5478L49.4014 18.351C49.3061 18.2058 49.1763 18.0866 49.0238 18.0042C48.8712 17.9217 48.7006 17.8786 48.5273 17.8787C48.4727 17.8792 48.4193 17.8945 48.3726 17.9229C48.3259 17.9513 48.2877 17.9918 48.262 18.0401C48.2363 18.0884 48.224 18.1427 48.2264 18.1974C48.2288 18.2521 48.2458 18.3051 48.2756 18.351L48.396 18.5369Z" fill="#404041"/>
<path d="M48.9319 16.4414L48.8332 16.782C48.8189 16.8248 48.815 16.8703 48.8219 16.9149C48.8288 16.9594 48.8462 17.0017 48.8727 17.0381C48.8992 17.0745 48.934 17.104 48.9742 17.1242C49.0144 17.1443 49.0588 17.1545 49.1038 17.1539C49.2149 17.1536 49.323 17.1173 49.4118 17.0502C49.5006 16.9832 49.5653 16.8891 49.5963 16.782L49.7059 16.4414C49.7183 16.3969 49.7204 16.3502 49.712 16.3048C49.7036 16.2594 49.685 16.2166 49.6576 16.1795C49.6302 16.1424 49.5947 16.1122 49.5538 16.091C49.5129 16.0698 49.4678 16.0583 49.4218 16.0573C49.3094 16.0587 49.2007 16.097 49.1122 16.1664C49.0237 16.2358 48.9604 16.3324 48.9319 16.4414Z" fill="#404041"/>
<path d="M51.8626 16.0573C51.8181 16.0583 51.7745 16.0697 51.7351 16.0904C51.6956 16.1111 51.6615 16.1407 51.6353 16.1768C51.6092 16.2129 51.5916 16.2546 51.5841 16.2986C51.5766 16.3426 51.5793 16.3877 51.592 16.4305L51.7124 16.782C51.7461 16.8896 51.813 16.9837 51.9035 17.0505C51.994 17.1174 52.1034 17.1536 52.2158 17.1539C52.2604 17.1536 52.3044 17.1428 52.3441 17.1224C52.3838 17.102 52.4182 17.0725 52.4446 17.0364C52.4709 17.0002 52.4884 16.9584 52.4956 16.9142C52.5029 16.87 52.4998 16.8248 52.4864 16.782L52.366 16.4305C52.3328 16.3226 52.266 16.2281 52.1754 16.161C52.0849 16.0938 51.9753 16.0575 51.8626 16.0573Z" fill="#404041"/>
<path d="M47.7614 16.7047C47.7277 16.5911 47.6585 16.4913 47.564 16.4202C47.4694 16.3491 47.3546 16.3103 47.2364 16.3097C47.189 16.3105 47.1423 16.3222 47.1 16.3438C47.0577 16.3655 47.0209 16.3966 46.9924 16.4347C46.964 16.4728 46.9446 16.517 46.9357 16.5637C46.9269 16.6105 46.9289 16.6588 46.9415 16.7047L47.0172 16.968C47.0515 17.0804 47.1212 17.1786 47.2159 17.2478C47.3105 17.3171 47.4251 17.3537 47.5422 17.3521C47.5887 17.3524 47.6347 17.3418 47.6763 17.321C47.7179 17.3002 47.7541 17.2699 47.7819 17.2325C47.8097 17.1951 47.8283 17.1517 47.8363 17.1057C47.8443 17.0598 47.8413 17.0126 47.8277 16.968L47.7614 16.7047Z" fill="#404041"/>
<path d="M50.9006 19.7774H47.1593C47.1032 19.7746 47.0503 19.7502 47.0118 19.7092C46.9732 19.6682 46.9519 19.6139 46.9523 19.5575V18.6686C46.9523 18.5426 46.9024 18.4218 46.8136 18.3327C46.7248 18.2436 46.6043 18.1935 46.4787 18.1935C46.3531 18.1935 46.2326 18.2436 46.1438 18.3327C46.055 18.4218 46.0051 18.5426 46.0051 18.6686V19.9308C46.0065 20.143 46.0913 20.346 46.241 20.4959C46.3907 20.6458 46.5933 20.7305 46.8048 20.7315H50.8952C51.0214 20.7298 51.1418 20.6779 51.23 20.5874C51.3182 20.4969 51.3671 20.375 51.3661 20.2484C51.3664 20.1868 51.3547 20.1257 51.3314 20.0687C51.3082 20.0116 51.274 19.9598 51.2308 19.916C51.1875 19.8723 51.1361 19.8375 51.0794 19.8137C51.0228 19.7899 50.962 19.7776 50.9006 19.7774Z" fill="#404041"/>
<path d="M52.3877 18.8993C52.2845 18.7507 52.1471 18.6292 51.9872 18.5451C51.8273 18.461 51.6495 18.4168 51.469 18.4161C51.4138 18.4178 51.36 18.4344 51.3135 18.4643C51.267 18.4941 51.2293 18.536 51.2046 18.5856C51.1799 18.6351 51.1691 18.6904 51.1732 18.7457C51.1774 18.8009 51.1963 18.854 51.2281 18.8993L51.5245 19.316C51.6256 19.4607 51.7598 19.5791 51.9159 19.6613C52.0719 19.7435 52.2453 19.787 52.4216 19.7883C52.4769 19.7896 52.5315 19.7755 52.5793 19.7475C52.6271 19.7195 52.6662 19.6788 52.6923 19.6298C52.7184 19.5809 52.7304 19.5256 52.727 19.4702C52.7237 19.4148 52.7051 19.3614 52.6732 19.316L52.3877 18.8993Z" fill="#404041"/>
<path d="M44.9606 18.6577C44.8106 18.6593 44.6646 18.7062 44.5417 18.7925C44.4188 18.8787 44.3248 19.0001 44.2719 19.1409L43.962 20.0068C43.9421 20.0604 43.9353 20.118 43.9422 20.1748C43.949 20.2316 43.9693 20.2859 44.0014 20.3332C44.0334 20.3805 44.0763 20.4194 44.1264 20.4467C44.1765 20.4739 44.2324 20.4888 44.2894 20.49C44.4387 20.4909 44.5847 20.4461 44.7079 20.3618C44.8312 20.2774 44.9259 20.1574 44.9795 20.0177L45.307 19.1409C45.3258 19.0858 45.3311 19.0269 45.3226 18.9693C45.3141 18.9117 45.292 18.857 45.2581 18.8097C45.2242 18.7624 45.1795 18.7239 45.1277 18.6975C45.076 18.671 45.0187 18.6574 44.9606 18.6577Z" fill="#404041"/>
<path d="M46.3827 17.0779V16.0573C46.3827 16.0018 46.4046 15.9487 46.4437 15.9095C46.4828 15.8703 46.5358 15.8483 46.5911 15.8483H47.8373C47.8839 15.8477 47.93 15.838 47.9729 15.8195C48.0158 15.8011 48.0547 15.7743 48.0872 15.7408C48.1198 15.7072 48.1454 15.6676 48.1627 15.6241C48.1799 15.5806 48.1884 15.5341 48.1877 15.4872C48.1885 15.4409 48.1799 15.3948 48.1625 15.3519C48.1452 15.3089 48.1194 15.2698 48.0867 15.2371C48.054 15.2043 48.0151 15.1784 47.9722 15.161C47.9294 15.1436 47.8835 15.135 47.8373 15.1357H44.491C44.4629 15.1354 44.435 15.1294 44.4092 15.1181C44.3833 15.1068 44.36 15.0904 44.3406 15.0699C44.3212 15.0494 44.3061 15.0252 44.2961 14.9988C44.2862 14.9723 44.2816 14.9441 44.2827 14.9159V12.2937C44.282 12.2469 44.2721 12.2007 44.2535 12.1577C44.2349 12.1148 44.2081 12.0759 44.1745 12.0434C44.141 12.0108 44.1013 11.9853 44.0579 11.9681C44.0144 11.951 43.9681 11.9426 43.9214 11.9435C43.8754 11.943 43.8298 11.9517 43.7872 11.9691C43.7446 11.9865 43.7059 12.0123 43.6733 12.0449C43.6408 12.0775 43.6151 12.1163 43.5978 12.1591C43.5804 12.2018 43.5717 12.2476 43.5723 12.2937V15.0475C43.5716 15.152 43.5914 15.2555 43.6306 15.3523C43.6698 15.4491 43.7276 15.5371 43.8007 15.6115C43.8738 15.6858 43.9608 15.745 44.0568 15.7857C44.1527 15.8263 44.2557 15.8476 44.3598 15.8483H45.3543C45.4107 15.8479 45.4651 15.8694 45.506 15.9084C45.5469 15.9474 45.5711 16.0008 45.5735 16.0573V17.0779C45.5722 17.1317 45.5818 17.1853 45.6018 17.2353C45.6217 17.2852 45.6516 17.3306 45.6895 17.3687C45.7275 17.4068 45.7728 17.4367 45.8226 17.4567C45.8724 17.4767 45.9258 17.4864 45.9795 17.4851C46.0866 17.4844 46.1892 17.4411 46.2647 17.3649C46.3403 17.2886 46.3827 17.1854 46.3827 17.0779Z" fill="#404041"/>
<path d="M44.8402 16.9653L44.9281 16.702C44.9417 16.6569 44.9446 16.6092 44.9369 16.5628C44.9291 16.5163 44.9107 16.4723 44.8833 16.4341C44.8558 16.3959 44.8199 16.3646 44.7784 16.3426C44.7369 16.3205 44.6909 16.3083 44.644 16.307C44.5258 16.3076 44.411 16.3464 44.3164 16.4175C44.2219 16.4886 44.1527 16.5883 44.119 16.702L44.031 16.9653C44.0186 17.0098 44.0166 17.0566 44.025 17.1021C44.0334 17.1476 44.0522 17.1905 44.0797 17.2276C44.1073 17.2647 44.143 17.295 44.184 17.3161C44.2251 17.3372 44.2704 17.3486 44.3165 17.3493C44.4335 17.3507 44.5477 17.3139 44.6421 17.2447C44.7365 17.1755 44.806 17.0774 44.8402 16.9653Z" fill="#404041"/>
<path d="M56.0519 16.3314V18.5152C56.0529 18.7273 56.1374 18.9303 56.2869 19.0802C56.4364 19.2302 56.6388 19.3149 56.8502 19.316H61.5968C61.7018 19.3163 61.8057 19.2959 61.9028 19.2557C61.9998 19.2156 62.0879 19.1567 62.1621 19.0822C62.2363 19.0078 62.2951 18.9194 62.3351 18.8221C62.3751 18.7248 62.3955 18.6205 62.3952 18.5152V16.3314C62.3955 16.2262 62.3751 16.1219 62.3351 16.0246C62.2951 15.9273 62.2363 15.8388 62.1621 15.7644C62.0879 15.69 61.9998 15.631 61.9028 15.5909C61.8057 15.5508 61.7018 15.5303 61.5968 15.5307H56.8502C56.6388 15.5317 56.4364 15.6165 56.2869 15.7664C56.1374 15.9163 56.0529 16.1194 56.0519 16.3314ZM56.926 16.2215H61.5197C61.5646 16.2204 61.6082 16.237 61.641 16.2676C61.6739 16.2983 61.6935 16.3407 61.6956 16.3857C61.696 16.409 61.6917 16.4321 61.683 16.4537C61.6743 16.4752 61.6613 16.4948 61.6449 16.5113C61.6285 16.5278 61.609 16.5407 61.5875 16.5495C61.5659 16.5582 61.5429 16.5625 61.5197 16.5622H56.926C56.9029 16.5623 56.88 16.5579 56.8586 16.5491C56.8373 16.5403 56.8179 16.5273 56.8017 16.5108C56.7854 16.4944 56.7726 16.4748 56.7639 16.4534C56.7553 16.4319 56.7511 16.4089 56.7514 16.3857C56.7535 16.341 56.7729 16.2988 56.8055 16.2681C56.8381 16.2375 56.8813 16.2207 56.926 16.2215ZM56.9368 17.2421H61.5102C61.5591 17.2438 61.6055 17.2642 61.6399 17.299C61.6743 17.3338 61.6943 17.3804 61.6956 17.4294C61.6935 17.4771 61.673 17.522 61.6383 17.5547C61.6037 17.5874 61.5578 17.6053 61.5102 17.6045H56.9368C56.8893 17.6053 56.8433 17.5874 56.8087 17.5547C56.7741 17.522 56.7535 17.4771 56.7514 17.4294C56.7514 17.3795 56.7707 17.3315 56.8053 17.2955C56.8399 17.2595 56.887 17.2385 56.9368 17.2367V17.2421ZM56.926 18.2953H61.5265C61.5695 18.2967 61.6103 18.3144 61.6407 18.3449C61.6712 18.3755 61.6888 18.4164 61.6902 18.4596C61.6913 18.5046 61.6748 18.5483 61.6442 18.5813C61.6136 18.6142 61.5713 18.6339 61.5265 18.636H56.926C56.9029 18.6362 56.88 18.6317 56.8586 18.6229C56.8373 18.6141 56.8179 18.6011 56.8017 18.5846C56.7854 18.5682 56.7726 18.5487 56.7639 18.5272C56.7553 18.5057 56.7511 18.4827 56.7514 18.4596C56.7535 18.4148 56.7729 18.3726 56.8055 18.342C56.8381 18.3113 56.8813 18.2946 56.926 18.2953Z" fill="#404041"/>
<path d="M61.1368 15.114C61.3472 15.1154 61.5496 15.0331 61.6995 14.885C61.8495 14.7369 61.9347 14.5351 61.9365 14.3241V14.0825C61.935 13.8703 61.8503 13.6673 61.7006 13.5174C61.5509 13.3675 61.3483 13.2828 61.1368 13.2817H57.3089C57.0987 13.2835 56.8978 13.3688 56.7502 13.5189C56.6026 13.669 56.5203 13.8717 56.5214 14.0825V14.3241C56.521 14.4279 56.5411 14.5308 56.5806 14.6268C56.62 14.7228 56.678 14.81 56.7512 14.8834C56.8244 14.9569 56.9114 15.015 57.0071 15.0546C57.1028 15.0942 57.2054 15.1144 57.3089 15.114H61.1368ZM57.1884 14.2508V14.1748C57.1874 14.1465 57.1919 14.1184 57.2019 14.0919C57.2118 14.0654 57.227 14.0413 57.2464 14.0208C57.2658 14.0003 57.2891 13.9839 57.315 13.9726C57.3408 13.9613 57.3686 13.9553 57.3968 13.9549H61.0502C61.1082 13.9553 61.1638 13.9786 61.2048 14.0197C61.2458 14.0609 61.269 14.1166 61.2694 14.1748V14.2508C61.269 14.2791 61.2631 14.307 61.2518 14.3329C61.2405 14.3588 61.2242 14.3822 61.2038 14.4017C61.1833 14.4212 61.1592 14.4364 61.1328 14.4463C61.1065 14.4563 61.0784 14.4609 61.0502 14.4598H57.3968C57.3692 14.4608 57.3417 14.456 57.316 14.4458C57.2903 14.4357 57.2669 14.4203 57.2474 14.4007C57.2278 14.3811 57.2125 14.3577 57.2024 14.3319C57.1923 14.3061 57.1875 14.2785 57.1884 14.2508Z" fill="#404041"/>
<path d="M61.8701 19.9742H61.4439C61.4021 19.9744 61.3611 19.9863 61.3258 20.0087C61.2904 20.0311 61.262 20.063 61.2438 20.1007C61.2256 20.1385 61.2183 20.1806 61.2229 20.2223C61.2274 20.264 61.2435 20.3036 61.2693 20.3366C61.3579 20.4457 61.4695 20.5337 61.5961 20.5942C61.7227 20.6548 61.8611 20.6864 62.0014 20.6868H62.4398C62.4803 20.6869 62.5201 20.6756 62.5547 20.6543C62.5892 20.633 62.6171 20.6024 62.6353 20.566C62.6534 20.5296 62.6611 20.4888 62.6574 20.4483C62.6537 20.4078 62.6387 20.3691 62.6143 20.3366C62.525 20.2244 62.4118 20.1336 62.2831 20.0709C62.1543 20.0082 62.0132 19.9752 61.8701 19.9742Z" fill="#404041"/>
<path d="M63.0622 12.086H62.2504C62.2246 12.0867 62.1993 12.08 62.1772 12.0667C62.1552 12.0534 62.1374 12.0341 62.1259 12.0111C62.1144 11.988 62.1097 11.9621 62.1123 11.9364C62.1149 11.9108 62.1248 11.8864 62.1408 11.8662L62.2504 11.7128C62.2765 11.6798 62.2925 11.6398 62.2963 11.5978C62.3002 11.5558 62.2918 11.5136 62.2721 11.4763C62.2525 11.439 62.2224 11.4083 62.1856 11.3879C62.1488 11.3675 62.1069 11.3582 62.065 11.3613C61.9031 11.3561 61.7425 11.3927 61.5987 11.4676C61.4549 11.5424 61.3327 11.653 61.2437 11.7888L61.1341 11.9327C61.095 11.9819 61.0451 12.0213 60.9883 12.0479C60.9315 12.0745 60.8693 12.0876 60.8066 12.086H59.8473C59.7872 12.08 59.7309 12.054 59.6873 12.0122C59.6436 11.9704 59.6152 11.9152 59.6064 11.8553V11.5038C59.6064 11.4019 59.5661 11.3042 59.4943 11.2322C59.4224 11.1602 59.325 11.1197 59.2235 11.1197C59.1219 11.1197 59.0245 11.1602 58.9527 11.2322C58.8809 11.3042 58.8406 11.4019 58.8406 11.5038V11.8553C58.834 11.9161 58.8062 11.9726 58.7621 12.0148C58.7181 12.057 58.6605 12.0822 58.5997 12.086H57.6377C57.5749 12.0871 57.5126 12.0738 57.4557 12.0472C57.3987 12.0207 57.3485 11.9815 57.3089 11.9327L57.2101 11.7888C57.1263 11.6534 57.0084 11.5425 56.8682 11.4674C56.728 11.3923 56.5706 11.3557 56.4118 11.3613C56.3702 11.3594 56.329 11.3694 56.293 11.39C56.2569 11.4107 56.2274 11.4413 56.208 11.4781C56.1886 11.515 56.18 11.5566 56.1832 11.5981C56.1865 11.6397 56.2015 11.6794 56.2264 11.7128L56.336 11.8879C56.3463 11.9078 56.3516 11.93 56.3513 11.9524C56.3511 11.9749 56.3452 11.9969 56.3344 12.0165C56.3235 12.0362 56.3079 12.0528 56.2891 12.0649C56.2703 12.0771 56.2487 12.0843 56.2264 12.086H55.3834C55.2822 12.0836 55.1816 12.1018 55.0877 12.1396C54.9937 12.1774 54.9084 12.2339 54.8369 12.3057C54.7655 12.3776 54.7093 12.4632 54.6718 12.5575C54.6343 12.6518 54.6163 12.7527 54.6189 12.8542V13.4365C54.6189 13.5445 54.6617 13.648 54.7378 13.7244C54.8139 13.8007 54.9172 13.8436 55.0248 13.8436C55.1325 13.8436 55.2357 13.8007 55.3119 13.7244C55.388 13.648 55.4308 13.5445 55.4308 13.4365V13.1189C55.4366 13.0599 55.4626 13.0048 55.5042 12.9628C55.5459 12.9208 55.6007 12.8944 55.6594 12.8882H62.7916C62.8506 12.8941 62.9057 12.9203 62.9476 12.9624C62.9895 13.0044 63.0157 13.0597 63.0216 13.1189V13.4365C63.0216 13.5445 63.0644 13.648 63.1405 13.7244C63.2167 13.8007 63.3199 13.8436 63.4276 13.8436C63.5352 13.8436 63.6385 13.8007 63.7146 13.7244C63.7907 13.648 63.8335 13.5445 63.8335 13.4365V12.8556C63.8363 12.7534 63.8183 12.6517 63.7804 12.5568C63.7426 12.4619 63.6859 12.3757 63.6136 12.3037C63.5414 12.2316 63.4552 12.1751 63.3604 12.1377C63.2655 12.1002 63.1641 12.0827 63.0622 12.086Z" fill="#404041"/>
<path d="M57.2101 19.9742H56.773C56.6252 19.975 56.4793 20.0078 56.3452 20.0703C56.2112 20.1328 56.0922 20.2237 55.9964 20.3366C55.9697 20.3675 55.9525 20.4056 55.9469 20.4461C55.9414 20.4866 55.9476 20.5279 55.9649 20.565C55.9822 20.602 56.0099 20.6332 56.0445 20.6548C56.0792 20.6764 56.1193 20.6875 56.1601 20.6867H56.5985C56.7451 20.6855 56.8898 20.6538 57.0235 20.5935C57.1572 20.5332 57.277 20.4457 57.3752 20.3366C57.4011 20.3044 57.4176 20.2656 57.4227 20.2245C57.4279 20.1835 57.4216 20.1418 57.4044 20.1042C57.3873 20.0665 57.36 20.0344 57.3257 20.0115C57.2914 19.9885 57.2513 19.9756 57.2101 19.9742Z" fill="#404041"/>
<path d="M66.3759 12.1403H67.9996C68.1084 12.1403 68.2127 12.097 68.2895 12.0199C68.3664 11.9428 68.4096 11.8382 68.4096 11.7291C68.4096 11.62 68.3664 11.5154 68.2895 11.4383C68.2127 11.3612 68.1084 11.3179 67.9996 11.3179H66.3759C66.2672 11.3179 66.1629 11.3612 66.086 11.4383C66.0091 11.5154 65.9659 11.62 65.9659 11.7291C65.9659 11.8382 66.0091 11.9428 66.086 12.0199C66.1629 12.097 66.2672 12.1403 66.3759 12.1403Z" fill="#404041"/>
<path d="M67.9117 17.1539H66.4626C66.3589 17.1535 66.2563 17.1738 66.1605 17.2134C66.0647 17.2531 65.9776 17.3114 65.9044 17.3849C65.8312 17.4585 65.7733 17.5459 65.7339 17.642C65.6945 17.7382 65.6745 17.8412 65.6751 17.9451V19.7095C65.674 19.9204 65.7563 20.123 65.9039 20.2731C66.0515 20.4232 66.2524 20.5085 66.4626 20.5103H67.9117C68.1231 20.5092 68.3256 20.4245 68.475 20.2746C68.6245 20.1246 68.709 19.9216 68.71 19.7095V17.9451C68.7095 17.8406 68.6884 17.7372 68.648 17.6408C68.6076 17.5444 68.5486 17.457 68.4745 17.3835C68.4003 17.31 68.3124 17.2519 68.2159 17.2125C68.1193 17.1731 68.016 17.1532 67.9117 17.1539ZM67.9009 19.491C67.9022 19.5192 67.8978 19.5474 67.888 19.5738C67.8782 19.6003 67.8632 19.6245 67.8439 19.645C67.8245 19.6655 67.8013 19.6819 67.7755 19.6932C67.7498 19.7046 67.722 19.7106 67.6939 19.7109H66.6872C66.659 19.7106 66.6312 19.7046 66.6053 19.6932C66.5795 19.6819 66.5562 19.6656 66.5367 19.6451C66.5173 19.6246 66.5022 19.6004 66.4922 19.5739C66.4823 19.5475 66.4777 19.5193 66.4788 19.491V18.1637C66.4778 18.136 66.4826 18.1085 66.4927 18.0828C66.5029 18.057 66.5182 18.0337 66.5378 18.0142C66.5574 17.9947 66.5807 17.9795 66.6064 17.9695C66.6321 17.9595 66.6596 17.9549 66.6872 17.956H67.6939C67.7213 17.9551 67.7487 17.9598 67.7742 17.9699C67.7997 17.98 67.8229 17.9952 67.8424 18.0147C67.8618 18.0342 67.877 18.0575 67.8871 18.0831C67.8971 18.1087 67.9018 18.1361 67.9009 18.1637V19.491Z" fill="#404041"/>
<path d="M66.2447 16.5065H68.1255C68.231 16.5033 68.3312 16.4591 68.4047 16.383C68.4782 16.307 68.5193 16.2053 68.5192 16.0994C68.5194 16.0474 68.5094 15.996 68.4896 15.948C68.4699 15.9 68.4409 15.8564 68.4043 15.8197C68.3677 15.783 68.3242 15.7539 68.2764 15.7341C68.2285 15.7143 68.1773 15.7042 68.1255 15.7044H66.2447C66.1929 15.7042 66.1415 15.7143 66.0936 15.7341C66.0457 15.7539 66.0021 15.7829 65.9654 15.8196C65.9287 15.8563 65.8996 15.8999 65.8797 15.9479C65.8598 15.9959 65.8496 16.0474 65.8496 16.0994C65.8496 16.2055 65.8909 16.3074 65.9647 16.3835C66.0385 16.4596 66.1389 16.5037 66.2447 16.5065Z" fill="#404041"/>
<path d="M66.2556 15.0652H68.1039C68.2126 15.0652 68.3169 15.0218 68.3938 14.9447C68.4707 14.8676 68.5139 14.763 68.5139 14.6539C68.5139 14.5448 68.4707 14.4402 68.3938 14.3631C68.3169 14.286 68.2126 14.2427 68.1039 14.2427H66.2556C66.1468 14.2427 66.0426 14.286 65.9657 14.3631C65.8888 14.4402 65.8456 14.5448 65.8456 14.6539C65.8456 14.763 65.8888 14.8676 65.9657 14.9447C66.0426 15.0218 66.1468 15.0652 66.2556 15.0652Z" fill="#404041"/>
<path d="M68.5517 12.766H65.8279C65.7163 12.766 65.6093 12.8105 65.5304 12.8897C65.4514 12.9688 65.4071 13.0762 65.4071 13.1881C65.4071 13.3001 65.4514 13.4074 65.5304 13.4866C65.6093 13.5657 65.7163 13.6102 65.8279 13.6102H68.5517C68.6633 13.6102 68.7703 13.5657 68.8493 13.4866C68.9282 13.4074 68.9725 13.3001 68.9725 13.1881C68.9725 13.0762 68.9282 12.9688 68.8493 12.8897C68.7703 12.8105 68.6633 12.766 68.5517 12.766Z" fill="#404041"/>
<path d="M74.3714 16.573H72.6651C72.6098 16.573 72.5568 16.551 72.5178 16.5118C72.4787 16.4726 72.4567 16.4194 72.4567 16.364V15.9365C72.4588 15.8817 72.4814 15.8297 72.52 15.7909C72.5587 15.7522 72.6105 15.7295 72.6651 15.7275H73.6272C73.8387 15.7268 74.0413 15.6422 74.1909 15.4921C74.3404 15.3421 74.4248 15.1389 74.4255 14.9267V12.1078C74.4248 12.0033 74.4036 11.9 74.3631 11.8038C74.3226 11.7076 74.2636 11.6203 74.1894 11.547C74.1153 11.4736 74.0275 11.4156 73.931 11.3763C73.8345 11.337 73.7313 11.3171 73.6272 11.3179H70.4555C70.3519 11.3173 70.2493 11.3374 70.1535 11.3769C70.0577 11.4164 69.9707 11.4746 69.8975 11.548C69.8242 11.6215 69.7662 11.7088 69.7269 11.8048C69.6875 11.9009 69.6675 12.0039 69.668 12.1078V14.9294C69.6673 15.0339 69.6871 15.1374 69.7263 15.2342C69.7655 15.331 69.8233 15.419 69.8964 15.4934C69.9695 15.5678 70.0566 15.6269 70.1525 15.6676C70.2484 15.7082 70.3514 15.7295 70.4555 15.7302H71.4027C71.4579 15.7302 71.5109 15.7522 71.55 15.7914C71.5891 15.8306 71.6111 15.8838 71.6111 15.9392V16.3667C71.612 16.3944 71.6073 16.422 71.5971 16.4478C71.587 16.4736 71.5717 16.497 71.5521 16.5166C71.5326 16.5362 71.5092 16.5516 71.4835 16.5617C71.4578 16.5719 71.4303 16.5767 71.4027 16.5757H69.7221C69.6131 16.5819 69.5105 16.6297 69.4355 16.7093C69.3604 16.7889 69.3186 16.8944 69.3186 17.0039C69.3186 17.1135 69.3604 17.2189 69.4355 17.2985C69.5105 17.3782 69.6131 17.426 69.7221 17.4321H71.0238C71.042 17.4311 71.06 17.4354 71.0758 17.4445C71.0916 17.4536 71.1043 17.4672 71.1125 17.4835C71.1207 17.4997 71.124 17.5181 71.1219 17.5362C71.1199 17.5543 71.1126 17.5715 71.1009 17.5855L69.5354 19.415C69.5039 19.4529 69.4838 19.4989 69.4773 19.5477C69.4709 19.5965 69.4783 19.6462 69.4989 19.691C69.5194 19.7357 69.5522 19.7737 69.5934 19.8005C69.6346 19.8274 69.6825 19.8419 69.7316 19.8426C69.9052 19.8439 70.0768 19.8062 70.234 19.7322C70.3911 19.6582 70.5297 19.5498 70.6395 19.415L71.4825 18.4161C71.4916 18.4031 71.5046 18.3934 71.5197 18.3883C71.5347 18.3832 71.551 18.3831 71.5661 18.3879C71.5812 18.3928 71.5944 18.4024 71.6037 18.4152C71.613 18.4281 71.6179 18.4436 71.6178 18.4596V20.2918C71.62 20.4036 71.6658 20.5102 71.7456 20.5884C71.8253 20.6666 71.9325 20.7102 72.044 20.7098C72.0987 20.7098 72.1528 20.699 72.2033 20.678C72.2538 20.657 72.2997 20.6261 72.3383 20.5873C72.3768 20.5485 72.4074 20.5024 72.4282 20.4517C72.449 20.401 72.4596 20.3466 72.4594 20.2918V18.4378C72.4564 18.4209 72.4594 18.4035 72.4677 18.3885C72.476 18.3735 72.4892 18.3618 72.5051 18.3555C72.521 18.3491 72.5386 18.3484 72.5549 18.3535C72.5712 18.3586 72.5853 18.3692 72.5947 18.3835L73.4919 19.4259C73.6064 19.5561 73.7471 19.6606 73.9047 19.7324C74.0624 19.8042 74.2334 19.8418 74.4065 19.8426C74.4547 19.8427 74.502 19.8291 74.5428 19.8033C74.5835 19.7775 74.6162 19.7407 74.6369 19.697C74.6576 19.6533 74.6655 19.6047 74.6597 19.5567C74.6539 19.5087 74.6346 19.4633 74.6041 19.4259L73.0061 17.5828C72.9945 17.5696 72.9869 17.5535 72.9842 17.5361C72.9814 17.5188 72.9837 17.5011 72.9906 17.485C72.9976 17.4689 73.009 17.4551 73.0235 17.4453C73.0379 17.4354 73.0549 17.4299 73.0724 17.4294H74.3741C74.4831 17.4233 74.5857 17.3755 74.6608 17.2958C74.7358 17.2162 74.7776 17.1108 74.7776 17.0012C74.7776 16.8916 74.7358 16.7862 74.6608 16.7066C74.5857 16.627 74.4831 16.5792 74.3741 16.573H74.3714ZM72.4567 12.3507C72.4588 12.2959 72.4814 12.2439 72.52 12.2051C72.5587 12.1664 72.6105 12.1437 72.6651 12.1417H73.3863C73.4416 12.1417 73.4946 12.1637 73.5337 12.2029C73.5727 12.2421 73.5947 12.2953 73.5947 12.3507V12.8936C73.5956 12.9213 73.5909 12.9489 73.5807 12.9747C73.5706 13.0005 73.5553 13.0239 73.5358 13.0435C73.5162 13.0631 73.4929 13.0785 73.4672 13.0886C73.4414 13.0988 73.4139 13.1035 73.3863 13.1026H72.6651C72.6098 13.1026 72.5568 13.0806 72.5178 13.0414C72.4787 13.0022 72.4567 12.949 72.4567 12.8936V12.3507ZM72.4567 14.149C72.4563 14.0926 72.4779 14.0382 72.5168 13.9974C72.5557 13.9566 72.6089 13.9326 72.6651 13.9305H73.3863C73.4144 13.9307 73.4422 13.9365 73.4681 13.9477C73.4939 13.9588 73.5172 13.9751 73.5367 13.9955C73.5561 14.0158 73.5713 14.0399 73.5812 14.0663C73.5912 14.0927 73.5958 14.1208 73.5947 14.149V14.6919C73.5958 14.7201 73.5912 14.7482 73.5812 14.7746C73.5713 14.801 73.5561 14.8251 73.5367 14.8455C73.5172 14.8659 73.4939 14.8821 73.4681 14.8933C73.4422 14.9044 73.4144 14.9103 73.3863 14.9104H72.6651C72.6089 14.9083 72.5557 14.8843 72.5168 14.8435C72.4779 14.8027 72.4563 14.7484 72.4567 14.6919V14.149ZM71.6151 14.6919C71.6162 14.7201 71.6116 14.7482 71.6017 14.7746C71.5917 14.801 71.5765 14.8251 71.5571 14.8455C71.5377 14.8659 71.5143 14.8821 71.4885 14.8933C71.4627 14.9044 71.4349 14.9103 71.4067 14.9104H70.6964C70.6401 14.9083 70.5869 14.8843 70.548 14.8435C70.5091 14.8027 70.4876 14.7484 70.488 14.6919V14.149C70.4876 14.0926 70.5091 14.0382 70.548 13.9974C70.5869 13.9566 70.6401 13.9326 70.6964 13.9305H71.4067C71.4349 13.9307 71.4627 13.9365 71.4885 13.9477C71.5143 13.9588 71.5377 13.9751 71.5571 13.9955C71.5765 14.0158 71.5917 14.0399 71.6017 14.0663C71.6116 14.0927 71.6162 14.1208 71.6151 14.149V14.6919ZM71.6151 12.8922C71.6161 12.9199 71.6113 12.9475 71.6012 12.9733C71.591 12.9991 71.5757 13.0225 71.5562 13.0421C71.5366 13.0617 71.5133 13.0771 71.4876 13.0873C71.4619 13.0974 71.4344 13.1022 71.4067 13.1012H70.6964C70.6687 13.102 70.6411 13.0971 70.6153 13.087C70.5895 13.077 70.5659 13.0618 70.546 13.0425C70.5261 13.0231 70.5102 13 70.4993 12.9744C70.4884 12.9489 70.4827 12.9214 70.4826 12.8936V12.3507C70.4846 12.2959 70.5072 12.2439 70.5458 12.2051C70.5845 12.1664 70.6363 12.1437 70.6909 12.1417H71.4013C71.4566 12.1417 71.5096 12.1637 71.5487 12.2029C71.5877 12.2421 71.6097 12.2953 71.6097 12.3507L71.6151 12.8922Z" fill="#404041"/>
<path d="M84 29.5209V7.08062L81.8229 4.77334H10.6502L0 0V29.1246L6.63016 31.6409L6.78576 31.2337L0.439755 28.8246V0.67861L9.59072 4.77334H2.93621V27.3371L9.61914 29.5087H27.0267V33.4365H11.5256V92.6724L16.6836 94.9796L73.2334 95V36.0681L70.5773 33.4406H57.7338V29.5168L84 29.5209ZM81.8229 5.40581L83.5643 7.26113V28.6889L81.8229 26.9422V5.40581ZM3.3692 5.20494H81.3872V26.9001H3.3692V5.20494ZM9.72874 29.0839L4.50174 27.3371H81.601L83.337 29.0839H57.7338V28.1338H55.4335V29.0839H29.331V28.1338H27.0307V29.0839H9.72874ZM70.5773 34.054L72.7977 36.2568V94.3051L70.5773 92.3548V34.054ZM72.4365 94.5684H16.8244L12.5946 92.6683H70.2783L72.4365 94.5684ZM70.1362 92.2353H11.9532V33.8749H70.1362V92.2353ZM29.331 33.4406V29.5128H55.4281V33.4365L29.331 33.4406Z" fill="#404041"/>
</svg>
