<svg width="170" height="47" viewBox="0 0 170 47" fill="none" xmlns="http://www.w3.org/2000/svg">
<path d="M157.558 5.81839H145.69V14.1761H157.558V5.81839Z" fill="#F7941C"/>
<path d="M145.695 27.3233H132.294V33.2043H141.073V39.0925H157.558V15.8312H145.695V27.3233Z" fill="#F7941C"/>
<path d="M139.582 34.686H132.289V39.0926H139.582V34.686Z" fill="#F7941C"/>
<path d="M130.839 27.3185H124.139V39.0926H130.839V27.3185Z" fill="#F7941C"/>
<path d="M124.139 5.81839V16.4938C125.553 16.4947 126.953 16.2193 128.259 15.6832C129.566 15.1472 130.753 14.361 131.753 13.3696C132.753 12.3782 133.546 11.201 134.087 9.90536C134.628 8.60969 134.907 7.22091 134.907 5.81839H124.139Z" fill="#F7941C"/>
<path d="M128.454 17.7441H127.811V23.071H128.454V17.7441Z" fill="#F7941C"/>
<path d="M134.265 14.9954L133.81 15.4468L137.609 19.2152L138.064 18.7637L134.265 14.9954Z" fill="#F7941C"/>
<path d="M141.95 9.25876H136.58V9.89721H141.95V9.25876Z" fill="#F7941C"/>
<path d="M15.7615 20.2907C15.9326 20.2901 16.0965 20.2224 16.2175 20.1023C16.3386 19.9823 16.4068 19.8197 16.4075 19.6499V19.0139C16.4061 18.9735 16.4131 18.9333 16.428 18.8958C16.4429 18.8582 16.4653 18.8241 16.494 18.7954C16.5226 18.7668 16.5569 18.7442 16.5946 18.7292C16.6324 18.7141 16.6728 18.7069 16.7135 18.7079H26.4788C26.5191 18.7079 26.5591 18.7158 26.5964 18.7312C26.6337 18.7466 26.6675 18.7692 26.696 18.7976C26.7244 18.8261 26.7469 18.8598 26.7622 18.8969C26.7774 18.934 26.7851 18.9738 26.7847 19.0139V19.6547C26.7854 19.8249 26.854 19.9879 26.9755 20.108C27.0971 20.2281 27.2616 20.2956 27.4332 20.2956C27.517 20.2949 27.5999 20.2778 27.6771 20.2452C27.7542 20.2126 27.8241 20.1651 27.8826 20.1054C27.9411 20.0458 27.9871 19.9753 28.0179 19.8979C28.0487 19.8206 28.0638 19.7379 28.0622 19.6547V18.6043C28.0641 18.2961 27.9427 17.9997 27.7246 17.7802C27.5065 17.5606 27.2096 17.4359 26.8989 17.4334H22.4862C22.4521 17.434 22.4182 17.4279 22.3865 17.4153C22.3549 17.4027 22.3261 17.384 22.3018 17.3602C22.2776 17.3364 22.2585 17.308 22.2455 17.2767C22.2325 17.2454 22.226 17.2118 22.2263 17.178V16.8407C22.2163 16.6797 22.1448 16.5286 22.0263 16.4181C21.9079 16.3076 21.7514 16.2461 21.5888 16.2461C21.4262 16.2461 21.2698 16.3076 21.1513 16.4181C21.0329 16.5286 20.9613 16.6797 20.9513 16.8407V17.178C20.9517 17.2118 20.9451 17.2454 20.9322 17.2767C20.9192 17.308 20.9 17.3364 20.8758 17.3602C20.8516 17.384 20.8228 17.4027 20.7911 17.4153C20.7594 17.4279 20.7256 17.434 20.6915 17.4334H16.2933C15.9809 17.4353 15.6818 17.5592 15.4608 17.7784C15.2399 17.9976 15.1149 18.2943 15.113 18.6043V19.6475C15.113 19.8181 15.1814 19.9817 15.303 20.1023C15.4246 20.223 15.5895 20.2907 15.7615 20.2907Z" fill="#404041"/>
<path d="M24.8783 25.2996H19.1712C19.0857 25.2989 19.0039 25.265 18.9435 25.205C18.8831 25.1451 18.8488 25.0639 18.8482 24.9791V24.466C18.8488 24.4248 18.8577 24.3842 18.8744 24.3466C18.891 24.3089 18.9151 24.275 18.9452 24.2467C18.9753 24.2184 19.0108 24.1964 19.0496 24.1819C19.0884 24.1674 19.1298 24.1608 19.1712 24.1624H24.2323C24.5452 24.1605 24.8447 24.0362 25.0657 23.8165C25.2867 23.5968 25.4113 23.2995 25.4126 22.9891V20.987C25.4113 20.6766 25.2867 20.3793 25.0657 20.1596C24.8447 19.9399 24.5452 19.8156 24.2323 19.8137H18.7195C18.5654 19.815 18.4132 19.8463 18.2713 19.9059C18.1295 19.9656 18.0009 20.0524 17.8929 20.1613C17.7849 20.2703 17.6995 20.3993 17.6418 20.5409C17.584 20.6826 17.5549 20.8342 17.5562 20.987V28.7231C17.5556 28.8748 17.5852 29.0252 17.6434 29.1655C17.7017 29.3058 17.7873 29.4333 17.8955 29.5406C18.0036 29.6478 18.1321 29.7328 18.2735 29.7906C18.415 29.8484 18.5665 29.8778 18.7195 29.8771H24.8783C25.0313 29.8778 25.1828 29.8484 25.3243 29.7906C25.4657 29.7328 25.5942 29.6478 25.7023 29.5406C25.8105 29.4333 25.8961 29.3058 25.9544 29.1655C26.0126 29.0252 26.0423 28.8748 26.0416 28.7231V26.4608C26.0432 26.3085 26.0143 26.1574 25.9565 26.0162C25.8987 25.8751 25.8132 25.7467 25.7049 25.6387C25.5967 25.5306 25.4679 25.445 25.326 25.3868C25.1841 25.3286 25.0319 25.2989 24.8783 25.2996ZM18.8482 21.4448C18.8513 21.3621 18.8868 21.2839 18.9471 21.2268C19.0074 21.1697 19.0878 21.1381 19.1712 21.1388H23.7855C23.8663 21.1418 23.943 21.175 24.0002 21.2317C24.0574 21.2885 24.0909 21.3646 24.0939 21.4448V22.5506C24.0909 22.6308 24.0574 22.7069 24.0002 22.7636C23.943 22.8204 23.8663 22.8536 23.7855 22.8566H19.1712C19.0878 22.8573 19.0074 22.8257 18.9471 22.7686C18.8868 22.7114 18.8513 22.6333 18.8482 22.5506V21.4448ZM24.7156 28.2413C24.7184 28.2825 24.7124 28.3238 24.698 28.3626C24.6835 28.4013 24.661 28.4367 24.6319 28.4662C24.6028 28.4958 24.5678 28.5189 24.529 28.5341C24.4903 28.5493 24.4488 28.5562 24.4072 28.5545H19.1712C19.1298 28.5561 19.0884 28.5494 19.0496 28.535C19.0108 28.5205 18.9753 28.4985 18.9452 28.4702C18.9151 28.4419 18.891 28.4079 18.8744 28.3703C18.8577 28.3326 18.8488 28.292 18.8482 28.2509V26.9354C18.8488 26.8506 18.8831 26.7695 18.9435 26.7096C19.0039 26.6496 19.0857 26.6156 19.1712 26.615H24.4072C24.4486 26.6156 24.4896 26.6245 24.5275 26.641C24.5655 26.6575 24.5997 26.6814 24.6282 26.7113C24.6568 26.7411 24.679 26.7763 24.6935 26.8148C24.7081 26.8533 24.7148 26.8943 24.7132 26.9354L24.7156 28.2413Z" fill="#404041"/>
<path d="M32.1349 22.6374C32.3694 22.636 32.5994 22.5728 32.8013 22.4543C33.0031 22.3357 33.1696 22.1661 33.2836 21.9628L35.1099 18.5633C35.1494 18.4934 35.1698 18.4145 35.1689 18.3343C35.168 18.2542 35.146 18.1757 35.1049 18.1066C35.0639 18.0376 35.0052 17.9805 34.9349 17.941C34.8646 17.9015 34.7851 17.881 34.7043 17.8815C34.4665 17.885 34.2338 17.9505 34.0296 18.0715C33.8254 18.1924 33.6569 18.3645 33.541 18.5706L31.7318 21.97C31.6965 22.0393 31.6795 22.1164 31.6823 22.194C31.6851 22.2716 31.7077 22.3473 31.748 22.4139C31.7882 22.4805 31.8448 22.5359 31.9125 22.575C31.9801 22.6141 32.0566 22.6355 32.1349 22.6374Z" fill="#404041"/>
<path d="M42.466 21.8832C42.5949 22.0924 42.7753 22.2656 42.9903 22.3866C43.2053 22.5076 43.4477 22.5723 43.6949 22.5747C43.7733 22.5768 43.8509 22.558 43.9195 22.5201C43.988 22.4822 44.0451 22.4267 44.0846 22.3595C44.1241 22.2922 44.1446 22.2156 44.144 22.1377C44.1433 22.0599 44.1216 21.9836 44.081 21.917L41.9633 18.5007C41.8312 18.2913 41.6481 18.1183 41.4307 17.9979C41.2133 17.8774 40.9688 17.8134 40.7199 17.8116C40.6424 17.8108 40.5661 17.8307 40.4991 17.8691C40.432 17.9076 40.3766 17.9632 40.3386 18.0302C40.3006 18.0972 40.2815 18.173 40.2832 18.2499C40.2849 18.3267 40.3074 18.4017 40.3483 18.4669L42.466 21.8832Z" fill="#404041"/>
<path d="M33.9782 29.3905L41.3173 28.7159C41.3868 28.7094 41.4564 28.7264 41.515 28.764C41.5736 28.8015 41.6178 28.8576 41.6403 28.9231L41.6573 29.005C41.7415 29.1964 41.879 29.36 42.0537 29.4765C42.2283 29.593 42.4329 29.6576 42.6433 29.6627C42.7238 29.6654 42.8037 29.6483 42.8759 29.6128C42.948 29.5773 43.0101 29.5245 43.0566 29.4593C43.1031 29.3941 43.1325 29.3184 43.1422 29.2391C43.1518 29.1598 43.1415 29.0793 43.1121 29.005L41.9488 25.632C41.8735 25.4407 41.7426 25.276 41.5726 25.1589C41.4026 25.0417 41.2013 24.9775 40.9943 24.9743C40.9139 24.9716 40.834 24.9887 40.7618 25.0242C40.6897 25.0597 40.6276 25.1125 40.5811 25.1777C40.5346 25.2429 40.5052 25.3186 40.4955 25.3979C40.4859 25.4772 40.4962 25.5577 40.5256 25.632L41.0113 27.0438C41.0233 27.084 41.0263 27.1263 41.0202 27.1677C41.014 27.2091 40.9989 27.2488 40.9758 27.2838C40.9527 27.3189 40.9222 27.3485 40.8864 27.3708C40.8506 27.393 40.8104 27.4072 40.7685 27.4125L35.2556 27.9425C35.1099 27.957 34.9642 27.7811 35.0273 27.6534L36.8221 23.1625C36.854 23.09 36.8674 23.0108 36.8612 22.9319C36.8549 22.853 36.8291 22.7768 36.7862 22.7102C36.7432 22.6435 36.6843 22.5883 36.6148 22.5496C36.5452 22.5108 36.4671 22.4896 36.3873 22.488C36.1711 22.4871 35.9597 22.5511 35.7807 22.6714C35.6017 22.7918 35.4636 22.963 35.3843 23.1625L33.2496 28.4388C33.2021 28.5505 33.185 28.6726 33.2002 28.7929C33.2154 28.9131 33.2624 29.0273 33.3363 29.1238C33.4102 29.2203 33.5084 29.2958 33.6211 29.3426C33.7338 29.3895 33.857 29.406 33.9782 29.3905Z" fill="#404041"/>
<path d="M48.008 29.7735C48.1989 29.7748 48.3832 29.7045 48.5242 29.5768C48.6651 29.449 48.7522 29.2732 48.7681 29.0845L49.4214 21.7869V18.8958C49.4207 18.8131 49.4525 18.7333 49.5101 18.6735C49.5677 18.6137 49.6465 18.5785 49.7298 18.5753H59.7696C59.8644 18.5809 59.9594 18.5672 60.0486 18.535C60.1379 18.5028 60.2196 18.4529 60.2888 18.3882C60.3579 18.3236 60.413 18.2456 60.4506 18.1591C60.4883 18.0726 60.5077 17.9793 60.5077 17.8851C60.5077 17.7909 60.4883 17.6976 60.4506 17.6111C60.413 17.5246 60.3579 17.4466 60.2888 17.3819C60.2196 17.3173 60.1379 17.2674 60.0486 17.2352C59.9594 17.203 59.8644 17.1893 59.7696 17.1948H55.5584C55.503 17.1942 55.45 17.1723 55.4105 17.1336C55.3711 17.095 55.3484 17.0426 55.3471 16.9877V16.9178C55.3481 16.827 55.3308 16.737 55.2962 16.653C55.2617 16.5689 55.2106 16.4926 55.1459 16.4284C55.0812 16.3642 55.0042 16.3135 54.9195 16.2792C54.8348 16.2449 54.744 16.2278 54.6526 16.2287C54.4687 16.23 54.2928 16.303 54.1628 16.4319C54.0328 16.5609 53.9593 16.7354 53.958 16.9178V16.9973C53.9567 17.0523 53.934 17.1046 53.8946 17.1433C53.8551 17.1819 53.8021 17.2039 53.7467 17.2045H49.2053C49.05 17.2042 48.8962 17.2343 48.7526 17.2932C48.6091 17.3521 48.4788 17.4385 48.3691 17.5476C48.2594 17.6566 48.1725 17.7861 48.1135 17.9286C48.0544 18.0711 48.0243 18.2237 48.025 18.3778V21.7122L47.3766 29.0893C47.3695 29.1761 47.3806 29.2633 47.4091 29.3457C47.4376 29.428 47.4829 29.5036 47.5421 29.5678C47.6014 29.632 47.6733 29.6834 47.7535 29.7188C47.8336 29.7542 47.9202 29.7728 48.008 29.7735Z" fill="#404041"/>
<path d="M59.2766 21.0135H51C50.9075 21.0126 50.8158 21.0297 50.7299 21.064C50.6441 21.0982 50.5659 21.1489 50.4999 21.2131C50.4338 21.2773 50.3811 21.3538 50.3448 21.4382C50.3086 21.5226 50.2894 21.6132 50.2885 21.705C50.2934 21.8904 50.37 22.0669 50.5025 22.1979C50.6349 22.3288 50.8131 22.4042 51 22.4085H54.264C54.3458 22.4085 54.4243 22.4407 54.4821 22.4981C54.5399 22.5555 54.5724 22.6333 54.5724 22.7145V27.9594C54.5718 28.0401 54.539 28.1174 54.4813 28.1742C54.4235 28.2311 54.3454 28.263 54.264 28.263H53.7322C53.6397 28.2639 53.5483 28.2829 53.4632 28.3189C53.3781 28.3549 53.301 28.4072 53.2363 28.4727C53.1716 28.5383 53.1205 28.6158 53.086 28.701C53.0515 28.7861 53.0342 28.8771 53.0352 28.9689C53.0345 29.0598 53.0521 29.1499 53.0869 29.2339C53.1218 29.318 53.1731 29.3943 53.238 29.4584C53.3029 29.5226 53.38 29.5732 53.4649 29.6075C53.5497 29.6418 53.6406 29.6589 53.7322 29.6579H54.7983C54.9513 29.6586 55.1028 29.6292 55.2442 29.5714C55.3857 29.5136 55.5142 29.4286 55.6223 29.3214C55.7304 29.2141 55.8161 29.0866 55.8743 28.9463C55.9326 28.806 55.9622 28.6556 55.9616 28.5039V22.7C55.9647 22.6174 56.0002 22.5392 56.0605 22.4821C56.1208 22.4249 56.2012 22.3934 56.2846 22.394H59.2766C59.37 22.3947 59.4626 22.3769 59.5491 22.3418C59.6355 22.3067 59.7141 22.255 59.7803 22.1896C59.8465 22.1241 59.8989 22.0464 59.9346 21.9607C59.9703 21.875 59.9885 21.7832 59.9882 21.6905C59.9866 21.5996 59.9669 21.5099 59.9302 21.4266C59.8935 21.3433 59.8406 21.268 59.7745 21.2051C59.7083 21.1421 59.6303 21.0928 59.5448 21.0599C59.4594 21.0271 59.3682 21.0113 59.2766 21.0135Z" fill="#404041"/>
<path d="M75.2299 28.9086H69.7C69.6171 28.9048 69.5389 28.8694 69.4818 28.8096C69.4248 28.7499 69.3933 28.6705 69.394 28.5882V27.2896C69.3996 27.1955 69.3858 27.1013 69.3533 27.0127C69.3209 26.9241 69.2706 26.8431 69.2054 26.7745C69.1402 26.7059 69.0616 26.6513 68.9744 26.6139C68.8872 26.5766 68.7932 26.5573 68.6982 26.5573C68.6032 26.5573 68.5092 26.5766 68.422 26.6139C68.3348 26.6513 68.2562 26.7059 68.191 26.7745C68.1259 26.8431 68.0755 26.9241 68.0431 27.0127C68.0107 27.1013 67.9968 27.1955 68.0024 27.2896V29.1326C68.0043 29.4426 68.1293 29.7393 68.3502 29.9585C68.5712 30.1777 68.8703 30.3016 69.1827 30.3035H75.2299C75.3222 30.3026 75.4135 30.2836 75.4985 30.2476C75.5834 30.2115 75.6604 30.1592 75.7249 30.0937C75.7894 30.0281 75.8403 29.9505 75.8745 29.8654C75.9088 29.7803 75.9257 29.6893 75.9244 29.5976C75.9251 29.507 75.9076 29.4171 75.8729 29.3332C75.8382 29.2493 75.7871 29.1731 75.7224 29.109C75.6578 29.0449 75.581 28.9941 75.4964 28.9597C75.4119 28.9253 75.3213 28.9079 75.2299 28.9086Z" fill="#404041"/>
<path d="M70.2659 25.3646C70.3345 25.3649 70.4023 25.3491 70.4637 25.3187C70.5251 25.2883 70.5785 25.244 70.6196 25.1895C70.6607 25.1349 70.6883 25.0716 70.7002 25.0045C70.7122 24.9374 70.7082 24.8685 70.6884 24.8033L70.5889 24.4178C70.5397 24.2515 70.4377 24.1054 70.2982 24.0012C70.1586 23.897 69.9888 23.8403 69.8141 23.8396C69.744 23.8412 69.6752 23.8587 69.6129 23.8905C69.5505 23.9224 69.4963 23.9678 69.4542 24.0235C69.4121 24.0792 69.3833 24.1436 69.37 24.2118C69.3566 24.2801 69.359 24.3506 69.377 24.4178L69.4912 24.8033C69.5416 24.9674 69.6444 25.1109 69.7841 25.2121C69.9238 25.3134 70.0929 25.3669 70.2659 25.3646Z" fill="#404041"/>
<path d="M73.0465 23.4709C72.8797 23.4719 72.7179 23.5274 72.5862 23.6289C72.4545 23.7304 72.3602 23.8722 72.318 24.0323L72.1723 24.531C72.1507 24.5938 72.1448 24.6608 72.155 24.7263C72.1652 24.7919 72.1912 24.854 72.2307 24.9075C72.2703 24.9609 72.3223 25.0041 72.3823 25.0334C72.4423 25.0626 72.5086 25.0771 72.5754 25.0755C72.7398 25.0747 72.8995 25.0213 73.0308 24.9232C73.1621 24.8251 73.2579 24.6875 73.304 24.531L73.4642 24.0323C73.4828 23.9675 73.4862 23.8993 73.4741 23.833C73.4619 23.7667 73.4347 23.7041 73.3943 23.6499C73.354 23.5956 73.3017 23.5513 73.2414 23.5203C73.1811 23.4893 73.1144 23.4724 73.0465 23.4709Z" fill="#404041"/>
<path d="M72.5462 17.761H72.8692C72.8901 17.7612 72.9106 17.7669 72.9285 17.7776C72.9463 17.7882 72.961 17.8035 72.9709 17.8217C72.9809 17.8399 72.9857 17.8604 72.9849 17.8811C72.9841 17.9018 72.9777 17.9219 72.9664 17.9393L72.5462 18.4356C72.3428 18.6805 72.2383 18.9916 72.2531 19.3086C72.2679 19.6256 72.4009 19.9259 72.6264 20.151L72.9348 20.457C72.9958 20.5134 73.0343 20.5898 73.0432 20.6721C73.0521 20.7544 73.0309 20.8371 72.9834 20.9051L72.5147 21.5147C72.4507 21.5901 72.4116 21.6831 72.4027 21.7813C72.3937 21.8795 72.4153 21.978 72.4645 22.0636C72.5137 22.1492 72.5883 22.2178 72.678 22.26C72.7677 22.3023 72.8684 22.3163 72.9664 22.3001L73.9208 22.2037C73.9594 22.2004 73.9982 22.205 74.0349 22.2172C74.0717 22.2295 74.1054 22.2491 74.1341 22.2749C74.1628 22.3007 74.1859 22.332 74.2018 22.367C74.2178 22.4021 74.2263 22.4399 74.2268 22.4784V24.8997C74.2218 24.9744 74.2323 25.0493 74.2577 25.1198C74.2831 25.1903 74.3228 25.2549 74.3743 25.3096C74.4259 25.3643 74.4882 25.4079 74.5575 25.4377C74.6267 25.4675 74.7014 25.4828 74.7769 25.4828C74.8524 25.4828 74.927 25.4675 74.9963 25.4377C75.0655 25.4079 75.1279 25.3643 75.1794 25.3096C75.231 25.2549 75.2707 25.1903 75.2961 25.1198C75.3215 25.0493 75.332 24.9744 75.327 24.8997V22.382C75.3287 22.2942 75.3623 22.21 75.4217 22.145C75.481 22.0799 75.5621 22.0383 75.65 22.0278L76.2158 21.9628C76.2473 21.9626 76.2781 21.972 76.3042 21.9897C76.3302 22.0073 76.3502 22.0324 76.3615 22.0616C76.3951 22.1706 76.464 22.2655 76.5575 22.3317C76.6511 22.3979 76.764 22.4317 76.8788 22.4278H77.0731C77.1413 22.4291 77.2088 22.4139 77.2697 22.3836C77.3307 22.3532 77.3833 22.3086 77.423 22.2536C77.4627 22.1986 77.4883 22.1348 77.4976 22.0677C77.5068 22.0007 77.4995 21.9324 77.4762 21.8688L77.0415 20.5847C76.9848 20.4206 76.8777 20.2783 76.7353 20.1776C76.5928 20.0769 76.4222 20.023 76.2474 20.0233C76.1785 20.0207 76.11 20.035 76.0481 20.0652C75.9863 20.0953 75.9329 20.1402 75.8929 20.1959C75.8529 20.2516 75.8275 20.3163 75.819 20.3842C75.8105 20.4521 75.8192 20.521 75.8442 20.5847L75.8758 20.6811C75.8845 20.7022 75.8879 20.725 75.8857 20.7477C75.8834 20.7704 75.8756 20.7922 75.8629 20.8112C75.8502 20.8303 75.833 20.8459 75.8128 20.8568C75.7926 20.8677 75.7701 20.8735 75.7471 20.8738L74.7125 20.9702C74.6856 20.9721 74.6586 20.9661 74.6351 20.9527C74.6116 20.9394 74.5927 20.9195 74.5807 20.8954C74.5687 20.8714 74.5642 20.8443 74.5678 20.8177C74.5714 20.7911 74.5829 20.7662 74.6008 20.7461L76.0385 18.8838C76.0814 18.8322 76.1087 18.7697 76.117 18.7034C76.1254 18.6371 76.1145 18.5698 76.0857 18.5093C76.057 18.4489 76.0114 18.3979 75.9544 18.3622C75.8975 18.3266 75.8315 18.3077 75.7641 18.3079C75.5332 18.305 75.3047 18.3556 75.0969 18.4555C74.889 18.5555 74.7076 18.7021 74.5668 18.8838L74.0665 19.527C74.0419 19.5578 74.0112 19.5832 73.9762 19.6016C73.9413 19.62 73.9028 19.631 73.8634 19.634C73.8239 19.6369 73.7842 19.6317 73.7469 19.6187C73.7095 19.6057 73.6753 19.5851 73.6464 19.5583L73.5492 19.462C73.4879 19.4043 73.4517 19.3251 73.4486 19.2414C73.4454 19.1576 73.4754 19.0759 73.5322 19.0139L74.3725 18.002C74.4373 17.9285 74.5167 17.8692 74.6057 17.8277C74.6948 17.7863 74.7915 17.7636 74.8898 17.761H76.8472C76.995 17.7516 77.1336 17.6867 77.2349 17.5795C77.3361 17.4723 77.3925 17.3309 77.3925 17.184C77.3925 17.0371 77.3361 16.8957 77.2349 16.7886C77.1336 16.6814 76.995 16.6165 76.8472 16.607H72.5462C72.4667 16.6019 72.3869 16.613 72.3119 16.6397C72.2369 16.6664 72.1682 16.7081 72.11 16.7622C72.0519 16.8163 72.0055 16.8816 71.9738 16.9542C71.9421 17.0267 71.9258 17.105 71.9258 17.184C71.9258 17.2631 71.9421 17.3413 71.9738 17.4139C72.0055 17.4865 72.0519 17.5518 72.11 17.6059C72.1682 17.66 72.2369 17.7016 72.3119 17.7283C72.3869 17.755 72.4667 17.7661 72.5462 17.761Z" fill="#404041"/>
<path d="M71.5214 27.0968C71.6619 27.3105 71.8533 27.4867 72.0786 27.6098C72.3039 27.7329 72.5562 27.7991 72.8134 27.8027C72.8943 27.8021 72.9735 27.7799 73.0428 27.7384C73.112 27.6968 73.1686 27.6375 73.2066 27.5667C73.2447 27.4959 73.2628 27.4162 73.259 27.336C73.2552 27.2559 73.2296 27.1782 73.185 27.1113L73.0077 26.8246C72.8666 26.6125 72.6748 26.4384 72.4493 26.3177C72.2239 26.197 71.9719 26.1336 71.7157 26.1331C71.6349 26.1341 71.5559 26.1565 71.4868 26.198C71.4177 26.2396 71.3612 26.2987 71.323 26.3693C71.2848 26.4399 71.2664 26.5194 71.2697 26.5995C71.273 26.6796 71.2978 26.7573 71.3417 26.8246L71.5214 27.0968Z" fill="#404041"/>
<path d="M76.6531 23.4709C76.5869 23.4716 76.5218 23.4874 76.4629 23.5173C76.404 23.5471 76.3528 23.5901 76.3135 23.6429C76.2742 23.6957 76.2478 23.7568 76.2363 23.8215C76.2249 23.8861 76.2287 23.9525 76.2475 24.0154L76.4272 24.531C76.4764 24.6885 76.575 24.8262 76.7087 24.9242C76.8424 25.0222 77.0041 25.0751 77.1703 25.0755C77.2368 25.076 77.3025 25.0608 77.3619 25.0313C77.4213 25.0017 77.4728 24.9586 77.5122 24.9054C77.5515 24.8523 77.5776 24.7906 77.5882 24.7255C77.5989 24.6604 77.5939 24.5938 77.5735 24.531L77.3962 24.0154C77.347 23.8579 77.2484 23.7201 77.1147 23.6222C76.981 23.5242 76.8193 23.4712 76.6531 23.4709Z" fill="#404041"/>
<path d="M66.4506 27.2775C66.2291 27.2802 66.0136 27.3489 65.8321 27.4748C65.6506 27.6007 65.5115 27.778 65.433 27.9834L64.9643 29.2459C64.9352 29.3242 64.9254 29.4083 64.9358 29.4912C64.9462 29.574 64.9764 29.6532 65.024 29.7221C65.0715 29.7909 65.135 29.8475 65.2091 29.8871C65.2832 29.9266 65.3658 29.948 65.45 29.9494C65.6702 29.951 65.8856 29.8859 66.0674 29.7628C66.2493 29.6396 66.3889 29.4643 66.4676 29.2603L66.9533 27.9786C66.9801 27.899 66.9875 27.8144 66.9751 27.7314C66.9626 27.6485 66.9306 27.5696 66.8816 27.5013C66.8326 27.4329 66.768 27.377 66.6931 27.3382C66.6182 27.2993 66.5351 27.2785 66.4506 27.2775Z" fill="#404041"/>
<path d="M67.082 21.6761H69.2677C69.4218 21.677 69.5745 21.6479 69.7172 21.5903C69.8599 21.5327 69.9897 21.4478 70.0993 21.3404C70.2089 21.233 70.2961 21.1052 70.356 20.9644C70.4158 20.8236 70.4471 20.6725 70.448 20.5196V17.6406C70.4467 17.3304 70.322 17.0334 70.1009 16.814C69.8798 16.5947 69.5804 16.471 69.2677 16.4697H67.082C66.7696 16.4716 66.4705 16.5956 66.2495 16.8147C66.0286 17.0339 65.9036 17.3306 65.9017 17.6406V20.5317C65.9068 20.8382 66.0337 21.1304 66.2547 21.3446C66.4757 21.5589 66.773 21.678 67.082 21.6761ZM67.065 17.4262H69.2799C69.3353 17.4268 69.3883 17.4487 69.4278 17.4874C69.4672 17.526 69.4899 17.5784 69.4912 17.6334C69.4902 17.6598 69.484 17.6859 69.4728 17.7099C69.4617 17.734 69.4458 17.7556 69.4262 17.7736C69.4065 17.7915 69.3834 17.8054 69.3583 17.8144C69.3332 17.8234 69.3066 17.8274 69.2799 17.8261H67.065C67.0385 17.8274 67.0119 17.8234 66.9869 17.8144C66.962 17.8053 66.9391 17.7914 66.9196 17.7734C66.9002 17.7555 66.8845 17.7338 66.8736 17.7098C66.8627 17.6857 66.8568 17.6597 66.8562 17.6334C66.8574 17.5788 66.8798 17.5268 66.9187 17.4882C66.9576 17.4496 67.01 17.4274 67.065 17.4262ZM67.065 18.8717H69.2653C69.2948 18.8686 69.3246 18.8716 69.3528 18.8806C69.3811 18.8897 69.407 18.9045 69.4291 18.9242C69.4512 18.9438 69.4688 18.9679 69.4809 18.9947C69.493 19.0216 69.4992 19.0507 69.4992 19.0801C69.4992 19.1095 69.493 19.1386 69.4809 19.1655C69.4688 19.1924 69.4512 19.2164 69.4291 19.2361C69.407 19.2557 69.3811 19.2705 69.3528 19.2796C69.3246 19.2886 69.2948 19.2917 69.2653 19.2885H67.065C67.0132 19.283 66.9653 19.2586 66.9304 19.2202C66.8956 19.1817 66.8764 19.1318 66.8764 19.0801C66.8764 19.0284 66.8956 18.9785 66.9304 18.9401C66.9653 18.9016 67.0132 18.8772 67.065 18.8717ZM67.065 20.3173H69.2799C69.3353 20.3179 69.3883 20.3398 69.4278 20.3785C69.4672 20.4171 69.4899 20.4695 69.4912 20.5245C69.4902 20.5509 69.484 20.577 69.4728 20.601C69.4617 20.6251 69.4458 20.6467 69.4262 20.6647C69.4065 20.6826 69.3834 20.6965 69.3583 20.7055C69.3332 20.7145 69.3066 20.7185 69.2799 20.7172H67.065C67.0385 20.7185 67.0119 20.7145 66.9869 20.7055C66.962 20.6964 66.9391 20.6825 66.9196 20.6645C66.9002 20.6466 66.8845 20.6249 66.8736 20.6009C66.8627 20.5768 66.8568 20.5508 66.8562 20.5245C66.8562 20.4691 66.878 20.4158 66.917 20.3762C66.9561 20.3366 67.0092 20.3137 67.065 20.3124V20.3173Z" fill="#404041"/>
<path d="M65.5618 23.1674H67.0335C67.1165 23.1667 67.1965 23.1979 67.2567 23.2546C67.317 23.3112 67.3527 23.3888 67.3565 23.471V24.9623C67.3548 25.0407 67.3692 25.1186 67.3986 25.1914C67.428 25.2642 67.4719 25.3303 67.5277 25.3859C67.5834 25.4414 67.6499 25.4853 67.7232 25.5147C67.7964 25.5442 67.8749 25.5587 67.9539 25.5574C68.0328 25.5577 68.1109 25.5425 68.1839 25.5127C68.2568 25.483 68.323 25.4391 68.3788 25.3838C68.4346 25.3285 68.4787 25.2628 68.5088 25.1904C68.5388 25.1181 68.5541 25.0405 68.5538 24.9623V23.471C68.5538 23.3905 68.586 23.3133 68.6434 23.2563C68.7008 23.1994 68.7786 23.1674 68.8598 23.1674H70.7031C70.7722 23.1665 70.8404 23.152 70.9038 23.1248C70.9673 23.0976 71.0247 23.0583 71.0727 23.009C71.1208 22.9598 71.1586 22.9016 71.1839 22.8378C71.2093 22.774 71.2216 22.7059 71.2204 22.6374C71.2213 22.5697 71.2086 22.5026 71.183 22.4399C71.1573 22.3772 71.1193 22.3202 71.071 22.2723C71.0228 22.2245 70.9654 22.1867 70.9022 22.1613C70.839 22.1358 70.7713 22.1232 70.7031 22.1242H65.7561C65.7146 22.1236 65.6737 22.1148 65.6357 22.0982C65.5978 22.0817 65.5635 22.0578 65.535 22.0279C65.5065 21.9981 65.4843 21.9629 65.4697 21.9244C65.4551 21.8859 65.4484 21.8449 65.4501 21.8038V17.9707C65.4491 17.9021 65.4345 17.8344 65.4071 17.7715C65.3797 17.7086 65.3401 17.6516 65.2904 17.6039C65.2408 17.5562 65.1821 17.5188 65.1178 17.4936C65.0535 17.4685 64.9849 17.4562 64.9158 17.4575C64.8476 17.4565 64.7799 17.4691 64.7167 17.4946C64.6535 17.52 64.596 17.5578 64.5478 17.6056C64.4996 17.6535 64.4615 17.7104 64.4359 17.7731C64.4102 17.8358 64.3975 17.903 64.3985 17.9707V21.9965C64.3965 22.3047 64.5179 22.6011 64.736 22.8206C64.9541 23.0402 65.2511 23.1649 65.5618 23.1674Z" fill="#404041"/>
<path d="M66.2733 24.8033L66.402 24.4178C66.4222 24.352 66.4268 24.2824 66.4155 24.2146C66.4043 24.1467 66.3774 24.0823 66.337 24.0264C66.2966 23.9705 66.2438 23.9246 66.1826 23.8922C66.1215 23.8598 66.0536 23.8418 65.9843 23.8396C65.8094 23.8406 65.6395 23.8974 65.4996 24.0015C65.3596 24.1056 65.2571 24.2515 65.2072 24.4178L65.0785 24.8033C65.0598 24.8683 65.0565 24.9366 65.0688 25.0031C65.081 25.0696 65.1085 25.1324 65.1491 25.1866C65.1897 25.2409 65.2424 25.2851 65.303 25.316C65.3636 25.3469 65.4305 25.3635 65.4986 25.3646C65.6716 25.3669 65.8406 25.3134 65.9803 25.2121C66.12 25.1109 66.2228 24.9674 66.2733 24.8033Z" fill="#404041"/>
<path d="M76.0701 26.9209C75.9883 26.9228 75.9086 26.9467 75.8395 26.9902C75.7704 27.0337 75.7146 27.0951 75.6781 27.1677C75.6417 27.2404 75.6258 27.3216 75.6324 27.4025C75.639 27.4834 75.6678 27.561 75.7156 27.6268L76.1527 28.234C76.3016 28.4456 76.4996 28.6186 76.7299 28.7385C76.9602 28.8584 77.2162 28.9217 77.4763 28.923C77.5581 28.9256 77.6391 28.9053 77.71 28.8647C77.7809 28.824 77.8389 28.7645 77.8776 28.6929C77.9162 28.6212 77.9339 28.5403 77.9286 28.4592C77.9234 28.3781 77.8954 28.3001 77.8479 28.234L77.4277 27.6268C77.2752 27.4097 77.0722 27.2321 76.8359 27.1093C76.5996 26.9864 76.3369 26.9218 76.0701 26.9209Z" fill="#404041"/>
<path d="M90.3598 22.0928C90.5139 22.0938 90.6666 22.0646 90.8093 22.007C90.952 21.9494 91.0818 21.8645 91.1914 21.7571C91.301 21.6497 91.3882 21.522 91.4481 21.3811C91.5079 21.2403 91.5392 21.0892 91.5401 20.9364V20.5846C91.5382 20.2747 91.4133 19.9779 91.1923 19.7588C90.9714 19.5396 90.6723 19.4156 90.3598 19.4137H84.7013C84.3906 19.4163 84.0936 19.541 83.8755 19.7605C83.6574 19.98 83.536 20.2764 83.538 20.5846V20.9364C83.537 21.0883 83.5664 21.2389 83.6245 21.3795C83.6826 21.5201 83.7682 21.6478 83.8764 21.7554C83.9846 21.8629 84.1132 21.9481 84.2548 22.006C84.3964 22.064 84.5481 22.0935 84.7013 22.0928H90.3598ZM84.5313 20.8256V20.7123C84.5296 20.6712 84.5363 20.6302 84.5509 20.5917C84.5655 20.5532 84.5877 20.518 84.6162 20.4881C84.6447 20.4583 84.679 20.4344 84.7169 20.4179C84.7549 20.4013 84.7958 20.3925 84.8373 20.3919H90.2214C90.3069 20.3925 90.3887 20.4265 90.4491 20.4864C90.5095 20.5464 90.5438 20.6275 90.5444 20.7123V20.8256C90.5438 20.8667 90.5349 20.9073 90.5182 20.9449C90.5016 20.9826 90.4775 21.0166 90.4474 21.0448C90.4173 21.0731 90.3818 21.0952 90.343 21.1096C90.3042 21.1241 90.2628 21.1307 90.2214 21.1291H84.83C84.7894 21.1305 84.749 21.1235 84.7113 21.1087C84.6736 21.094 84.6393 21.0717 84.6106 21.0432C84.5819 21.0147 84.5594 20.9807 84.5445 20.9433C84.5296 20.9058 84.5226 20.8658 84.524 20.8256H84.5313Z" fill="#404041"/>
<path d="M91.4358 29.205H90.8043C90.7426 29.2048 90.6821 29.222 90.6297 29.2545C90.5774 29.2869 90.5354 29.3334 90.5085 29.3885C90.4816 29.4437 90.4709 29.5052 90.4777 29.5661C90.4845 29.6269 90.5085 29.6847 90.5469 29.7326C90.6772 29.8934 90.8421 30.0231 91.0295 30.1123C91.2169 30.2016 91.4221 30.248 91.63 30.2482H92.276C92.3363 30.248 92.3953 30.2312 92.4464 30.1997C92.4976 30.1682 92.539 30.1232 92.5659 30.0697C92.5928 30.0163 92.6043 29.9565 92.599 29.897C92.5937 29.8374 92.5719 29.7805 92.5359 29.7326C92.4033 29.5694 92.2358 29.4374 92.0456 29.3462C91.8553 29.2549 91.6471 29.2067 91.4358 29.205Z" fill="#404041"/>
<path d="M81.3232 20.2329C81.403 20.2371 81.4828 20.2245 81.5573 20.1961C81.6319 20.1676 81.6996 20.1239 81.7559 20.0677C81.8123 20.0116 81.8561 19.9443 81.8845 19.8702C81.9129 19.7961 81.9252 19.7169 81.9206 19.6378V19.1728C81.9297 19.0867 81.9685 19.0063 82.0305 18.9453C82.0924 18.8842 82.1737 18.8463 82.2606 18.8379H92.8006C92.8875 18.8463 92.9688 18.8842 93.0308 18.9453C93.0927 19.0063 93.1315 19.0867 93.1406 19.1728V19.6378C93.1354 19.7189 93.147 19.8003 93.1748 19.8769C93.2025 19.9534 93.2457 20.0235 93.3018 20.0828C93.3579 20.1421 93.4257 20.1894 93.5009 20.2217C93.5762 20.254 93.6573 20.2707 93.7393 20.2707C93.8213 20.2707 93.9024 20.254 93.9776 20.2217C94.0529 20.1894 94.1206 20.1421 94.1767 20.0828C94.2328 20.0235 94.2761 19.9534 94.3038 19.8769C94.3315 19.8003 94.3431 19.7189 94.3379 19.6378V18.7873C94.3413 18.6391 94.3142 18.4917 94.2585 18.3542C94.2028 18.2166 94.1195 18.0917 94.0137 17.9869C93.9079 17.8822 93.7818 17.7998 93.643 17.7449C93.5042 17.6899 93.3556 17.6634 93.2062 17.667H92.0089C91.972 17.6657 91.9361 17.6545 91.905 17.6347C91.8739 17.6149 91.8488 17.5872 91.8321 17.5545C91.8155 17.5218 91.808 17.4852 91.8105 17.4486C91.813 17.4121 91.8253 17.3768 91.8462 17.3466L92.0089 17.1201C92.0482 17.072 92.0724 17.0135 92.0784 16.9518C92.0844 16.8902 92.0721 16.8282 92.0428 16.7735C92.0136 16.7188 91.9687 16.6738 91.9139 16.6442C91.8591 16.6146 91.7967 16.6016 91.7345 16.6069C91.4949 16.5989 91.2572 16.6524 91.0445 16.7621C90.8318 16.8719 90.6512 17.0342 90.5202 17.2333L90.3599 17.4405C90.3019 17.5127 90.2279 17.5706 90.1437 17.6099C90.0594 17.6492 89.9673 17.6687 89.8742 17.667H88.4511C88.3625 17.6582 88.2794 17.6202 88.2151 17.559C88.1509 17.4979 88.1091 17.4172 88.0965 17.3297V16.8165C88.0965 16.6677 88.0369 16.5249 87.9308 16.4196C87.8246 16.3143 87.6807 16.2552 87.5306 16.2552C87.3806 16.2552 87.2366 16.3143 87.1305 16.4196C87.0244 16.5249 86.9648 16.6677 86.9648 16.8165V17.3297C86.9552 17.4188 86.914 17.5015 86.8486 17.5633C86.7832 17.6251 86.6979 17.6618 86.6078 17.667H85.1871C85.094 17.6687 85.0018 17.6492 84.9176 17.6099C84.8334 17.5706 84.7594 17.5127 84.7013 17.4405L84.5556 17.2333C84.432 17.035 84.2578 16.8726 84.0505 16.7626C83.8432 16.6525 83.6103 16.5989 83.3754 16.6069C83.3139 16.6038 83.2529 16.6181 83.1994 16.6482C83.1459 16.6783 83.1021 16.7229 83.0733 16.7768C83.0445 16.8307 83.0318 16.8916 83.0367 16.9524C83.0415 17.0133 83.0638 17.0714 83.1009 17.1201L83.2636 17.3779C83.2805 17.4068 83.2895 17.4395 83.2897 17.4729C83.29 17.5063 83.2815 17.5392 83.2651 17.5683C83.2487 17.5974 83.2249 17.6219 83.1961 17.6392C83.1674 17.6565 83.1346 17.6661 83.1009 17.667H81.8551C81.7058 17.6634 81.5573 17.6899 81.4186 17.7449C81.2799 17.7999 81.154 17.8823 81.0484 17.987C80.9428 18.0918 80.8597 18.2168 80.8043 18.3543C80.7488 18.4919 80.7221 18.6392 80.7258 18.7873V19.6378C80.7212 19.7169 80.7335 19.7961 80.7619 19.8702C80.7903 19.9443 80.8341 20.0116 80.8905 20.0677C80.9469 20.1239 81.0145 20.1676 81.0891 20.1961C81.1637 20.2245 81.2434 20.2371 81.3232 20.2329Z" fill="#404041"/>
<path d="M84.5556 29.205H83.9072C83.6888 29.2061 83.4732 29.2537 83.2749 29.3448C83.0767 29.4358 82.9006 29.5681 82.7585 29.7326C82.7195 29.7783 82.6945 29.8342 82.6865 29.8936C82.6785 29.9529 82.6878 30.0133 82.7134 30.0676C82.739 30.1219 82.7797 30.1677 82.8307 30.1997C82.8817 30.2317 82.941 30.2485 83.0013 30.2482H83.6473C83.8645 30.2468 84.079 30.2002 84.2769 30.1113C84.4747 30.0225 84.6516 29.8935 84.796 29.7326C84.8346 29.6861 84.8593 29.6297 84.8672 29.57C84.8752 29.5103 84.8662 29.4496 84.8412 29.3947C84.8161 29.3398 84.7761 29.2929 84.7257 29.2594C84.6752 29.2259 84.6163 29.207 84.5556 29.205Z" fill="#404041"/>
<path d="M82.8434 23.8733V27.0631C82.8447 27.3728 82.9691 27.6696 83.1896 27.8888C83.4102 28.1081 83.709 28.2321 84.0212 28.234H91.0374C91.1927 28.2346 91.3466 28.2048 91.4902 28.1462C91.6338 28.0876 91.7643 28.0014 91.8742 27.8926C91.9842 27.7838 92.0713 27.6545 92.1307 27.5121C92.19 27.3698 92.2204 27.2172 92.2201 27.0631V23.8733C92.2204 23.7192 92.19 23.5666 92.1307 23.4243C92.0713 23.2819 91.9842 23.1526 91.8742 23.0438C91.7643 22.9349 91.6338 22.8487 91.4902 22.7902C91.3466 22.7316 91.1927 22.7017 91.0374 22.7024H84.0212C83.709 22.7043 83.4102 22.8283 83.1896 23.0476C82.9691 23.2668 82.8447 23.5635 82.8434 23.8733ZM84.1354 23.7118H90.9354C91.0017 23.7118 91.0653 23.738 91.1123 23.7845C91.1592 23.8311 91.1855 23.8942 91.1855 23.96C91.1855 24.0258 91.1592 24.0889 91.1123 24.1355C91.0653 24.182 91.0017 24.2082 90.9354 24.2082H84.1354C84.069 24.2082 84.0054 24.182 83.9585 24.1355C83.9116 24.0889 83.8852 24.0258 83.8852 23.96C83.8852 23.8942 83.9116 23.8311 83.9585 23.7845C84.0054 23.738 84.069 23.7118 84.1354 23.7118ZM84.1524 25.2032H90.9087C90.9807 25.2056 91.0491 25.235 91.1 25.2856C91.151 25.3361 91.1807 25.404 91.1831 25.4754C91.1805 25.5455 91.1504 25.6118 91.099 25.66C91.0477 25.7082 90.9793 25.7345 90.9087 25.7332H84.15C84.0793 25.7345 84.0109 25.7082 83.9596 25.66C83.9082 25.6118 83.8781 25.5455 83.8755 25.4754C83.8779 25.404 83.9076 25.3361 83.9586 25.2856C84.0095 25.235 84.0779 25.2056 84.15 25.2032H84.1524ZM84.1354 26.7427H90.9354C90.9998 26.7427 91.0616 26.7681 91.1071 26.8133C91.1526 26.8584 91.1782 26.9197 91.1782 26.9836C91.1806 27.0166 91.176 27.0498 91.1649 27.081C91.1537 27.1122 91.1362 27.1408 91.1134 27.165C91.0906 27.1892 91.063 27.2084 91.0324 27.2216C91.0018 27.2347 90.9687 27.2415 90.9354 27.2414H84.1354C84.1013 27.2417 84.0675 27.2353 84.0359 27.2224C84.0044 27.2095 83.9758 27.1905 83.9518 27.1665C83.9277 27.1424 83.9088 27.1139 83.8962 27.0825C83.8835 27.0511 83.8773 27.0174 83.878 26.9836C83.8779 26.9507 83.8846 26.9182 83.8977 26.8879C83.9108 26.8577 83.93 26.8305 83.9542 26.8079C83.9783 26.7854 84.0068 26.7679 84.038 26.7567C84.0691 26.7455 84.1023 26.7407 84.1354 26.7427Z" fill="#404041"/>
<path d="M97.9078 24.1287H100.689C100.844 24.1255 100.993 24.0615 101.101 23.9506C101.21 23.8396 101.27 23.6907 101.269 23.536C101.269 23.4602 101.254 23.3851 101.225 23.3149C101.196 23.2448 101.154 23.181 101.1 23.1273C101.046 23.0736 100.982 23.0309 100.911 23.0019C100.841 22.9728 100.765 22.9578 100.689 22.9578H97.9078C97.8312 22.9575 97.7552 22.9722 97.6844 23.0012C97.6135 23.0301 97.5491 23.0727 97.495 23.1264C97.4408 23.1802 97.3978 23.2441 97.3687 23.3144C97.3395 23.3847 97.3246 23.46 97.325 23.536C97.3243 23.6909 97.385 23.8399 97.4941 23.9507C97.6031 24.0616 97.7517 24.1255 97.9078 24.1287Z" fill="#404041"/>
<path d="M97.2935 19.8956H101.318C101.403 19.9009 101.488 19.8888 101.568 19.8601C101.648 19.8315 101.722 19.7868 101.784 19.7289C101.846 19.671 101.896 19.6011 101.929 19.5235C101.963 19.4459 101.981 19.3622 101.981 19.2776C101.981 19.1931 101.963 19.1094 101.929 19.0318C101.896 18.9542 101.846 18.8843 101.784 18.8264C101.722 18.7685 101.648 18.7238 101.568 18.6951C101.488 18.6664 101.403 18.6544 101.318 18.6597H97.2935C97.135 18.6695 96.9862 18.7389 96.8775 18.8537C96.7688 18.9685 96.7083 19.1201 96.7083 19.2776C96.7083 19.4352 96.7688 19.5868 96.8775 19.7016C96.9862 19.8164 97.135 19.8858 97.2935 19.8956Z" fill="#404041"/>
<path d="M98.1021 17.7466H100.509C100.67 17.7466 100.824 17.6831 100.938 17.5702C101.052 17.4572 101.116 17.304 101.116 17.1443C101.116 16.9845 101.052 16.8313 100.938 16.7184C100.824 16.6054 100.67 16.542 100.509 16.542H98.1021C97.9411 16.542 97.7867 16.6054 97.6728 16.7184C97.559 16.8313 97.495 16.9845 97.495 17.1443C97.495 17.304 97.559 17.4572 97.6728 17.5702C97.7867 17.6831 97.9411 17.7466 98.1021 17.7466Z" fill="#404041"/>
<path d="M97.9223 22.0278H100.664C100.825 22.0278 100.98 21.9643 101.094 21.8514C101.207 21.7384 101.271 21.5852 101.271 21.4255C101.271 21.2658 101.207 21.1126 101.094 20.9996C100.98 20.8866 100.825 20.8232 100.664 20.8232H97.9223C97.7613 20.8232 97.6069 20.8866 97.493 20.9996C97.3792 21.1126 97.3152 21.2658 97.3152 21.4255C97.3152 21.5852 97.3792 21.7384 97.493 21.8514C97.6069 21.9643 97.7613 22.0278 97.9223 22.0278Z" fill="#404041"/>
<path d="M100.363 25.0755H98.2357C98.0828 25.0749 97.9312 25.1043 97.7898 25.1621C97.6483 25.2199 97.5198 25.3048 97.4117 25.4121C97.3035 25.5194 97.2179 25.6469 97.1597 25.7872C97.1014 25.9275 97.0718 26.0778 97.0724 26.2296V28.8123C97.0705 29.1205 97.1919 29.4169 97.41 29.6364C97.6281 29.8559 97.925 29.9806 98.2357 29.9832H100.368C100.681 29.9819 100.981 29.8582 101.202 29.639C101.424 29.4197 101.549 29.1226 101.551 28.8123V26.2296C101.549 26.0763 101.518 25.9249 101.457 25.7838C101.397 25.6428 101.309 25.515 101.199 25.4078C101.088 25.3006 100.958 25.216 100.814 25.159C100.671 25.102 100.518 25.0736 100.363 25.0755ZM100.349 28.4822C100.35 28.5235 100.343 28.5647 100.329 28.6034C100.314 28.642 100.292 28.6773 100.263 28.7072C100.234 28.7371 100.199 28.761 100.161 28.7774C100.123 28.7938 100.082 28.8023 100.04 28.8026H98.5538C98.5115 28.8033 98.4694 28.7954 98.4302 28.7795C98.3909 28.7636 98.3554 28.7399 98.3256 28.71C98.2959 28.68 98.2726 28.6444 98.2571 28.6052C98.2417 28.5661 98.2344 28.5242 98.2357 28.4822V26.5548C98.2347 26.5145 98.242 26.4743 98.2572 26.4369C98.2723 26.3995 98.2951 26.3655 98.3239 26.3371C98.3528 26.3086 98.3872 26.2864 98.4251 26.2716C98.463 26.2568 98.5035 26.2499 98.5441 26.2512H100.03C100.072 26.2482 100.114 26.2538 100.153 26.2678C100.192 26.2818 100.228 26.3039 100.258 26.3325C100.288 26.3612 100.311 26.3958 100.327 26.4341C100.343 26.4724 100.35 26.5135 100.349 26.5548V28.4822Z" fill="#404041"/>
<path d="M103.049 25.4754H104.973C105 25.4742 105.026 25.4808 105.05 25.4944C105.073 25.5081 105.092 25.5282 105.103 25.5523C105.115 25.5763 105.12 25.6033 105.116 25.6299C105.113 25.6565 105.102 25.6815 105.084 25.7019L102.772 28.3786C102.726 28.4342 102.697 28.5016 102.687 28.5731C102.678 28.6445 102.689 28.7171 102.72 28.7825C102.75 28.8479 102.799 28.9035 102.859 28.9428C102.92 28.9822 102.991 29.0037 103.064 29.005C103.321 29.0069 103.574 28.9516 103.807 28.8432C104.039 28.7348 104.244 28.576 104.407 28.3786L105.65 26.921C105.664 26.9039 105.683 26.8913 105.704 26.8851C105.725 26.8788 105.748 26.8791 105.769 26.8859C105.79 26.8927 105.809 26.9057 105.822 26.9231C105.836 26.9406 105.843 26.9617 105.844 26.9836V29.6627C105.848 29.8261 105.916 29.9815 106.035 30.0955C106.153 30.2095 106.311 30.2729 106.476 30.2723C106.639 30.2723 106.795 30.2081 106.91 30.0937C107.026 29.9794 107.09 29.8244 107.09 29.6627V26.9523C107.089 26.9293 107.094 26.9064 107.106 26.8868C107.119 26.8672 107.137 26.8518 107.158 26.8428C107.179 26.8338 107.203 26.8316 107.226 26.8365C107.248 26.8415 107.269 26.8533 107.285 26.8704L108.608 28.3955C108.778 28.5867 108.988 28.7399 109.222 28.845C109.457 28.95 109.711 29.0046 109.968 29.005C110.039 29.0045 110.109 28.9841 110.168 28.9462C110.228 28.9082 110.276 28.8542 110.306 28.7905C110.336 28.7268 110.348 28.6559 110.339 28.586C110.33 28.5161 110.302 28.45 110.257 28.3955L107.897 25.7019C107.88 25.6823 107.869 25.6584 107.865 25.6329C107.861 25.6074 107.864 25.5814 107.875 25.5578C107.885 25.5341 107.902 25.5139 107.924 25.4993C107.945 25.4848 107.97 25.4765 107.996 25.4754H109.92C110.08 25.4656 110.23 25.3954 110.341 25.2792C110.451 25.1631 110.512 25.0097 110.512 24.8502C110.512 24.6908 110.451 24.5374 110.341 24.4213C110.23 24.3051 110.08 24.2349 109.92 24.225H107.396C107.315 24.225 107.237 24.1931 107.18 24.1361C107.122 24.0792 107.09 24.002 107.09 23.9215V23.2951C107.093 23.2151 107.126 23.139 107.182 23.0822C107.239 23.0254 107.316 22.9921 107.396 22.9891H108.819C109.132 22.9878 109.431 22.8644 109.652 22.6456C109.873 22.4268 109.998 22.1303 110 21.8206V17.6984C109.999 17.5457 109.967 17.3947 109.908 17.254C109.848 17.1133 109.76 16.9857 109.651 16.8785C109.541 16.7713 109.411 16.6866 109.269 16.6293C109.126 16.5719 108.973 16.5431 108.819 16.5444H104.132C103.979 16.5434 103.827 16.5726 103.686 16.6302C103.544 16.6878 103.415 16.7728 103.307 16.8801C103.198 16.9874 103.112 17.115 103.054 17.2554C102.996 17.3959 102.966 17.5464 102.967 17.6984V21.8206C102.966 21.9733 102.995 22.1247 103.053 22.2661C103.111 22.4075 103.197 22.5362 103.305 22.6447C103.413 22.7533 103.542 22.8395 103.684 22.8986C103.826 22.9577 103.978 22.9885 104.132 22.9891H105.538C105.579 22.9891 105.619 22.997 105.656 23.0124C105.693 23.0278 105.727 23.0504 105.756 23.0789C105.784 23.1073 105.807 23.1411 105.822 23.1782C105.837 23.2153 105.845 23.255 105.844 23.2951V23.9215C105.846 23.9617 105.839 24.0018 105.824 24.0392C105.809 24.0767 105.786 24.1107 105.758 24.1391C105.729 24.1676 105.695 24.1899 105.657 24.2047C105.619 24.2195 105.579 24.2264 105.538 24.225H103.049C102.963 24.2197 102.877 24.232 102.796 24.261C102.715 24.29 102.64 24.3352 102.578 24.3938C102.515 24.4524 102.465 24.5231 102.43 24.6016C102.396 24.6801 102.379 24.7647 102.379 24.8502C102.379 24.9358 102.396 25.0204 102.43 25.0989C102.465 25.1774 102.515 25.2481 102.578 25.3067C102.64 25.3653 102.715 25.4105 102.796 25.4395C102.877 25.4685 102.963 25.4807 103.049 25.4754ZM107.09 18.0501C107.093 17.9706 107.126 17.8951 107.183 17.8388C107.24 17.7825 107.316 17.7495 107.396 17.7466H108.462C108.503 17.7462 108.543 17.7539 108.58 17.769C108.618 17.7841 108.652 17.8064 108.68 17.8346C108.709 17.8628 108.732 17.8964 108.747 17.9334C108.763 17.9704 108.771 18.0101 108.771 18.0501V18.8452C108.772 18.8857 108.765 18.9261 108.75 18.9638C108.735 19.0016 108.712 19.0358 108.684 19.0645C108.655 19.0932 108.62 19.1157 108.582 19.1306C108.544 19.1455 108.503 19.1525 108.462 19.1512H107.396C107.315 19.1505 107.237 19.118 107.18 19.0607C107.122 19.0034 107.09 18.9259 107.09 18.8452V18.0501ZM107.09 20.681C107.09 20.5987 107.121 20.5193 107.178 20.4596C107.235 20.3998 107.313 20.3643 107.396 20.3606H108.462C108.504 20.3609 108.545 20.3695 108.583 20.3859C108.622 20.4023 108.656 20.4261 108.685 20.456C108.714 20.4859 108.736 20.5212 108.751 20.5599C108.766 20.5985 108.772 20.6397 108.771 20.681V21.4954C108.772 21.5367 108.766 21.5779 108.751 21.6165C108.736 21.6552 108.714 21.6905 108.685 21.7204C108.656 21.7503 108.622 21.7741 108.583 21.7905C108.545 21.8069 108.504 21.8155 108.462 21.8158H107.396C107.313 21.8121 107.235 21.7766 107.178 21.7168C107.121 21.6571 107.09 21.5777 107.09 21.4954V20.681ZM104.176 18.0501C104.178 17.9704 104.211 17.8946 104.268 17.8382C104.325 17.7817 104.402 17.749 104.482 17.7466H105.534C105.615 17.7466 105.693 17.7785 105.75 17.8355C105.807 17.8924 105.84 17.9696 105.84 18.0501V18.8452C105.841 18.8855 105.834 18.9257 105.819 18.9633C105.804 19.0008 105.782 19.035 105.753 19.0636C105.724 19.0923 105.69 19.1148 105.652 19.1299C105.615 19.1449 105.574 19.1522 105.534 19.1512H104.482C104.442 19.1512 104.402 19.1432 104.364 19.1278C104.327 19.1124 104.293 19.0898 104.265 19.0614C104.236 19.033 104.214 18.9992 104.199 18.9621C104.183 18.925 104.176 18.8853 104.176 18.8452V18.0501ZM105.534 21.8037H104.482C104.399 21.8 104.321 21.7645 104.264 21.7048C104.207 21.645 104.175 21.5656 104.176 21.4833V20.681C104.175 20.5987 104.207 20.5193 104.264 20.4596C104.321 20.3998 104.399 20.3643 104.482 20.3606H105.534C105.575 20.3612 105.616 20.37 105.654 20.3866C105.692 20.4031 105.726 20.427 105.755 20.4569C105.783 20.4867 105.805 20.5219 105.82 20.5604C105.834 20.5989 105.841 20.6399 105.84 20.681V21.4954C105.84 21.5755 105.808 21.6525 105.752 21.7101C105.696 21.7676 105.619 21.8012 105.538 21.8037H105.534Z" fill="#404041"/>
<path d="M161.821 1.52988H119.865V6.96996H15.7469L0 0V42.5739L9.79443 46.2504L10.0203 45.6529L0.643572 42.1306V0.982971L14.1659 6.96996H4.33986V39.9599H4.39086L13.9959 43.1352L119.865 43.1521H119.886L126.946 46.3347L170 46.3636V7.44941L161.821 1.52988ZM119.865 42.5136H14.1513L6.43571 39.9599H119.874L119.865 42.5136ZM119.865 39.3214H4.97857V7.60841H119.85L119.865 39.3214ZM120.508 2.16833H161.177V42.5136H120.508V2.16833ZM127.148 45.7252L121.443 43.1521H161.493L168.237 45.7252H127.148ZM169.356 45.4674L161.828 42.5932V2.32011L169.356 7.78188V45.4674Z" fill="#404041"/>
</svg>
