<svg width="20" height="17" viewBox="0 0 20 17" fill="none" xmlns="http://www.w3.org/2000/svg">
<path d="M2.48264 4.67734L3.38921 10.805H16.6302L17.5316 4.58793L13.9001 7.72767L9.9962 2.70927L5.9322 7.71104L2.48264 4.67734ZM12.9187 3.07939L12.8376 3.14905L12.9842 3.1636L14.1974 4.72204L15.6914 3.43079L15.837 3.44535L15.7725 3.3601L18.2812 1.19138C18.4416 1.05302 18.6404 0.966933 18.851 0.944655C19.0616 0.922378 19.2741 0.964968 19.4598 1.06673C19.6456 1.16849 19.7958 1.32456 19.8905 1.51405C19.9851 1.70355 20.0196 1.91743 19.9893 2.12707L18.4299 12.8843H1.59477L0.0113832 2.17593C-0.0200692 1.96513 0.014029 1.74975 0.109059 1.55897C0.204089 1.36819 0.355459 1.21123 0.542667 1.10934C0.729874 1.00746 0.943874 0.96557 1.15568 0.989356C1.36749 1.01314 1.56686 1.10145 1.72681 1.24233L4.11905 3.34762L4.06707 3.41L4.18039 3.40168L5.68165 4.72204L6.9417 3.16984L7.05503 3.16048L6.99265 3.10642L9.20814 0.383573C9.30683 0.262257 9.43162 0.164768 9.57321 0.0983665C9.71481 0.0319652 9.86955 -0.00163735 10.0259 6.13405e-05C10.1823 0.00176003 10.3363 0.0387164 10.4764 0.108178C10.6165 0.177639 10.7392 0.277816 10.8352 0.401248L12.9197 3.07939H12.9187ZM1.67587 13.924H18.3103V14.9637C18.3103 15.2394 18.2008 15.5038 18.0058 15.6988C17.8108 15.8938 17.5464 16.0033 17.2706 16.0033H2.71552C2.43979 16.0033 2.17535 15.8938 1.98037 15.6988C1.7854 15.5038 1.67587 15.2394 1.67587 14.9637V13.924Z" fill="#F7941C"/>
</svg>
