<svg width="17" height="20" viewBox="0 0 17 20" fill="none" xmlns="http://www.w3.org/2000/svg">
<path d="M12.5774 14L11.8066 15.4494L15.5806 14.8324C14.819 14.4504 13.788 14.1774 12.5774 14ZM2.8554 14.316C1.1074 14.777 0 15.5324 0 16.6544C0.000719757 16.896 0.0535199 17.1345 0.1548 17.3538L6.2118 16.3638L2.8554 14.316ZM16.858 16L8.428 17.374L10.6512 19.9032C14.302 19.5762 17 18.41 17 16.6544C17 16.4204 16.9496 16.203 16.858 16.0002V16ZM7.0036 17.611L1.3076 18.542C2.8132 19.4748 5.4706 20 8.5 20C8.6836 20 8.863 19.9948 9.0438 19.991L7.0036 17.611Z" fill="#F7941C"/>
<path d="M8.50047 0C5.24047 0 2.56567 2.6666 2.56567 5.9192C2.56567 7.1696 2.96307 8.3344 3.63407 9.2922L7.48087 15.9422L7.49727 15.9636C7.64907 16.1618 7.79727 16.3182 7.97127 16.4332C8.14527 16.5484 8.36127 16.6172 8.57327 16.596C8.99687 16.5536 9.25627 16.2544 9.50247 15.9208L9.51567 15.9036L13.7625 8.6754L13.7649 8.6708C13.8645 8.4908 13.9381 8.3076 14.0005 8.1292C14.2869 7.4276 14.4343 6.67703 14.4345 5.9192C14.4345 2.6666 11.7605 0 8.50047 0ZM8.50047 3.409C9.91467 3.409 11.0185 4.5108 11.0185 5.919C11.0185 7.3276 9.91467 8.429 8.50047 8.429C7.08607 8.429 5.98167 7.3274 5.98167 5.919C5.98167 4.511 7.08627 3.409 8.50047 3.409Z" fill="#F7941C"/>
</svg>
