<svg width="22" height="20" viewBox="0 0 22 20" fill="none" xmlns="http://www.w3.org/2000/svg">
<path d="M21.3043 6.00832C21.3043 5.92516 21.2939 5.83853 21.2731 5.74844C21.2523 5.65835 21.2281 5.57519 21.2003 5.49896C21.1726 5.42273 21.1344 5.34997 21.0859 5.28066C21.0373 5.21137 20.9819 5.14553 20.9195 5.08316C20.857 5.02079 20.7912 4.96535 20.7218 4.91684C20.6525 4.86833 20.5762 4.82675 20.493 4.7921C20.4097 4.75745 20.3265 4.72973 20.2433 4.70894C20.1601 4.68815 20.0699 4.67775 19.9728 4.67775H17.7051C18.3431 4.05405 18.6621 3.29868 18.6621 2.41164C18.6621 1.99584 18.5858 1.61469 18.4333 1.26819C18.2807 0.921691 18.0068 0.623701 17.6115 0.37422C17.2162 0.12474 16.7272 0 16.1447 0C15.9089 0 15.6697 0.024255 15.4269 0.0727651C15.1842 0.121275 14.9519 0.19404 14.73 0.29106C14.508 0.38808 14.2896 0.495495 14.0746 0.613306C13.8596 0.731116 13.6516 0.866251 13.4504 1.01871C13.2493 1.17117 13.0552 1.3271 12.8679 1.48649C12.6807 1.64588 12.5004 1.81913 12.327 2.00624C12.1536 2.19335 11.9906 2.37353 11.8381 2.54678C11.6855 2.72003 11.5364 2.90021 11.3908 3.08732C11.2451 3.27443 11.1168 3.44421 11.0059 3.59667C10.8949 3.74913 10.7909 3.90852 10.6938 4.07484C10.4025 3.63132 10.087 3.20513 9.74716 2.79626C9.40734 2.38739 8.99471 1.95773 8.50926 1.50728C8.02381 1.05683 7.48981 0.693001 6.90727 0.4158C6.32473 0.1386 5.74912 0 5.18045 0C4.59791 0 4.10899 0.12474 3.7137 0.37422C3.3184 0.623701 3.04447 0.921691 2.8919 1.26819C2.73933 1.61469 2.66304 1.99584 2.66304 2.41164C2.66304 3.29868 2.98899 4.06098 3.64088 4.69854H1.33152C0.957031 4.69854 0.641488 4.82675 0.384893 5.08316C0.128298 5.33957 0 5.65489 0 6.02911V10H1.35233V18.6694C1.35233 19.0298 1.48062 19.3416 1.73722 19.605C1.99382 19.8683 2.30936 20 2.68385 20H18.6413C19.0158 20 19.3313 19.8683 19.5879 19.605C19.8445 19.3416 19.9728 19.0298 19.9728 18.6694V10H21.3043V6.00832ZM16.1447 1.33056C16.9353 1.33056 17.3306 1.69092 17.3306 2.41164C17.3306 2.88288 17.1711 3.29522 16.8521 3.64865C16.5331 4.00208 16.1343 4.26195 15.6558 4.42827C15.1773 4.59459 14.6675 4.67775 14.1266 4.67775H11.8797C12.1432 4.28967 12.4241 3.91892 12.7223 3.56549C13.0205 3.21206 13.3568 2.85863 13.7313 2.5052C14.1058 2.15177 14.5046 1.86764 14.9276 1.65281C15.3506 1.43798 15.7563 1.33056 16.1447 1.33056ZM5.18045 1.33056C5.92943 1.33056 6.68882 1.67013 7.4586 2.34927C8.22839 3.02841 8.91149 3.80457 9.5079 4.67775H7.26095C6.41488 4.67775 5.65897 4.46985 4.99321 4.05405C4.32745 3.63825 3.99457 3.08385 3.99457 2.39085C3.99457 1.72557 4.34825 1.37907 5.05562 1.35135C5.09723 1.33749 5.13884 1.33056 5.18045 1.33056ZM19.9728 8.66944H11.3179V6.00832H19.9728V8.66944ZM1.33152 6.00832H9.98641V8.66944H1.33152V6.00832ZM2.68385 10H9.98641V18.6694H2.68385V10ZM18.6413 18.6694H11.3179V10H18.6413V18.6694Z" fill="#F7941C"/>
</svg>
