<svg width="16" height="15" viewBox="0 0 16 15" fill="none" xmlns="http://www.w3.org/2000/svg">
<path d="M15.0015 1.49002C15.0982 1.58697 15.1524 1.71829 15.1524 1.85518C15.1524 1.99208 15.0982 2.12339 15.0015 2.22035L13.9226 3.30032L11.8537 1.23141L12.9326 0.151437C13.0296 0.054472 13.1611 0 13.2983 0C13.4354 0 13.567 0.054472 13.664 0.151437L15.0015 1.48899V1.49002ZM13.1912 4.03064L11.1223 1.96173L4.07457 9.01051C4.01764 9.06743 3.97478 9.13686 3.94941 9.21326L3.11667 11.7104C3.10157 11.756 3.09942 11.8048 3.11048 11.8515C3.12153 11.8981 3.14535 11.9408 3.17926 11.9747C3.21318 12.0086 3.25586 12.0325 3.30253 12.0435C3.3492 12.0546 3.39803 12.0524 3.44356 12.0373L5.94073 11.2046C6.01704 11.1795 6.08646 11.137 6.14348 11.0805L13.1912 4.03168V4.03064Z" fill="#F7941C"/>
<path fill-rule="evenodd" clip-rule="evenodd" d="M0 13.4483C0 13.8598 0.16348 14.2545 0.454477 14.5455C0.745474 14.8365 1.14015 14.9999 1.55168 14.9999H12.9307C13.3422 14.9999 13.7369 14.8365 14.0279 14.5455C14.3189 14.2545 14.4824 13.8598 14.4824 13.4483V7.24153C14.4824 7.10436 14.4279 6.9728 14.3309 6.8758C14.2339 6.7788 14.1023 6.72431 13.9651 6.72431C13.828 6.72431 13.6964 6.7788 13.5994 6.8758C13.5024 6.9728 13.4479 7.10436 13.4479 7.24153V13.4483C13.4479 13.5854 13.3934 13.717 13.2964 13.814C13.1994 13.911 13.0679 13.9655 12.9307 13.9655H1.55168C1.4145 13.9655 1.28295 13.911 1.18595 13.814C1.08895 13.717 1.03445 13.5854 1.03445 13.4483V2.06926C1.03445 1.93208 1.08895 1.80052 1.18595 1.70353C1.28295 1.60653 1.4145 1.55203 1.55168 1.55203H8.27564C8.41282 1.55203 8.54437 1.49754 8.64137 1.40054C8.73837 1.30354 8.79286 1.17198 8.79286 1.03481C8.79286 0.897628 8.73837 0.766069 8.64137 0.66907C8.54437 0.572072 8.41282 0.517578 8.27564 0.517578H1.55168C1.14015 0.517578 0.745474 0.681058 0.454477 0.972055C0.16348 1.26305 0 1.65773 0 2.06926V13.4483Z" fill="#F7941C"/>
</svg>
