<svg width="165" height="58" viewBox="0 0 165 58" fill="none" xmlns="http://www.w3.org/2000/svg">
<rect x="1" y="1" width="163" height="56" rx="1" fill="white" stroke="#F7941C" stroke-width="2"/>
<path d="M39.752 23.562C39.416 24.654 38.772 26.096 38.226 27.062L39.682 27.566C40.284 26.684 40.998 25.354 41.614 24.108L39.752 23.562ZM33.76 26.838C33.452 25.942 32.766 24.654 32.038 23.688L30.512 24.29C31.198 25.27 31.884 26.628 32.15 27.51L33.76 26.838ZM36.924 23.128H35.09V27.972H30.848V29.638H39.598V30.926H31.324V32.536H39.598V33.992H30.526V35.644H39.598V36.218H41.376V27.972H36.924V23.128ZM53.472 28.812V28.35H54.508C55.25 28.35 55.74 28.364 56.048 28.392V26.53C55.67 26.6 55.25 26.628 54.508 26.628H53.472V25.158C53.472 24.598 53.528 24.136 53.57 23.856H51.568C51.61 24.136 51.652 24.598 51.652 25.158V26.628H48.334V25.242C48.334 24.696 48.376 24.248 48.418 23.982H46.43C46.472 24.402 46.514 24.836 46.514 25.242V26.628H45.324C44.624 26.628 44.05 26.544 43.812 26.502V28.406C44.12 28.378 44.624 28.35 45.324 28.35H46.514V30.254C46.514 30.884 46.472 31.444 46.43 31.724H48.39C48.376 31.444 48.334 30.87 48.334 30.254V28.35H51.652V28.882C51.652 32.326 50.462 33.53 47.76 34.468L49.258 35.882C52.632 34.398 53.472 32.284 53.472 28.812ZM57.868 29.554L58.75 31.318C60.472 30.814 62.25 30.058 63.692 29.302V33.782C63.692 34.398 63.65 35.28 63.594 35.616H65.806C65.708 35.266 65.68 34.398 65.68 33.782V28.126C67.038 27.23 68.382 26.138 69.446 25.088L67.934 23.646C67.024 24.752 65.428 26.152 63.986 27.048C62.432 28 60.374 28.91 57.868 29.554ZM75.396 33.656C75.396 34.216 75.34 35.056 75.256 35.616H77.44C77.384 35.042 77.314 34.062 77.314 33.656V29.694C78.826 30.212 80.926 31.024 82.368 31.78L83.166 29.848C81.878 29.218 79.19 28.224 77.314 27.678V25.606C77.314 25.032 77.384 24.416 77.44 23.926H75.256C75.354 24.416 75.396 25.116 75.396 25.606V33.656ZM91.272 25.214V27.006C93.036 27.174 95.57 27.16 97.292 27.006V25.2C95.78 25.382 92.994 25.452 91.272 25.214ZM92.392 31.192L90.782 31.038C90.628 31.752 90.544 32.312 90.544 32.858C90.544 34.3 91.706 35.154 94.114 35.154C95.696 35.154 96.816 35.056 97.726 34.888L97.698 32.998C96.466 33.25 95.43 33.362 94.184 33.362C92.756 33.362 92.224 32.984 92.224 32.368C92.224 31.99 92.28 31.654 92.392 31.192ZM89.116 24.276L87.156 24.108C87.142 24.556 87.058 25.088 87.016 25.48C86.862 26.558 86.428 28.924 86.428 31.024C86.428 32.928 86.694 34.636 86.974 35.602L88.598 35.49C88.584 35.294 88.57 35.07 88.57 34.916C88.57 34.776 88.598 34.468 88.64 34.258C88.794 33.516 89.256 31.99 89.648 30.828L88.78 30.142C88.584 30.604 88.36 31.094 88.15 31.57C88.108 31.29 88.094 30.926 88.094 30.66C88.094 29.26 88.584 26.46 88.766 25.522C88.822 25.27 89.004 24.57 89.116 24.276ZM99.756 27.328L100.554 29.288C102.01 28.658 105.328 27.258 107.386 27.258C109.066 27.258 109.976 28.266 109.976 29.582C109.976 32.018 107.008 33.11 103.214 33.208L104.026 35.07C108.954 34.818 111.978 32.788 111.978 29.61C111.978 27.02 109.99 25.564 107.456 25.564C105.412 25.564 102.556 26.572 101.478 26.908C100.974 27.048 100.274 27.244 99.756 27.328ZM116.64 24.99L114.484 24.962C114.568 25.396 114.596 25.998 114.596 26.39C114.596 27.244 114.61 28.882 114.75 30.17C115.142 33.922 116.472 35.308 118.012 35.308C119.132 35.308 120.014 34.454 120.938 32.018L119.538 30.31C119.272 31.43 118.712 33.068 118.054 33.068C117.172 33.068 116.752 31.682 116.556 29.666C116.472 28.658 116.458 27.608 116.472 26.698C116.472 26.306 116.542 25.494 116.64 24.99ZM123.64 25.312L121.862 25.886C123.388 27.622 124.13 31.024 124.354 33.278L126.188 32.564C126.034 30.422 124.97 26.922 123.64 25.312ZM127.57 25.368L127.752 27.286C129.376 26.936 132.232 26.628 133.548 26.488C132.61 27.202 131.476 28.798 131.476 30.814C131.476 33.838 134.248 35.42 137.174 35.616L137.832 33.698C135.466 33.572 133.31 32.732 133.31 30.436C133.31 28.77 134.57 26.95 136.264 26.502C137.006 26.334 138.21 26.334 138.966 26.32L138.952 24.528C137.972 24.556 136.432 24.654 134.99 24.766C132.428 24.99 130.118 25.2 128.956 25.298C128.676 25.326 128.13 25.354 127.57 25.368Z" fill="#F7941C"/>
<path d="M18 25.8367L14.4535 22.4071C14.0361 22.0031 13.4175 21.8883 12.8822 22.1145C12.3475 22.3416 12 22.8664 12 23.4476V32.2032C12 32.7914 12.2387 33.3546 12.6616 33.764L16.9934 37.9536C17.5546 38.4963 18.4454 38.4963 19.0061 37.9536L23.3384 33.764C23.7613 33.3546 24 32.7914 24 32.2032V23.4476C24 22.8664 23.6525 22.3417 23.1178 22.1145C22.5825 21.8883 21.9639 22.0031 21.5465 22.4071L18 25.8367ZM21.9574 31.9511C21.9574 32.1473 21.878 32.335 21.7367 32.4713L18 36.0857V28.6787L18.71 27.9917L21.3443 25.4443C21.4482 25.3434 21.6034 25.3144 21.7367 25.3714C21.8706 25.4278 21.9574 25.5591 21.9574 25.7044V31.9511Z" fill="#F7941C"/>
<path d="M154 28.5L147.25 32.3971L147.25 24.6029L154 28.5Z" fill="#F7941C"/>
</svg>
