<svg width="60" height="60" viewBox="0 0 60 60" fill="none" xmlns="http://www.w3.org/2000/svg">
<circle cx="30" cy="30" r="30" fill="#F7941C"/>
<path d="M24.0469 33.5234H20.5625V43H18.2188V33.5234H14.7812V31.625H24.0469V33.5234ZM34.5156 37.5703C34.5156 38.6901 34.3177 39.6719 33.9219 40.5156C33.526 41.3594 32.9583 42.0104 32.2188 42.4688C31.4844 42.9271 30.6406 43.1562 29.6875 43.1562C28.7448 43.1562 27.9036 42.9297 27.1641 42.4766C26.4245 42.0234 25.8516 41.3776 25.4453 40.5391C25.0391 39.6953 24.8333 38.7266 24.8281 37.6328V37.0703C24.8281 35.9505 25.0286 34.9661 25.4297 34.1172C25.8359 33.263 26.4062 32.6094 27.1406 32.1562C27.8802 31.6979 28.724 31.4688 29.6719 31.4688C30.6198 31.4688 31.4609 31.6979 32.1953 32.1562C32.9349 32.6094 33.5052 33.263 33.9062 34.1172C34.3125 34.9661 34.5156 35.9479 34.5156 37.0625V37.5703ZM32.1406 37.0547C32.1406 35.862 31.9271 34.9557 31.5 34.3359C31.0729 33.7161 30.4635 33.4062 29.6719 33.4062C28.8854 33.4062 28.2786 33.7135 27.8516 34.3281C27.4245 34.9375 27.2083 35.8333 27.2031 37.0156V37.5703C27.2031 38.7318 27.4167 39.6328 27.8438 40.2734C28.2708 40.9141 28.8854 41.2344 29.6875 41.2344C30.474 41.2344 31.0781 40.9271 31.5 40.3125C31.9219 39.6927 32.1354 38.7917 32.1406 37.6094V37.0547ZM38.5625 38.9922V43H36.2188V31.625H40.6562C41.5104 31.625 42.2604 31.7812 42.9062 32.0938C43.5573 32.4062 44.0573 32.8516 44.4062 33.4297C44.7552 34.0026 44.9297 34.6562 44.9297 35.3906C44.9297 36.5052 44.5469 37.3854 43.7812 38.0312C43.0208 38.6719 41.9661 38.9922 40.6172 38.9922H38.5625ZM38.5625 37.0938H40.6562C41.276 37.0938 41.7474 36.9479 42.0703 36.6562C42.3984 36.3646 42.5625 35.9479 42.5625 35.4062C42.5625 34.849 42.3984 34.3984 42.0703 34.0547C41.7422 33.7109 41.2891 33.5339 40.7109 33.5234H38.5625V37.0938Z" fill="white"/>
<path fill-rule="evenodd" clip-rule="evenodd" d="M23 21.1964L30.1964 14L37.3928 21.1964L35.5937 23L30.1964 17.5982L24.7991 23L23 21.1964Z" fill="white"/>
</svg>
