<svg width="48" height="43" viewBox="0 0 48 43" fill="none" xmlns="http://www.w3.org/2000/svg">
<path d="M25.2158 11.3527H10.5767V13.7926H25.2158V11.3527Z" fill="white"/>
<path d="M25.2158 20.2989H10.5767V22.7388H25.2158V20.2989Z" fill="white"/>
<path d="M19.5228 29.2451H10.5767V31.6849H19.5228V29.2451Z" fill="white"/>
<path d="M42.1778 5.57954C34.932 6.57782 27.3603 24.1057 23.9455 30.3968C23.0877 31.9773 25.0824 33.2965 25.9652 31.7835C26.6014 30.6962 30.0713 23.8476 30.0713 23.8476C33.851 23.9723 35.245 21.3331 33.7343 19.6938C38.8142 19.7986 41.3319 17.0029 39.8912 15.3065C41.4066 15.7862 42.7187 15.4653 44.6677 14.4027C48.8263 12.1342 48.6324 4.54139 42.1778 5.57954Z" fill="white"/>
<path d="M32.5404 26.0134V38.6329C32.5404 39.0068 32.2353 39.3111 31.8621 39.3118H3.93147C3.55814 39.3111 3.25396 39.0068 3.25322 38.6329V3.93221C3.25405 3.55804 3.55823 3.25396 3.93147 3.25313H31.8621C32.2354 3.25396 32.5404 3.55814 32.5404 3.93221V10.2327C33.6046 8.7992 34.6863 7.53086 35.7935 6.4777V3.93231C35.7918 1.76006 34.0351 0.00166875 31.862 0H3.93147C1.75923 0.00166875 0.000834373 1.76006 0 3.93231V38.6329C0.000834373 40.8052 1.75923 42.5636 3.93147 42.5651H31.8621C34.0352 42.5636 35.7919 40.8051 35.7936 38.6329V23.9436C35.0406 24.9356 33.9191 25.6504 32.5404 26.0134Z" fill="white"/>
</svg>
